<?xml version="1.0" encoding="UTF-8" standalone="no"?><!DOCTYPE svg PUBLIC "-//W3C//DTD SVG 1.1//EN" "http://www.w3.org/Graphics/SVG/1.1/DTD/svg11.dtd"><svg width="100%" height="100%" viewBox="0 0 2600 1301" version="1.1" xmlns="http://www.w3.org/2000/svg" xmlns:xlink="http://www.w3.org/1999/xlink" xml:space="preserve" xmlns:serif="http://www.serif.com/" style="fill-rule:evenodd;clip-rule:evenodd;stroke-linejoin:round;stroke-miterlimit:2;"><rect id="commonscargobikes----negativ" serif:id="commonscargobikes  - negativ" x="0.953" y="0.947" width="2598.43" height="1299.21" style="fill:none;"/><g transform="matrix(6.73787,0,0,6.73787,-4020.5,-3380.88)"><text x="655.326px" y="607.619px" style="font-family:'Epilogue-ExtraBold', 'Epilogue';font-weight:800;font-size:49.943px;fill:#fff;">com<tspan x="766.45px 813.296px 845.36px " y="607.619px 607.619px 607.619px ">mon</tspan>s</text><g transform="matrix(49.9432,0,0,49.9432,906.365,654.595)"></g><text x="623.288px" y="654.595px" style="font-family:'Epilogue-ExtraBold', 'Epilogue';font-weight:800;font-size:49.943px;fill:#fff;">car<tspan x="709.939px 740.954px 772.518px 805.605px 818.44px 846.009px 878.098px " y="654.595px 654.595px 654.595px 654.595px 654.595px 654.595px 654.595px ">gobikes</tspan></text></g><g><path d="M1909.86,316.121c-0,-51.672 -41.889,-93.561 -93.561,-93.561c-51.667,-0 -93.557,41.889 -93.557,93.561c0,51.671 41.89,93.56 93.557,93.56c51.672,0 93.561,-41.889 93.561,-93.56" style="fill:#e2341d;"/><path d="M2056.97,258.292c20.777,-37.593 62.333,-37.593 83.11,-18.797c20.779,18.797 20.779,56.391 0,93.984c-14.544,28.195 -51.944,56.39 -83.11,75.187c-31.167,-18.797 -68.567,-46.992 -83.111,-75.187c-20.778,-37.593 -20.778,-75.187 -0,-93.984c20.778,-18.796 62.333,-18.796 83.111,18.797Z" style="fill:#fdc50f;"/><path d="M2406.54,218.489l-26.125,51.249c-1.037,2.038 -0.028,4.518 2.136,5.253l35.286,11.953c2.857,0.967 3.457,4.75 1.037,6.555l-29.874,22.301c-1.834,1.363 -2.024,4.038 -0.41,5.653l40.655,40.655c2.569,2.568 0.349,6.918 -3.233,6.351l-56.81,-8.975c-2.256,-0.359 -4.303,1.368 -4.336,3.652l-0.488,37.273c-0.038,3.015 -3.448,4.75 -5.914,3.01l-30.419,-21.509c-1.861,-1.322 -4.467,-0.68 -5.504,1.358l-26.125,51.254c-1.652,3.234 -6.477,2.466 -7.044,-1.121l-8.975,-56.791c-0.359,-2.256 -2.634,-3.675 -4.816,-2.996l-35.588,11.073c-2.885,0.898 -5.593,-1.81 -4.695,-4.694l11.074,-35.584c0.679,-2.182 -0.736,-4.462 -2.992,-4.816l-56.795,-8.979c-3.588,-0.563 -4.355,-5.393 -1.122,-7.04l51.259,-26.129c2.033,-1.038 2.675,-3.639 1.354,-5.504l-21.505,-30.42c-1.745,-2.466 -0.009,-5.876 3.01,-5.913l37.273,-0.489c2.28,-0.028 4.006,-2.079 3.652,-4.336l-8.979,-56.805c-0.568,-3.587 3.787,-5.801 6.351,-3.233l40.655,40.65c1.619,1.619 4.29,1.424 5.657,-0.404l22.296,-29.88c1.81,-2.419 5.588,-1.819 6.556,1.042l11.953,35.281c0.735,2.164 3.219,3.174 5.257,2.136l51.245,-26.12c3.238,-1.652 6.69,1.805 5.043,5.039" style="fill:#61b22b;"/></g></svg>