<?xml version="1.0" encoding="UTF-8" standalone="no"?><!DOCTYPE svg PUBLIC "-//W3C//DTD SVG 1.1//EN" "http://www.w3.org/Graphics/SVG/1.1/DTD/svg11.dtd"><svg width="100%" height="100%" viewBox="0 0 2600 1301" version="1.1" xmlns="http://www.w3.org/2000/svg" xmlns:xlink="http://www.w3.org/1999/xlink" xml:space="preserve" xmlns:serif="http://www.serif.com/" style="fill-rule:evenodd;clip-rule:evenodd;stroke-linejoin:round;stroke-miterlimit:2;"><rect id="commonscargobikes" x="0.765" y="0.947" width="2598.43" height="1299.21" style="fill:none;"/><g transform="matrix(6.73787,0,0,6.73787,-4020.69,-3380.88)"><text x="655.326px" y="607.619px" style="font-family:'Epilogue-ExtraBold', 'Epilogue';font-weight:800;font-size:49.943px;">com<tspan x="766.45px 813.296px 845.36px " y="607.619px 607.619px 607.619px ">mon</tspan>s</text><g transform="matrix(49.9432,0,0,49.9432,906.365,654.595)"></g><text x="623.288px" y="654.595px" style="font-family:'Epilogue-ExtraBold', 'Epilogue';font-weight:800;font-size:49.943px;">car<tspan x="709.939px 740.954px 772.518px 805.605px 818.44px 846.009px 878.098px " y="654.595px 654.595px 654.595px 654.595px 654.595px 654.595px 654.595px ">gobikes</tspan></text></g><g><path d="M1909.67,316.121c0,-51.672 -41.889,-93.561 -93.56,-93.561c-51.668,-0 -93.557,41.889 -93.557,93.561c-0,51.671 41.889,93.56 93.557,93.56c51.671,0 93.56,-41.889 93.56,-93.56" style="fill:#e2341d;"/><path d="M2056.78,258.292c20.778,-37.593 62.333,-37.593 83.111,-18.797c20.778,18.797 20.778,56.391 0,93.984c-14.545,28.195 -51.944,56.39 -83.111,75.187c-31.166,-18.797 -68.566,-46.992 -83.11,-75.187c-20.778,-37.593 -20.778,-75.187 -0,-93.984c20.777,-18.796 62.333,-18.796 83.11,18.797Z" style="fill:#fdc50f;"/><path d="M2406.35,218.489l-26.125,51.249c-1.038,2.038 -0.028,4.518 2.135,5.253l35.286,11.953c2.857,0.967 3.457,4.75 1.038,6.555l-29.875,22.301c-1.833,1.363 -2.024,4.038 -0.409,5.653l40.655,40.655c2.568,2.568 0.349,6.918 -3.234,6.351l-56.809,-8.975c-2.257,-0.359 -4.304,1.368 -4.336,3.652l-0.489,37.273c-0.037,3.015 -3.448,4.75 -5.913,3.01l-30.42,-21.509c-1.861,-1.322 -4.466,-0.68 -5.504,1.358l-26.125,51.254c-1.651,3.234 -6.476,2.466 -7.044,-1.121l-8.975,-56.791c-0.358,-2.256 -2.633,-3.675 -4.815,-2.996l-35.589,11.073c-2.884,0.898 -5.592,-1.81 -4.694,-4.694l11.073,-35.584c0.679,-2.182 -0.735,-4.462 -2.992,-4.816l-56.795,-8.979c-3.587,-0.563 -4.355,-5.393 -1.121,-7.04l51.258,-26.129c2.034,-1.038 2.676,-3.639 1.354,-5.504l-21.504,-30.42c-1.745,-2.466 -0.01,-5.876 3.01,-5.913l37.273,-0.489c2.279,-0.028 4.006,-2.079 3.652,-4.336l-8.98,-56.805c-0.567,-3.587 3.788,-5.801 6.351,-3.233l40.655,40.65c1.619,1.619 4.29,1.424 5.658,-0.404l22.296,-29.88c1.81,-2.419 5.588,-1.819 6.555,1.042l11.953,35.281c0.735,2.164 3.22,3.174 5.258,2.136l51.244,-26.12c3.238,-1.652 6.691,1.805 5.044,5.039" style="fill:#61b22b;"/></g></svg>