<?xml version="1.0" encoding="UTF-8" standalone="no"?><!DOCTYPE svg PUBLIC "-//W3C//DTD SVG 1.1//EN" "http://www.w3.org/Graphics/SVG/1.1/DTD/svg11.dtd"><svg width="100%" height="100%" viewBox="0 0 624 313" version="1.1" xmlns="http://www.w3.org/2000/svg" xmlns:xlink="http://www.w3.org/1999/xlink" xml:space="preserve" xmlns:serif="http://www.serif.com/" style="fill-rule:evenodd;clip-rule:evenodd;stroke-linejoin:round;stroke-miterlimit:2;"><rect id="commonscargobikes" x="0.119" y="0.218" width="623.622" height="311.811" style="fill:none;"/><g transform="matrix(1.61709,0,0,1.61709,-965.029,-811.419)"><g transform="matrix(49.9432,0,0,49.9432,655.326,607.619)"><path d="M0.328,0.013c0.183,-0 0.278,-0.12 0.278,-0.221l-0.177,-0c-0.005,0.045 -0.033,0.08 -0.102,0.08c-0.069,0 -0.117,-0.055 -0.117,-0.14c0,-0.086 0.048,-0.134 0.117,-0.134c0.066,0 0.093,0.037 0.101,0.071c0.001,0.004 0.001,0.007 0.001,0.011l0.177,0l-0,-0.004c-0,-0.1 -0.096,-0.218 -0.278,-0.218c-0.183,0 -0.299,0.11 -0.299,0.274c0,0.164 0.116,0.281 0.299,0.281Z" style="fill-rule:nonzero;"/></g><g transform="matrix(49.9432,0,0,49.9432,687.04,607.619)"><path d="M0.326,0.012c0.176,0 0.297,-0.114 0.297,-0.277c0,-0.164 -0.121,-0.277 -0.297,-0.277c-0.176,0 -0.297,0.113 -0.297,0.277c0,0.163 0.121,0.277 0.297,0.277Zm0,-0.138c-0.071,0 -0.116,-0.055 -0.116,-0.139c0,-0.085 0.045,-0.139 0.116,-0.139c0.071,0 0.116,0.054 0.116,0.139c0,0.084 -0.045,0.139 -0.116,0.139Z" style="fill-rule:nonzero;"/></g><g transform="matrix(49.9432,0,0,49.9432,719.603,607.619)"><path d="M0.056,-0l0.178,-0l-0,-0.268c-0,-0.07 0.026,-0.124 0.084,-0.124c0.064,-0 0.071,0.056 0.071,0.11l-0,0.282l0.177,-0l-0,-0.27c-0,-0.068 0.025,-0.122 0.083,-0.122c0.063,-0 0.071,0.049 0.071,0.109l-0,0.283l0.178,-0l0,-0.332c0,-0.113 -0.037,-0.21 -0.172,-0.21c-0.082,0 -0.142,0.04 -0.174,0.106c-0.021,-0.062 -0.067,-0.106 -0.157,-0.106c-0.071,0 -0.127,0.03 -0.161,0.082l-0,-0.071l-0.178,-0l-0,0.531Z" style="fill-rule:nonzero;"/></g><g transform="matrix(49.9432,0,0,49.9432,766.45,607.619)"><path d="M0.056,-0l0.178,-0l-0,-0.268c-0,-0.07 0.026,-0.124 0.084,-0.124c0.064,-0 0.071,0.056 0.071,0.11l-0,0.282l0.177,-0l-0,-0.27c-0,-0.068 0.025,-0.122 0.083,-0.122c0.063,-0 0.071,0.049 0.071,0.109l-0,0.283l0.178,-0l0,-0.332c0,-0.113 -0.037,-0.21 -0.172,-0.21c-0.082,0 -0.142,0.04 -0.174,0.106c-0.021,-0.062 -0.067,-0.106 -0.157,-0.106c-0.071,0 -0.127,0.03 -0.161,0.082l-0,-0.071l-0.178,-0l-0,0.531Z" style="fill-rule:nonzero;"/></g><g transform="matrix(49.9432,0,0,49.9432,813.296,607.619)"><path d="M0.326,0.012c0.176,0 0.297,-0.114 0.297,-0.277c0,-0.164 -0.121,-0.277 -0.297,-0.277c-0.176,0 -0.297,0.113 -0.297,0.277c0,0.163 0.121,0.277 0.297,0.277Zm0,-0.138c-0.071,0 -0.116,-0.055 -0.116,-0.139c0,-0.085 0.045,-0.139 0.116,-0.139c0.071,0 0.116,0.054 0.116,0.139c0,0.084 -0.045,0.139 -0.116,0.139Z" style="fill-rule:nonzero;"/></g><g transform="matrix(49.9432,0,0,49.9432,845.36,607.619)"><path d="M0.056,-0l0.178,-0l-0,-0.272c-0,-0.073 0.034,-0.12 0.102,-0.12c0.078,-0 0.091,0.055 0.091,0.115l0,0.277l0.178,-0l0,-0.329c0,-0.126 -0.054,-0.213 -0.187,-0.213c-0.077,0 -0.144,0.035 -0.184,0.093l-0,-0.082l-0.178,-0l-0,0.531Z" style="fill-rule:nonzero;"/></g><g transform="matrix(49.9432,0,0,49.9432,878.098,607.619)"><path d="M0.282,0.013c0.122,-0 0.255,-0.048 0.255,-0.176c-0,-0.121 -0.135,-0.151 -0.218,-0.164c-0.063,-0.01 -0.108,-0.021 -0.108,-0.047c-0,-0.029 0.043,-0.037 0.072,-0.037c0.034,-0 0.071,0.014 0.071,0.048l0,0.005l0.175,0l0,-0.006c0,-0.11 -0.117,-0.178 -0.245,-0.178c-0.134,0 -0.248,0.059 -0.248,0.171c0,0.11 0.122,0.148 0.216,0.163c0.08,0.013 0.112,0.021 0.112,0.05c0,0.028 -0.043,0.038 -0.077,0.038c-0.05,0 -0.081,-0.013 -0.081,-0.047l0,-0.006l-0.177,0l0,0.007c0,0.12 0.128,0.179 0.253,0.179Z" style="fill-rule:nonzero;"/></g><g transform="matrix(49.9432,0,0,49.9432,623.288,654.595)"><path d="M0.328,0.013c0.183,-0 0.278,-0.12 0.278,-0.221l-0.177,-0c-0.005,0.045 -0.033,0.08 -0.102,0.08c-0.069,0 -0.117,-0.055 -0.117,-0.14c0,-0.086 0.048,-0.134 0.117,-0.134c0.066,0 0.093,0.037 0.101,0.071c0.001,0.004 0.001,0.007 0.001,0.011l0.177,0l-0,-0.004c-0,-0.1 -0.096,-0.218 -0.278,-0.218c-0.183,0 -0.299,0.11 -0.299,0.274c0,0.164 0.116,0.281 0.299,0.281Z" style="fill-rule:nonzero;"/></g><g transform="matrix(49.9432,0,0,49.9432,655.001,654.595)"><path d="M0.234,0.012c0.073,-0 0.141,-0.025 0.182,-0.067c0.001,0.004 0.002,0.008 0.004,0.013c0.007,0.02 0.019,0.036 0.025,0.042l0.174,0c-0.006,-0.006 -0.019,-0.024 -0.027,-0.048c-0.006,-0.021 -0.006,-0.048 -0.006,-0.077l-0,-0.218c-0,-0.135 -0.129,-0.199 -0.272,-0.199c-0.153,0 -0.272,0.07 -0.272,0.201l0.176,0c0,-0.045 0.032,-0.067 0.094,-0.067c0.059,-0 0.095,0.022 0.095,0.054l-0,0.001c-0,0.02 -0.034,0.025 -0.146,0.036c-0.116,0.011 -0.227,0.057 -0.227,0.172c0,0.1 0.084,0.157 0.2,0.157Zm0.051,-0.13c-0.047,-0 -0.072,-0.015 -0.072,-0.044c0,-0.031 0.028,-0.042 0.085,-0.048c0.036,-0.003 0.076,-0.009 0.111,-0.018c-0.007,0.08 -0.067,0.11 -0.124,0.11Z" style="fill-rule:nonzero;"/></g><g transform="matrix(49.9432,0,0,49.9432,686.665,654.595)"><path d="M0.056,-0l0.178,-0l0,-0.238c0,-0.071 0.036,-0.148 0.141,-0.148c0.031,0 0.053,0.01 0.059,0.013l0.026,-0.157c-0.006,-0.003 -0.028,-0.012 -0.071,-0.012c-0.071,0 -0.123,0.032 -0.155,0.084l0,-0.073l-0.178,-0l-0,0.531Z" style="fill-rule:nonzero;"/></g><g transform="matrix(49.9432,0,0,49.9432,709.939,654.595)"><path d="M0.431,-0.073l-0.187,-0.02c-0.049,-0.005 -0.064,-0.018 -0.064,-0.035c-0,-0.007 0.004,-0.013 0.009,-0.019c0.034,0.011 0.074,0.016 0.119,0.016c0.157,0 0.225,-0.082 0.261,-0.198l0.063,-0.202l-0.156,-0l-0.005,0.059c-0.034,-0.042 -0.103,-0.07 -0.178,-0.07c-0.146,0 -0.257,0.083 -0.257,0.209c0,0.06 0.024,0.109 0.067,0.143c-0.03,0.019 -0.066,0.055 -0.066,0.1c-0,0.063 0.057,0.098 0.133,0.106l0.201,0.023c0.033,0.003 0.064,0.01 0.064,0.035c0,0.028 -0.051,0.046 -0.128,0.046c-0.075,-0 -0.132,-0.016 -0.132,-0.046c0,-0.012 0.004,-0.021 0.007,-0.024l-0.161,-0.023c-0.009,0.014 -0.015,0.034 -0.015,0.057c0,0.089 0.11,0.147 0.297,0.147c0.187,-0 0.298,-0.059 0.298,-0.168c-0,-0.093 -0.068,-0.125 -0.17,-0.136Zm-0.124,-0.184c-0.056,-0 -0.097,-0.027 -0.097,-0.077c0,-0.049 0.042,-0.078 0.097,-0.078c0.055,0 0.096,0.028 0.096,0.077c-0,0.05 -0.04,0.078 -0.096,0.078Z" style="fill-rule:nonzero;"/></g><g transform="matrix(49.9432,0,0,49.9432,740.954,654.595)"><path d="M0.326,0.012c0.176,0 0.297,-0.114 0.297,-0.277c0,-0.164 -0.121,-0.277 -0.297,-0.277c-0.176,0 -0.297,0.113 -0.297,0.277c0,0.163 0.121,0.277 0.297,0.277Zm0,-0.138c-0.071,0 -0.116,-0.055 -0.116,-0.139c0,-0.085 0.045,-0.139 0.116,-0.139c0.071,0 0.116,0.054 0.116,0.139c0,0.084 -0.045,0.139 -0.116,0.139Z" style="fill-rule:nonzero;"/></g><g transform="matrix(49.9432,0,0,49.9432,772.518,654.595)"><path d="M0.056,-0l0.178,-0l0,-0.061c0.042,0.045 0.098,0.073 0.161,0.073c0.133,0 0.248,-0.096 0.248,-0.281c0,-0.175 -0.12,-0.272 -0.248,-0.272c-0.063,-0 -0.119,0.025 -0.161,0.069l0,-0.31l-0.178,0l-0,0.782Zm0.29,-0.395c0.06,-0 0.113,0.037 0.113,0.126c0,0.09 -0.054,0.129 -0.113,0.129c-0.056,0 -0.112,-0.041 -0.112,-0.112l0,-0.034c0,-0.07 0.057,-0.109 0.112,-0.109Z" style="fill-rule:nonzero;"/></g><g transform="matrix(49.9432,0,0,49.9432,805.605,654.595)"><path d="M0.134,-0.606c0.053,0 0.1,-0.028 0.1,-0.08c0,-0.052 -0.047,-0.081 -0.1,-0.081c-0.054,0 -0.101,0.029 -0.101,0.081c0,0.051 0.047,0.08 0.101,0.08Zm-0.088,0.606l0.176,-0l0,-0.531l-0.176,-0l-0,0.531Z" style="fill-rule:nonzero;"/></g><g transform="matrix(49.9432,0,0,49.9432,818.44,654.595)"><path d="M0.056,-0l0.169,-0l-0,-0.199l0.039,-0.036l0.137,0.235l0.186,-0l-0.21,-0.337l0.217,-0.194l-0.217,-0l-0.152,0.139l-0,-0.39l-0.169,0l-0,0.782Z" style="fill-rule:nonzero;"/></g><g transform="matrix(49.9432,0,0,49.9432,846.009,654.595)"><path d="M0.616,-0.168l-0.176,-0c-0.003,0.022 -0.031,0.049 -0.105,0.049c-0.071,0 -0.111,-0.034 -0.124,-0.096l0.411,0c0.001,-0.008 0.002,-0.024 0.002,-0.042c-0,-0.173 -0.114,-0.285 -0.297,-0.285c-0.177,0 -0.298,0.111 -0.298,0.277c0,0.163 0.116,0.278 0.298,0.278c0.177,-0 0.28,-0.089 0.289,-0.181Zm-0.286,-0.245c0.074,0 0.108,0.044 0.113,0.087l-0.23,-0c0.015,-0.056 0.055,-0.087 0.117,-0.087Z" style="fill-rule:nonzero;"/></g><g transform="matrix(49.9432,0,0,49.9432,878.098,654.595)"><path d="M0.282,0.013c0.122,-0 0.255,-0.048 0.255,-0.176c-0,-0.121 -0.135,-0.151 -0.218,-0.164c-0.063,-0.01 -0.108,-0.021 -0.108,-0.047c-0,-0.029 0.043,-0.037 0.072,-0.037c0.034,-0 0.071,0.014 0.071,0.048l0,0.005l0.175,0l0,-0.006c0,-0.11 -0.117,-0.178 -0.245,-0.178c-0.134,0 -0.248,0.059 -0.248,0.171c0,0.11 0.122,0.148 0.216,0.163c0.08,0.013 0.112,0.021 0.112,0.05c0,0.028 -0.043,0.038 -0.077,0.038c-0.05,0 -0.081,-0.013 -0.081,-0.047l0,-0.006l-0.177,0l0,0.007c0,0.12 0.128,0.179 0.253,0.179Z" style="fill-rule:nonzero;"/></g></g><g><path d="M458.257,75.86c0,-12.401 -10.053,-22.455 -22.454,-22.455c-12.4,0 -22.454,10.054 -22.454,22.455c0,12.401 10.054,22.454 22.454,22.454c12.401,0 22.454,-10.053 22.454,-22.454" style="fill:#e2341d;"/><path d="M493.563,61.981c4.987,-9.022 14.96,-9.022 19.947,-4.511c4.987,4.511 4.987,13.533 -0,22.556c-3.491,6.767 -12.467,13.534 -19.947,18.045c-7.48,-4.511 -16.456,-11.278 -19.946,-18.045c-4.987,-9.023 -4.987,-18.045 -0,-22.556c4.986,-4.511 14.959,-4.511 19.946,4.511Z" style="fill:#fdc50f;"/><path d="M577.46,52.428l-6.27,12.3c-0.249,0.489 -0.006,1.084 0.513,1.261l8.468,2.868c0.686,0.233 0.83,1.14 0.25,1.574l-7.17,5.352c-0.44,0.327 -0.486,0.969 -0.099,1.357l9.758,9.757c0.616,0.616 0.083,1.66 -0.777,1.524l-13.634,-2.154c-0.541,-0.086 -1.033,0.328 -1.04,0.877l-0.118,8.945c-0.009,0.724 -0.827,1.14 -1.419,0.722l-7.301,-5.162c-0.446,-0.317 -1.072,-0.163 -1.321,0.326l-6.27,12.301c-0.396,0.776 -1.554,0.592 -1.69,-0.269l-2.154,-13.63c-0.086,-0.541 -0.632,-0.882 -1.156,-0.719l-8.541,2.658c-0.692,0.215 -1.342,-0.435 -1.127,-1.127l2.658,-8.54c0.163,-0.524 -0.177,-1.071 -0.718,-1.156l-13.631,-2.155c-0.861,-0.135 -1.045,-1.294 -0.269,-1.689l12.302,-6.271c0.488,-0.249 0.642,-0.874 0.325,-1.321l-5.161,-7.301c-0.419,-0.592 -0.003,-1.41 0.722,-1.419l8.946,-0.117c0.547,-0.007 0.961,-0.5 0.876,-1.041l-2.155,-13.633c-0.136,-0.861 0.909,-1.393 1.524,-0.776l9.758,9.756c0.388,0.388 1.029,0.341 1.357,-0.097l5.351,-7.171c0.435,-0.581 1.341,-0.437 1.574,0.25l2.868,8.467c0.177,0.519 0.773,0.762 1.262,0.513l12.299,-6.269c0.777,-0.397 1.606,0.433 1.21,1.209" style="fill:#61b22b;"/></g></svg>