<?xml version="1.0" encoding="UTF-8" standalone="no"?><!DOCTYPE svg PUBLIC "-//W3C//DTD SVG 1.1//EN" "http://www.w3.org/Graphics/SVG/1.1/DTD/svg11.dtd"><svg width="100%" height="100%" viewBox="0 0 3462 1300" version="1.1" xmlns="http://www.w3.org/2000/svg" xmlns:xlink="http://www.w3.org/1999/xlink" xml:space="preserve" xmlns:serif="http://www.serif.com/" style="fill-rule:evenodd;clip-rule:evenodd;stroke-linejoin:round;stroke-miterlimit:2;"><rect id="forumfreieslastenrad" x="0.765" y="0.684" width="3460.33" height="1299.21" style="fill:none;"/><g transform="matrix(6.73787,0,0,6.73787,-3293.61,-3655.79)"><text x="584.756px" y="654.595px" style="font-family:'Epilogue-ExtraBold', 'Epilogue';font-weight:800;font-size:49.943px;">f<tspan x="606.507px " y="654.595px ">o</tspan>rum fr<tspan x="799.587px " y="654.595px ">e</tspan>ies</text><g transform="matrix(49.9432,0,0,49.9432,906.365,701.572)"></g><text x="655.801px" y="701.572px" style="font-family:'Epilogue-ExtraBold', 'Epilogue';font-weight:800;font-size:49.943px;">l<tspan x="670.084px 701.748px 729.417px 752.491px " y="701.572px 701.572px 701.572px 701.572px ">aste</tspan>nr<tspan x="841.239px " y="701.572px ">a</tspan>d</text></g><g><path d="M2671.25,345.644c0,-51.671 -41.889,-93.56 -93.561,-93.56c-51.667,-0 -93.556,41.889 -93.556,93.56c-0,51.672 41.889,93.561 93.556,93.561c51.672,-0 93.561,-41.889 93.561,-93.561" style="fill:#e2341d;"/><path d="M2818.35,287.816c20.778,-37.594 62.333,-37.594 83.111,-18.797c20.778,18.797 20.778,56.39 -0,93.984c-14.545,28.195 -51.944,56.39 -83.111,75.187c-31.166,-18.797 -68.566,-46.992 -83.111,-75.187c-20.777,-37.594 -20.777,-75.187 0,-93.984c20.778,-18.797 62.333,-18.797 83.111,18.797Z" style="fill:#fdc50f;"/><path d="M3167.93,248.012l-26.125,51.25c-1.038,2.038 -0.028,4.517 2.135,5.253l35.286,11.952c2.857,0.968 3.457,4.751 1.038,6.556l-29.875,22.3c-1.833,1.363 -2.024,4.039 -0.409,5.653l40.655,40.655c2.568,2.569 0.349,6.919 -3.234,6.351l-56.809,-8.975c-2.257,-0.358 -4.304,1.368 -4.336,3.653l-0.489,37.272c-0.037,3.015 -3.448,4.751 -5.914,3.011l-30.419,-21.51c-1.861,-1.321 -4.466,-0.679 -5.504,1.359l-26.125,51.254c-1.651,3.233 -6.476,2.466 -7.044,-1.122l-8.975,-56.79c-0.358,-2.257 -2.633,-3.676 -4.815,-2.997l-35.589,11.074c-2.885,0.898 -5.592,-1.81 -4.694,-4.695l11.073,-35.583c0.679,-2.183 -0.735,-4.462 -2.992,-4.816l-56.795,-8.98c-3.587,-0.563 -4.355,-5.392 -1.121,-7.039l51.258,-26.13c2.034,-1.037 2.676,-3.638 1.354,-5.504l-21.504,-30.419c-1.745,-2.466 -0.01,-5.876 3.01,-5.914l37.272,-0.488c2.28,-0.028 4.006,-2.08 3.653,-4.336l-8.98,-56.805c-0.567,-3.587 3.787,-5.802 6.351,-3.234l40.655,40.651c1.619,1.619 4.29,1.424 5.658,-0.405l22.296,-29.879c1.809,-2.42 5.587,-1.82 6.555,1.042l11.953,35.281c0.735,2.164 3.22,3.173 5.257,2.136l51.245,-26.12c3.238,-1.652 6.691,1.805 5.044,5.038" style="fill:#61b22b;"/></g></svg>