<?xml version="1.0" encoding="UTF-8" standalone="no"?><!DOCTYPE svg PUBLIC "-//W3C//DTD SVG 1.1//EN" "http://www.w3.org/Graphics/SVG/1.1/DTD/svg11.dtd"><svg width="100%" height="100%" viewBox="0 0 3462 1300" version="1.1" xmlns="http://www.w3.org/2000/svg" xmlns:xlink="http://www.w3.org/1999/xlink" xml:space="preserve" xmlns:serif="http://www.serif.com/" style="fill-rule:evenodd;clip-rule:evenodd;stroke-linejoin:round;stroke-miterlimit:2;"><rect id="forumfreieslastenrad----negativ" serif:id="forumfreieslastenrad  - negativ" x="0.83" y="0.594" width="3460.33" height="1299.21" style="fill:none;"/><g transform="matrix(6.73787,0,0,6.73787,-3293.54,-3655.88)"><g transform="matrix(49.9432,0,0,49.9432,584.756,654.595)"><path d="M0.119,-0l0.178,-0l0,-0.396l0.139,-0l-0,-0.135l-0.139,-0l0,-0.022c0,-0.059 0.022,-0.097 0.095,-0.097c0.024,0 0.047,0.005 0.055,0.008l0,-0.136c-0.008,-0.004 -0.028,-0.011 -0.075,-0.011c-0.099,0 -0.253,0.037 -0.253,0.232l0,0.026l-0.108,-0l-0,0.135l0.108,-0l0,0.396Z" style="fill:#fff;fill-rule:nonzero;"/></g><g transform="matrix(49.9432,0,0,49.9432,606.507,654.595)"><path d="M0.326,0.012c0.176,0 0.297,-0.114 0.297,-0.277c0,-0.164 -0.121,-0.277 -0.297,-0.277c-0.176,0 -0.297,0.113 -0.297,0.277c0,0.163 0.121,0.277 0.297,0.277Zm0,-0.138c-0.071,0 -0.116,-0.055 -0.116,-0.139c0,-0.085 0.045,-0.139 0.116,-0.139c0.071,0 0.116,0.054 0.116,0.139c0,0.084 -0.045,0.139 -0.116,0.139Z" style="fill:#fff;fill-rule:nonzero;"/></g><g transform="matrix(49.9432,0,0,49.9432,639.07,654.595)"><path d="M0.056,-0l0.178,-0l0,-0.238c0,-0.071 0.036,-0.148 0.141,-0.148c0.031,0 0.053,0.01 0.059,0.013l0.026,-0.157c-0.006,-0.003 -0.028,-0.012 -0.071,-0.012c-0.071,0 -0.123,0.032 -0.155,0.084l0,-0.073l-0.178,-0l-0,0.531Z" style="fill:#fff;fill-rule:nonzero;"/></g><g transform="matrix(49.9432,0,0,49.9432,662.992,654.595)"><path d="M0.242,0.011c0.077,-0 0.138,-0.033 0.175,-0.088l-0,0.077l0.178,-0l-0,-0.531l-0.178,-0l-0,0.265c-0,0.064 -0.036,0.128 -0.102,0.128c-0.068,-0 -0.081,-0.053 -0.081,-0.114l-0,-0.279l-0.178,-0l-0,0.326c-0,0.109 0.036,0.216 0.186,0.216Z" style="fill:#fff;fill-rule:nonzero;"/></g><g transform="matrix(49.9432,0,0,49.9432,695.206,654.595)"><path d="M0.056,-0l0.178,-0l-0,-0.268c-0,-0.07 0.026,-0.124 0.084,-0.124c0.064,-0 0.071,0.056 0.071,0.11l-0,0.282l0.177,-0l-0,-0.27c-0,-0.068 0.025,-0.122 0.083,-0.122c0.063,-0 0.071,0.049 0.071,0.109l-0,0.283l0.178,-0l0,-0.332c0,-0.113 -0.037,-0.21 -0.172,-0.21c-0.082,0 -0.142,0.04 -0.174,0.106c-0.021,-0.062 -0.067,-0.106 -0.157,-0.106c-0.071,0 -0.127,0.03 -0.161,0.082l-0,-0.071l-0.178,-0l-0,0.531Z" style="fill:#fff;fill-rule:nonzero;"/></g><g transform="matrix(49.9432,0,0,49.9432,755.038,654.595)"><path d="M0.119,-0l0.178,-0l0,-0.396l0.139,-0l-0,-0.135l-0.139,-0l0,-0.022c0,-0.059 0.022,-0.097 0.095,-0.097c0.024,0 0.047,0.005 0.055,0.008l0,-0.136c-0.008,-0.004 -0.028,-0.011 -0.075,-0.011c-0.099,0 -0.253,0.037 -0.253,0.232l0,0.026l-0.108,-0l-0,0.135l0.108,-0l0,0.396Z" style="fill:#fff;fill-rule:nonzero;"/></g><g transform="matrix(49.9432,0,0,49.9432,777.662,654.595)"><path d="M0.056,-0l0.178,-0l0,-0.238c0,-0.071 0.036,-0.148 0.141,-0.148c0.031,0 0.053,0.01 0.059,0.013l0.026,-0.157c-0.006,-0.003 -0.028,-0.012 -0.071,-0.012c-0.071,0 -0.123,0.032 -0.155,0.084l0,-0.073l-0.178,-0l-0,0.531Z" style="fill:#fff;fill-rule:nonzero;"/></g><g transform="matrix(49.9432,0,0,49.9432,799.587,654.595)"><path d="M0.616,-0.168l-0.176,-0c-0.003,0.022 -0.031,0.049 -0.105,0.049c-0.071,0 -0.111,-0.034 -0.124,-0.096l0.411,0c0.001,-0.008 0.002,-0.024 0.002,-0.042c-0,-0.173 -0.114,-0.285 -0.297,-0.285c-0.177,0 -0.298,0.111 -0.298,0.277c0,0.163 0.116,0.278 0.298,0.278c0.177,-0 0.28,-0.089 0.289,-0.181Zm-0.286,-0.245c0.074,0 0.108,0.044 0.113,0.087l-0.23,-0c0.015,-0.056 0.055,-0.087 0.117,-0.087Z" style="fill:#fff;fill-rule:nonzero;"/></g><g transform="matrix(49.9432,0,0,49.9432,832.175,654.595)"><path d="M0.134,-0.606c0.053,0 0.1,-0.028 0.1,-0.08c0,-0.052 -0.047,-0.081 -0.1,-0.081c-0.054,0 -0.101,0.029 -0.101,0.081c0,0.051 0.047,0.08 0.101,0.08Zm-0.088,0.606l0.176,-0l0,-0.531l-0.176,-0l-0,0.531Z" style="fill:#fff;fill-rule:nonzero;"/></g><g transform="matrix(49.9432,0,0,49.9432,845.51,654.595)"><path d="M0.616,-0.168l-0.176,-0c-0.003,0.022 -0.031,0.049 -0.105,0.049c-0.071,0 -0.111,-0.034 -0.124,-0.096l0.411,0c0.001,-0.008 0.002,-0.024 0.002,-0.042c-0,-0.173 -0.114,-0.285 -0.297,-0.285c-0.177,0 -0.298,0.111 -0.298,0.277c0,0.163 0.116,0.278 0.298,0.278c0.177,-0 0.28,-0.089 0.289,-0.181Zm-0.286,-0.245c0.074,0 0.108,0.044 0.113,0.087l-0.23,-0c0.015,-0.056 0.055,-0.087 0.117,-0.087Z" style="fill:#fff;fill-rule:nonzero;"/></g><g transform="matrix(49.9432,0,0,49.9432,878.098,654.595)"><path d="M0.282,0.013c0.122,-0 0.255,-0.048 0.255,-0.176c-0,-0.121 -0.135,-0.151 -0.218,-0.164c-0.063,-0.01 -0.108,-0.021 -0.108,-0.047c-0,-0.029 0.043,-0.037 0.072,-0.037c0.034,-0 0.071,0.014 0.071,0.048l0,0.005l0.175,0l0,-0.006c0,-0.11 -0.117,-0.178 -0.245,-0.178c-0.134,0 -0.248,0.059 -0.248,0.171c0,0.11 0.122,0.148 0.216,0.163c0.08,0.013 0.112,0.021 0.112,0.05c0,0.028 -0.043,0.038 -0.077,0.038c-0.05,0 -0.081,-0.013 -0.081,-0.047l0,-0.006l-0.177,0l0,0.007c0,0.12 0.128,0.179 0.253,0.179Z" style="fill:#fff;fill-rule:nonzero;"/></g><g transform="matrix(49.9432,0,0,49.9432,655.801,701.572)"><rect x="0.063" y="-0.782" width="0.176" height="0.782" style="fill:#fff;fill-rule:nonzero;"/></g><g transform="matrix(49.9432,0,0,49.9432,670.084,701.572)"><path d="M0.234,0.012c0.073,-0 0.141,-0.025 0.182,-0.067c0.001,0.004 0.002,0.008 0.004,0.013c0.007,0.02 0.019,0.036 0.025,0.042l0.174,0c-0.006,-0.006 -0.019,-0.024 -0.027,-0.048c-0.006,-0.021 -0.006,-0.048 -0.006,-0.077l-0,-0.218c-0,-0.135 -0.129,-0.199 -0.272,-0.199c-0.153,0 -0.272,0.07 -0.272,0.201l0.176,0c0,-0.045 0.032,-0.067 0.094,-0.067c0.059,-0 0.095,0.022 0.095,0.054l-0,0.001c-0,0.02 -0.034,0.025 -0.146,0.036c-0.116,0.011 -0.227,0.057 -0.227,0.172c0,0.1 0.084,0.157 0.2,0.157Zm0.051,-0.13c-0.047,-0 -0.072,-0.015 -0.072,-0.044c0,-0.031 0.028,-0.042 0.085,-0.048c0.036,-0.003 0.076,-0.009 0.111,-0.018c-0.007,0.08 -0.067,0.11 -0.124,0.11Z" style="fill:#fff;fill-rule:nonzero;"/></g><g transform="matrix(49.9432,0,0,49.9432,701.748,701.572)"><path d="M0.282,0.013c0.122,-0 0.255,-0.048 0.255,-0.176c-0,-0.121 -0.135,-0.151 -0.218,-0.164c-0.063,-0.01 -0.108,-0.021 -0.108,-0.047c-0,-0.029 0.043,-0.037 0.072,-0.037c0.034,-0 0.071,0.014 0.071,0.048l0,0.005l0.175,0l0,-0.006c0,-0.11 -0.117,-0.178 -0.245,-0.178c-0.134,0 -0.248,0.059 -0.248,0.171c0,0.11 0.122,0.148 0.216,0.163c0.08,0.013 0.112,0.021 0.112,0.05c0,0.028 -0.043,0.038 -0.077,0.038c-0.05,0 -0.081,-0.013 -0.081,-0.047l0,-0.006l-0.177,0l0,0.007c0,0.12 0.128,0.179 0.253,0.179Z" style="fill:#fff;fill-rule:nonzero;"/></g><g transform="matrix(49.9432,0,0,49.9432,729.417,701.572)"><path d="M0.334,0.012c0.036,0 0.064,-0.007 0.079,-0.013l-0,-0.131c-0.01,0.004 -0.033,0.01 -0.056,0.01c-0.042,-0 -0.047,-0.031 -0.047,-0.074l0,-0.2l0.15,-0l0,-0.135l-0.15,-0l0,-0.175l-0.179,0l0,0.049c0,0.12 -0.009,0.126 -0.102,0.126l-0.018,-0l-0,0.135l0.12,-0l0,0.248c0,0.142 0.116,0.16 0.203,0.16Z" style="fill:#fff;fill-rule:nonzero;"/></g><g transform="matrix(49.9432,0,0,49.9432,752.491,701.572)"><path d="M0.616,-0.168l-0.176,-0c-0.003,0.022 -0.031,0.049 -0.105,0.049c-0.071,0 -0.111,-0.034 -0.124,-0.096l0.411,0c0.001,-0.008 0.002,-0.024 0.002,-0.042c-0,-0.173 -0.114,-0.285 -0.297,-0.285c-0.177,0 -0.298,0.111 -0.298,0.277c0,0.163 0.116,0.278 0.298,0.278c0.177,-0 0.28,-0.089 0.289,-0.181Zm-0.286,-0.245c0.074,0 0.108,0.044 0.113,0.087l-0.23,-0c0.015,-0.056 0.055,-0.087 0.117,-0.087Z" style="fill:#fff;fill-rule:nonzero;"/></g><g transform="matrix(49.9432,0,0,49.9432,785.078,701.572)"><path d="M0.056,-0l0.178,-0l-0,-0.272c-0,-0.073 0.034,-0.12 0.102,-0.12c0.078,-0 0.091,0.055 0.091,0.115l0,0.277l0.178,-0l0,-0.329c0,-0.126 -0.054,-0.213 -0.187,-0.213c-0.077,0 -0.144,0.035 -0.184,0.093l-0,-0.082l-0.178,-0l-0,0.531Z" style="fill:#fff;fill-rule:nonzero;"/></g><g transform="matrix(49.9432,0,0,49.9432,817.816,701.572)"><path d="M0.056,-0l0.178,-0l0,-0.238c0,-0.071 0.036,-0.148 0.141,-0.148c0.031,0 0.053,0.01 0.059,0.013l0.026,-0.157c-0.006,-0.003 -0.028,-0.012 -0.071,-0.012c-0.071,0 -0.123,0.032 -0.155,0.084l0,-0.073l-0.178,-0l-0,0.531Z" style="fill:#fff;fill-rule:nonzero;"/></g><g transform="matrix(49.9432,0,0,49.9432,841.239,701.572)"><path d="M0.234,0.012c0.073,-0 0.141,-0.025 0.182,-0.067c0.001,0.004 0.002,0.008 0.004,0.013c0.007,0.02 0.019,0.036 0.025,0.042l0.174,0c-0.006,-0.006 -0.019,-0.024 -0.027,-0.048c-0.006,-0.021 -0.006,-0.048 -0.006,-0.077l-0,-0.218c-0,-0.135 -0.129,-0.199 -0.272,-0.199c-0.153,0 -0.272,0.07 -0.272,0.201l0.176,0c0,-0.045 0.032,-0.067 0.094,-0.067c0.059,-0 0.095,0.022 0.095,0.054l-0,0.001c-0,0.02 -0.034,0.025 -0.146,0.036c-0.116,0.011 -0.227,0.057 -0.227,0.172c0,0.1 0.084,0.157 0.2,0.157Zm0.051,-0.13c-0.047,-0 -0.072,-0.015 -0.072,-0.044c0,-0.031 0.028,-0.042 0.085,-0.048c0.036,-0.003 0.076,-0.009 0.111,-0.018c-0.007,0.08 -0.067,0.11 -0.124,0.11Z" style="fill:#fff;fill-rule:nonzero;"/></g><g transform="matrix(49.9432,0,0,49.9432,872.903,701.572)"><path d="M0.278,0.013c0.063,-0 0.119,-0.029 0.161,-0.074l-0,0.061l0.178,-0l0,-0.782l-0.178,0l-0,0.31c-0.042,-0.044 -0.098,-0.07 -0.161,-0.07c-0.128,0 -0.249,0.098 -0.249,0.273c0,0.185 0.116,0.282 0.249,0.282Zm0.049,-0.153c-0.059,0 -0.114,-0.039 -0.114,-0.129c0,-0.089 0.055,-0.126 0.114,-0.126c0.055,-0 0.112,0.039 0.112,0.109l-0,0.034c-0,0.071 -0.056,0.112 -0.112,0.112Z" style="fill:#fff;fill-rule:nonzero;"/></g></g><g><path d="M2671.31,345.554c-0,-51.671 -41.889,-93.561 -93.561,-93.561c-51.668,0 -93.557,41.89 -93.557,93.561c0,51.672 41.889,93.561 93.557,93.561c51.672,-0 93.561,-41.889 93.561,-93.561" style="fill:#e2341d;"/><path d="M2818.42,287.726c20.777,-37.594 62.333,-37.594 83.11,-18.797c20.779,18.797 20.779,56.39 0,93.984c-14.544,28.195 -51.944,56.39 -83.11,75.187c-31.167,-18.797 -68.567,-46.992 -83.111,-75.187c-20.778,-37.594 -20.778,-75.187 -0,-93.984c20.778,-18.797 62.333,-18.797 83.111,18.797Z" style="fill:#fdc50f;"/><path d="M3167.99,247.922l-26.125,51.25c-1.037,2.037 -0.028,4.517 2.136,5.252l35.286,11.953c2.857,0.968 3.457,4.751 1.037,6.556l-29.874,22.3c-1.834,1.363 -2.024,4.039 -0.41,5.653l40.655,40.655c2.569,2.569 0.349,6.919 -3.233,6.351l-56.81,-8.975c-2.256,-0.358 -4.303,1.368 -4.336,3.652l-0.488,37.273c-0.038,3.015 -3.448,4.751 -5.914,3.01l-30.419,-21.509c-1.861,-1.321 -4.467,-0.679 -5.504,1.359l-26.125,51.254c-1.652,3.233 -6.477,2.466 -7.044,-1.122l-8.975,-56.79c-0.359,-2.257 -2.634,-3.676 -4.816,-2.997l-35.588,11.074c-2.885,0.898 -5.593,-1.81 -4.695,-4.695l11.074,-35.584c0.679,-2.182 -0.736,-4.461 -2.992,-4.815l-56.795,-8.98c-3.588,-0.563 -4.355,-5.392 -1.122,-7.039l51.259,-26.13c2.033,-1.037 2.675,-3.638 1.354,-5.504l-21.505,-30.419c-1.745,-2.466 -0.009,-5.876 3.01,-5.914l37.273,-0.488c2.28,-0.028 4.006,-2.08 3.652,-4.337l-8.979,-56.804c-0.568,-3.587 3.787,-5.802 6.351,-3.234l40.655,40.651c1.619,1.619 4.29,1.423 5.657,-0.405l22.296,-29.88c1.81,-2.419 5.588,-1.819 6.556,1.043l11.952,35.281c0.736,2.163 3.22,3.173 5.258,2.136l51.245,-26.121c3.238,-1.651 6.69,1.806 5.043,5.039" style="fill:#61b22b;"/></g></svg>