<?xml version="1.0" encoding="UTF-8" standalone="no"?><!DOCTYPE svg PUBLIC "-//W3C//DTD SVG 1.1//EN" "http://www.w3.org/Graphics/SVG/1.1/DTD/svg11.dtd"><svg width="100%" height="100%" viewBox="0 0 4398 770" version="1.1" xmlns="http://www.w3.org/2000/svg" xmlns:xlink="http://www.w3.org/1999/xlink" xml:space="preserve" xmlns:serif="http://www.serif.com/" style="fill-rule:evenodd;clip-rule:evenodd;stroke-linejoin:round;stroke-miterlimit:2;"><rect id="freieslastenrad---quer---negativ" serif:id="freieslastenrad - quer - negativ" x="0.558" y="0.187" width="4397.21" height="769.481" style="fill:none;"/><g transform="matrix(336.511,0,0,336.511,4089.56,487.311)"></g><text x="1287.43px" y="487.311px" style="font-family:'Epilogue-ExtraBold', 'Epilogue';font-weight:800;font-size:336.511px;fill:#fff;">fr<tspan x="1587.6px " y="487.311px ">e</tspan>ies las<tspan x="2893.93px 3056.13px " y="487.311px 487.311px ">te</tspan>nr<tspan x="3650.75px " y="487.311px ">a</tspan>d</text><g><path d="M428.413,361.079c-0,-74.158 -60.119,-134.277 -134.277,-134.277c-74.153,0 -134.271,60.119 -134.271,134.277c-0,74.159 60.118,134.277 134.271,134.277c74.158,0 134.277,-60.118 134.277,-134.277" style="fill:#e2341d;"/><path d="M639.539,278.085c29.82,-53.954 89.459,-53.954 119.279,-26.977c29.821,26.977 29.821,80.93 0,134.884c-20.874,40.465 -74.549,80.931 -119.279,107.907c-44.73,-26.976 -98.406,-67.442 -119.28,-107.907c-29.819,-53.954 -29.819,-107.907 0,-134.884c29.82,-26.977 89.46,-26.977 119.28,26.977Z" style="fill:#fdc50f;"/><path d="M1141.24,220.959l-37.494,73.553c-1.489,2.924 -0.04,6.484 3.065,7.539l50.642,17.154c4.1,1.389 4.961,6.818 1.489,9.409l-42.876,32.005c-2.631,1.956 -2.905,5.796 -0.588,8.113l58.348,58.347c3.686,3.686 0.501,9.93 -4.641,9.115l-81.532,-12.881c-3.238,-0.514 -6.176,1.964 -6.223,5.242l-0.701,53.493c-0.054,4.327 -4.948,6.818 -8.487,4.321l-43.658,-30.87c-2.671,-1.897 -6.41,-0.975 -7.899,1.95l-37.494,73.559c-2.37,4.64 -9.295,3.539 -10.11,-1.61l-12.88,-81.505c-0.515,-3.238 -3.78,-5.275 -6.912,-4.3l-51.076,15.892c-4.14,1.289 -8.026,-2.597 -6.737,-6.737l15.892,-51.07c0.975,-3.131 -1.055,-6.403 -4.293,-6.911l-81.512,-12.887c-5.149,-0.808 -6.25,-7.739 -1.61,-10.103l73.566,-37.501c2.918,-1.489 3.84,-5.222 1.943,-7.899l-30.863,-43.658c-2.504,-3.539 -0.013,-8.433 4.32,-8.487l53.494,-0.701c3.271,-0.04 5.749,-2.985 5.241,-6.223l-12.887,-81.525c-0.815,-5.149 5.435,-8.327 9.115,-4.641l58.347,58.341c2.324,2.323 6.157,2.043 8.12,-0.581l31.998,-42.883c2.598,-3.472 8.02,-2.611 9.409,1.496l17.154,50.635c1.055,3.105 4.621,4.554 7.546,3.065l73.546,-37.487c4.647,-2.371 9.602,2.591 7.238,7.231" style="fill:#61b22b;"/></g></svg>