<?xml version="1.0" encoding="UTF-8" standalone="no"?><!DOCTYPE svg PUBLIC "-//W3C//DTD SVG 1.1//EN" "http://www.w3.org/Graphics/SVG/1.1/DTD/svg11.dtd"><svg width="100%" height="100%" viewBox="0 0 4398 770" version="1.1" xmlns="http://www.w3.org/2000/svg" xmlns:xlink="http://www.w3.org/1999/xlink" xml:space="preserve" xmlns:serif="http://www.serif.com/" style="fill-rule:evenodd;clip-rule:evenodd;stroke-linejoin:round;stroke-miterlimit:2;"><rect id="freieslastenrad---quer---negativ" serif:id="freieslastenrad - quer - negativ" x="0.435" y="0.096" width="4397.21" height="769.481" style="fill:none;"/><path d="M1327.35,487.221l59.899,-0l-0,-133.259l46.606,0l0,-45.429l-46.606,0l-0,-7.235c-0,-19.854 7.403,-32.641 31.968,-32.641c7.908,-0 15.816,1.682 18.508,2.524l0,-45.766c-2.692,-1.177 -9.422,-3.533 -25.406,-3.533c-33.147,-0 -84.969,12.451 -84.969,77.902l-0,8.749l-36.512,0l0,45.429l36.512,0l-0,133.259Z" style="fill:#fff;fill-rule:nonzero;"/><path d="M1458.42,487.221l60.067,-0l-0,-79.922c-0,-24.06 11.946,-49.803 47.448,-49.803c10.432,-0 17.667,3.197 19.686,4.374l8.917,-53c-2.019,-1.01 -9.59,-3.87 -24.06,-3.87c-23.724,0 -41.223,10.6 -51.991,28.099l-0,-24.566l-60.067,0l-0,178.688Z" style="fill:#fff;fill-rule:nonzero;"/><path d="M1794.77,430.687l-59.226,-0c-1.009,7.571 -10.6,16.657 -35.502,16.657c-23.724,0 -37.184,-11.609 -41.727,-32.305l138.306,0c0.336,-2.692 0.673,-8.076 0.673,-14.133c-0,-58.217 -38.194,-95.906 -99.776,-95.906c-59.73,0 -100.28,37.353 -100.28,93.214c0,54.851 39.036,93.213 100.28,93.213c59.563,0 94.055,-29.613 97.252,-60.74Zm-96.41,-82.277c25.07,-0 36.511,14.806 38.025,29.108l-77.397,0c5.216,-18.676 18.676,-29.108 39.372,-29.108Z" style="fill:#fff;fill-rule:nonzero;"/><path d="M1851.97,283.463c18.003,0 33.819,-9.59 33.819,-27.089c0,-17.498 -15.816,-27.089 -33.819,-27.089c-18.172,0 -33.819,9.591 -33.819,27.089c-0,17.331 15.647,27.089 33.819,27.089Zm-29.613,203.758l59.394,-0l0,-178.688l-59.394,0l-0,178.688Z" style="fill:#fff;fill-rule:nonzero;"/><path d="M2104.19,430.687l-59.226,-0c-1.01,7.571 -10.6,16.657 -35.502,16.657c-23.724,0 -37.185,-11.609 -41.727,-32.305l138.306,0c0.336,-2.692 0.673,-8.076 0.673,-14.133c-0,-58.217 -38.194,-95.906 -99.776,-95.906c-59.731,0 -100.28,37.353 -100.28,93.214c-0,54.851 39.035,93.213 100.28,93.213c59.563,0 94.055,-29.613 97.252,-60.74Zm-96.411,-82.277c25.07,-0 36.512,14.806 38.026,29.108l-77.397,0c5.216,-18.676 18.676,-29.108 39.371,-29.108Z" style="fill:#fff;fill-rule:nonzero;"/><path d="M2211.37,491.427c41.055,0 85.642,-15.984 85.642,-59.058c0,-40.549 -45.429,-50.644 -73.191,-55.019c-21.2,-3.365 -36.511,-7.067 -36.511,-15.984c-0,-9.759 14.638,-12.451 24.397,-12.451c11.273,-0 23.892,4.879 23.892,16.152l0,1.851l58.89,0l-0,-2.019c-0,-37.016 -39.54,-59.899 -82.446,-59.899c-45.26,0 -83.454,19.686 -83.454,57.543c-0,37.017 40.886,49.804 72.518,54.852c27.089,4.374 37.857,6.898 37.857,16.657c0,9.422 -14.638,12.956 -25.911,12.956c-16.826,-0 -27.257,-4.543 -27.257,-15.816l-0,-2.019l-59.563,-0l0,2.355c0,40.213 42.905,59.899 85.137,59.899Z" style="fill:#fff;fill-rule:nonzero;"/><rect x="2412.26" y="224.238" width="59.058" height="262.983" style="fill:#fff;fill-rule:nonzero;"/><path d="M2569.25,491.091c24.565,-0 47.448,-8.077 61.244,-22.378c0.337,1.514 0.842,2.86 1.347,4.374c2.355,6.73 6.561,12.283 8.412,14.134l58.721,-0c-2.187,-2.019 -6.562,-7.908 -9.085,-15.985c-2.188,-7.235 -2.188,-16.32 -2.188,-25.911l0,-73.359c0,-45.597 -43.41,-66.966 -91.531,-66.966c-51.318,0 -91.362,23.556 -91.362,67.639l59.226,-0c-0,-15.143 10.6,-22.715 31.632,-22.715c19.685,0 31.8,7.404 31.8,18.172l-0,0.336c-0,6.899 -11.273,8.581 -48.962,12.115c-39.204,3.701 -76.388,19.181 -76.388,57.88c-0,33.651 28.267,52.664 67.134,52.664Zm17.162,-43.579c-15.648,0 -24.061,-4.879 -24.061,-14.806c0,-10.264 9.254,-13.965 28.435,-15.984c12.283,-1.178 25.575,-3.197 37.353,-6.058c-2.356,26.753 -22.378,36.848 -41.727,36.848Z" style="fill:#fff;fill-rule:nonzero;"/><path d="M2798.91,491.427c41.054,0 85.642,-15.984 85.642,-59.058c0,-40.549 -45.429,-50.644 -73.191,-55.019c-21.2,-3.365 -36.511,-7.067 -36.511,-15.984c-0,-9.759 14.638,-12.451 24.397,-12.451c11.273,-0 23.892,4.879 23.892,16.152l-0,1.851l58.889,0l0,-2.019c0,-37.016 -39.54,-59.899 -82.445,-59.899c-45.261,0 -83.455,19.686 -83.455,57.543c0,37.017 40.886,49.804 72.519,54.852c27.089,4.374 37.857,6.898 37.857,16.657c-0,9.422 -14.638,12.956 -25.911,12.956c-16.826,-0 -27.258,-4.543 -27.258,-15.816l0,-2.019l-59.562,-0l-0,2.355c-0,40.213 42.905,59.899 85.137,59.899Z" style="fill:#fff;fill-rule:nonzero;"/><path d="M3006.04,491.259c12.283,-0 21.705,-2.356 26.585,-4.375l-0,-44.083c-3.365,1.346 -11.105,3.365 -18.845,3.365c-14.133,0 -15.648,-10.431 -15.648,-24.733l0,-67.471l50.477,0l0,-45.429l-50.477,0l0,-58.721l-60.235,0l0,16.489c0,40.213 -3.197,42.232 -34.324,42.232l-6.226,0l0,45.429l40.55,0l0,83.623c0,47.617 39.035,53.674 68.143,53.674Z" style="fill:#fff;fill-rule:nonzero;"/><path d="M3263.3,430.687l-59.226,-0c-1.01,7.571 -10.6,16.657 -35.502,16.657c-23.724,0 -37.184,-11.609 -41.727,-32.305l138.306,0c0.336,-2.692 0.673,-8.076 0.673,-14.133c-0,-58.217 -38.194,-95.906 -99.776,-95.906c-59.73,0 -100.28,37.353 -100.28,93.214c0,54.851 39.035,93.213 100.28,93.213c59.563,0 94.055,-29.613 97.252,-60.74Zm-96.41,-82.277c25.07,-0 36.511,14.806 38.025,29.108l-77.397,0c5.216,-18.676 18.676,-29.108 39.372,-29.108Z" style="fill:#fff;fill-rule:nonzero;"/><path d="M3294.26,487.221l59.899,-0l-0,-91.531c-0,-24.566 11.609,-40.382 34.492,-40.382c26.08,0 30.623,18.509 30.623,38.699l-0,93.214l59.899,-0l-0,-110.712c-0,-42.232 -18.34,-71.509 -63.096,-71.509c-25.912,0 -48.29,11.61 -61.918,31.296l-0,-27.763l-59.899,0l-0,178.688Z" style="fill:#fff;fill-rule:nonzero;"/><path d="M3514.84,487.221l60.067,-0l-0,-79.922c-0,-24.06 11.946,-49.803 47.448,-49.803c10.432,-0 17.667,3.197 19.686,4.374l8.917,-53c-2.019,-1.01 -9.59,-3.87 -24.06,-3.87c-23.724,0 -41.223,10.6 -51.991,28.099l-0,-24.566l-60.067,0l-0,178.688Z" style="fill:#fff;fill-rule:nonzero;"/><path d="M3729.2,491.091c24.565,-0 47.448,-8.077 61.245,-22.378c0.336,1.514 0.841,2.86 1.346,4.374c2.356,6.73 6.562,12.283 8.413,14.134l58.721,-0c-2.187,-2.019 -6.562,-7.908 -9.086,-15.985c-2.187,-7.235 -2.187,-16.32 -2.187,-25.911l-0,-73.359c-0,-45.597 -43.41,-66.966 -91.531,-66.966c-51.318,0 -91.363,23.556 -91.363,67.639l59.226,-0c0,-15.143 10.6,-22.715 31.632,-22.715c19.686,0 31.8,7.404 31.8,18.172l0,0.336c0,6.899 -11.273,8.581 -48.962,12.115c-39.203,3.701 -76.388,19.181 -76.388,57.88c0,33.651 28.267,52.664 67.134,52.664Zm17.162,-43.579c-15.648,0 -24.06,-4.879 -24.06,-14.806c-0,-10.264 9.254,-13.965 28.435,-15.984c12.282,-1.178 25.574,-3.197 37.352,-6.058c-2.355,26.753 -22.378,36.848 -41.727,36.848Z" style="fill:#fff;fill-rule:nonzero;"/><path d="M3957.52,491.427c21.2,0 40.044,-9.422 54.009,-24.565l0,20.359l60.068,-0l-0,-262.983l-60.068,-0l0,104.15c-13.965,-14.639 -32.978,-23.388 -54.009,-23.388c-43.242,0 -83.792,32.81 -83.792,91.868c0,62.086 39.036,94.559 83.792,94.559Zm16.32,-51.15c-19.854,0 -38.194,-13.292 -38.194,-43.409c0,-29.95 18.34,-42.569 38.194,-42.569c18.508,-0 37.689,13.124 37.689,36.848l0,11.273c0,23.892 -18.676,37.857 -37.689,37.857Z" style="fill:#fff;fill-rule:nonzero;"/><g><path d="M428.29,360.989c0,-74.158 -60.119,-134.277 -134.277,-134.277c-74.152,0 -134.271,60.119 -134.271,134.277c-0,74.158 60.119,134.277 134.271,134.277c74.158,0 134.277,-60.119 134.277,-134.277" style="fill:#e2341d;"/><path d="M639.416,277.995c29.82,-53.954 89.459,-53.954 119.279,-26.977c29.821,26.977 29.821,80.93 0,134.884c-20.874,40.465 -74.549,80.931 -119.279,107.907c-44.73,-26.976 -98.405,-67.442 -119.279,-107.907c-29.82,-53.954 -29.82,-107.907 -0,-134.884c29.82,-26.977 89.459,-26.977 119.279,26.977Z" style="fill:#fdc50f;"/><path d="M1141.12,220.869l-37.494,73.553c-1.489,2.924 -0.04,6.483 3.065,7.538l50.642,17.155c4.1,1.389 4.961,6.818 1.489,9.408l-42.876,32.006c-2.631,1.956 -2.905,5.796 -0.588,8.113l58.348,58.347c3.686,3.686 0.501,9.93 -4.641,9.115l-81.532,-12.881c-3.238,-0.514 -6.176,1.963 -6.223,5.242l-0.701,53.493c-0.054,4.327 -4.948,6.818 -8.487,4.321l-43.657,-30.87c-2.671,-1.897 -6.411,-0.975 -7.9,1.949l-37.494,73.559c-2.37,4.641 -9.295,3.539 -10.11,-1.609l-12.88,-81.505c-0.515,-3.239 -3.78,-5.275 -6.912,-4.3l-51.076,15.892c-4.14,1.289 -8.026,-2.597 -6.737,-6.737l15.892,-51.07c0.975,-3.131 -1.055,-6.403 -4.293,-6.911l-81.512,-12.887c-5.148,-0.808 -6.25,-7.74 -1.609,-10.103l73.565,-37.501c2.918,-1.489 3.84,-5.222 1.943,-7.9l-30.863,-43.657c-2.504,-3.539 -0.013,-8.433 4.32,-8.487l53.494,-0.701c3.272,-0.04 5.749,-2.985 5.241,-6.223l-12.887,-81.526c-0.815,-5.148 5.435,-8.326 9.115,-4.64l58.347,58.341c2.324,2.323 6.157,2.043 8.12,-0.581l31.999,-42.883c2.597,-3.472 8.019,-2.611 9.408,1.496l17.155,50.635c1.055,3.105 4.62,4.554 7.545,3.065l73.546,-37.487c4.647,-2.371 9.602,2.59 7.238,7.231" style="fill:#61b22b;"/></g></svg>