<?xml version="1.0" encoding="UTF-8" standalone="no"?><!DOCTYPE svg PUBLIC "-//W3C//DTD SVG 1.1//EN" "http://www.w3.org/Graphics/SVG/1.1/DTD/svg11.dtd"><svg width="100%" height="100%" viewBox="0 0 4398 771" version="1.1" xmlns="http://www.w3.org/2000/svg" xmlns:xlink="http://www.w3.org/1999/xlink" xml:space="preserve" xmlns:serif="http://www.serif.com/" style="fill-rule:evenodd;clip-rule:evenodd;stroke-linejoin:round;stroke-miterlimit:2;"><rect id="freieslastenrad---quer" serif:id="freieslastenrad - quer" x="0.101" y="0.56" width="4397.21" height="769.481" style="fill:none;"/><path d="M1327.02,487.685l59.899,-0l-0,-133.259l46.607,0l-0,-45.429l-46.607,0l-0,-7.234c-0,-19.855 7.403,-32.642 31.968,-32.642c7.908,-0 15.816,1.683 18.508,2.524l0,-45.766c-2.692,-1.177 -9.422,-3.533 -25.406,-3.533c-33.146,-0 -84.969,12.451 -84.969,77.902l-0,8.749l-36.512,0l0,45.429l36.512,0l-0,133.259Z" style="fill-rule:nonzero;"/><path d="M1458.09,487.685l60.067,-0l-0,-79.922c-0,-24.06 11.946,-49.803 47.448,-49.803c10.432,-0 17.667,3.197 19.686,4.374l8.917,-53c-2.019,-1.01 -9.59,-3.87 -24.06,-3.87c-23.724,0 -41.223,10.6 -51.991,28.099l-0,-24.566l-60.067,0l-0,178.688Z" style="fill-rule:nonzero;"/><path d="M1794.43,431.151l-59.226,-0c-1.009,7.571 -10.6,16.657 -35.501,16.657c-23.724,0 -37.185,-11.609 -41.728,-32.305l138.306,0c0.337,-2.692 0.673,-8.076 0.673,-14.133c0,-58.217 -38.194,-95.906 -99.775,-95.906c-59.731,0 -100.281,37.353 -100.281,93.214c0,54.851 39.036,93.213 100.281,93.213c59.562,0 94.054,-29.613 97.251,-60.74Zm-96.41,-82.277c25.07,0 36.511,14.806 38.026,29.108l-77.398,0c5.216,-18.676 18.677,-29.108 39.372,-29.108Z" style="fill-rule:nonzero;"/><path d="M1851.64,283.927c18.003,0 33.819,-9.59 33.819,-27.089c0,-17.498 -15.816,-27.089 -33.819,-27.089c-18.171,0 -33.819,9.591 -33.819,27.089c-0,17.331 15.648,27.089 33.819,27.089Zm-29.613,203.758l59.394,-0l0,-178.688l-59.394,0l0,178.688Z" style="fill-rule:nonzero;"/><path d="M2103.86,431.151l-59.226,-0c-1.009,7.571 -10.6,16.657 -35.502,16.657c-23.724,0 -37.184,-11.609 -41.727,-32.305l138.306,0c0.336,-2.692 0.673,-8.076 0.673,-14.133c-0,-58.217 -38.194,-95.906 -99.776,-95.906c-59.73,0 -100.28,37.353 -100.28,93.214c0,54.851 39.035,93.213 100.28,93.213c59.563,0 94.055,-29.613 97.252,-60.74Zm-96.41,-82.277c25.07,0 36.511,14.806 38.025,29.108l-77.397,0c5.216,-18.676 18.676,-29.108 39.372,-29.108Z" style="fill-rule:nonzero;"/><path d="M2211.03,491.891c41.054,0 85.642,-15.984 85.642,-59.058c-0,-40.549 -45.429,-50.644 -73.192,-55.019c-21.2,-3.365 -36.511,-7.067 -36.511,-15.984c0,-9.759 14.638,-12.451 24.397,-12.451c11.273,-0 23.892,4.879 23.892,16.152l0,1.851l58.89,0l-0,-2.019c-0,-37.016 -39.54,-59.899 -82.445,-59.899c-45.261,0 -83.455,19.686 -83.455,57.543c-0,37.017 40.886,49.804 72.518,54.852c27.089,4.374 37.857,6.898 37.857,16.657c0,9.422 -14.638,12.956 -25.911,12.956c-16.825,-0 -27.257,-4.543 -27.257,-15.816l-0,-2.019l-59.563,-0l0,2.355c0,40.213 42.905,59.899 85.138,59.899Z" style="fill-rule:nonzero;"/><rect x="2411.93" y="224.702" width="59.058" height="262.983" style="fill-rule:nonzero;"/><path d="M2568.91,491.555c24.565,-0 47.448,-8.077 61.245,-22.378c0.336,1.514 0.841,2.86 1.346,4.374c2.355,6.73 6.562,12.283 8.413,14.134l58.721,-0c-2.188,-2.019 -6.562,-7.908 -9.086,-15.985c-2.187,-7.235 -2.187,-16.32 -2.187,-25.911l-0,-73.359c-0,-45.597 -43.41,-66.966 -91.531,-66.966c-51.318,0 -91.363,23.556 -91.363,67.639l59.226,-0c-0,-15.143 10.6,-22.715 31.632,-22.715c19.686,0 31.8,7.404 31.8,18.172l0,0.336c0,6.899 -11.273,8.581 -48.962,12.115c-39.204,3.701 -76.388,19.181 -76.388,57.88c-0,33.651 28.267,52.664 67.134,52.664Zm17.162,-43.579c-15.648,0 -24.061,-4.879 -24.061,-14.806c0,-10.264 9.254,-13.965 28.435,-15.984c12.283,-1.178 25.575,-3.197 37.353,-6.057c-2.355,26.752 -22.378,36.847 -41.727,36.847Z" style="fill-rule:nonzero;"/><path d="M2798.58,491.891c41.055,0 85.642,-15.984 85.642,-59.058c0,-40.549 -45.429,-50.644 -73.191,-55.019c-21.2,-3.365 -36.511,-7.067 -36.511,-15.984c-0,-9.759 14.638,-12.451 24.397,-12.451c11.273,-0 23.892,4.879 23.892,16.152l0,1.851l58.889,0l0,-2.019c0,-37.016 -39.54,-59.899 -82.445,-59.899c-45.26,0 -83.454,19.686 -83.454,57.543c-0,37.017 40.886,49.804 72.518,54.852c27.089,4.374 37.857,6.898 37.857,16.657c0,9.422 -14.638,12.956 -25.911,12.956c-16.826,-0 -27.258,-4.543 -27.258,-15.816l0,-2.019l-59.562,-0l0,2.355c0,40.213 42.905,59.899 85.137,59.899Z" style="fill-rule:nonzero;"/><path d="M3005.7,491.723c12.282,-0 21.705,-2.356 26.584,-4.375l0,-44.083c-3.365,1.346 -11.105,3.365 -18.845,3.365c-14.133,0 -15.647,-10.431 -15.647,-24.733l-0,-67.471l50.476,0l0,-45.429l-50.476,0l-0,-58.721l-60.236,0l0,16.489c0,40.213 -3.197,42.232 -34.324,42.232l-6.225,0l-0,45.429l40.549,0l0,83.623c0,47.617 39.035,53.674 68.144,53.674Z" style="fill-rule:nonzero;"/><path d="M3262.97,431.151l-59.226,-0c-1.009,7.571 -10.6,16.657 -35.502,16.657c-23.724,0 -37.184,-11.609 -41.727,-32.305l138.306,0c0.336,-2.692 0.673,-8.076 0.673,-14.133c-0,-58.217 -38.194,-95.906 -99.775,-95.906c-59.731,0 -100.281,37.353 -100.281,93.214c0,54.851 39.036,93.213 100.281,93.213c59.562,0 94.054,-29.613 97.251,-60.74Zm-96.41,-82.277c25.07,0 36.511,14.806 38.026,29.108l-77.398,0c5.216,-18.676 18.676,-29.108 39.372,-29.108Z" style="fill-rule:nonzero;"/><path d="M3293.93,487.685l59.899,-0l-0,-91.531c-0,-24.566 11.61,-40.382 34.492,-40.382c26.08,0 30.623,18.509 30.623,38.699l-0,93.214l59.899,-0l-0,-110.712c-0,-42.232 -18.34,-71.509 -63.096,-71.509c-25.911,0 -48.289,11.61 -61.918,31.296l-0,-27.763l-59.899,0l0,178.688Z" style="fill-rule:nonzero;"/><path d="M3514.51,487.685l60.067,-0l0,-79.922c0,-24.06 11.946,-49.803 47.448,-49.803c10.432,-0 17.667,3.197 19.686,4.374l8.917,-53c-2.019,-1.01 -9.59,-3.87 -24.06,-3.87c-23.724,0 -41.223,10.6 -51.991,28.099l0,-24.566l-60.067,0l-0,178.688Z" style="fill-rule:nonzero;"/><path d="M3728.87,491.555c24.565,-0 47.448,-8.077 61.245,-22.378c0.337,1.514 0.841,2.86 1.346,4.374c2.356,6.73 6.562,12.283 8.413,14.134l58.721,-0c-2.187,-2.019 -6.562,-7.908 -9.086,-15.985c-2.187,-7.235 -2.187,-16.32 -2.187,-25.911l-0,-73.359c-0,-45.597 -43.41,-66.966 -91.531,-66.966c-51.318,0 -91.363,23.556 -91.363,67.639l59.226,-0c0,-15.143 10.6,-22.715 31.632,-22.715c19.686,0 31.801,7.404 31.801,18.172l-0,0.336c-0,6.899 -11.274,8.581 -48.963,12.115c-39.203,3.701 -76.388,19.181 -76.388,57.88c0,33.651 28.267,52.664 67.134,52.664Zm17.162,-43.579c-15.648,0 -24.06,-4.879 -24.06,-14.806c-0,-10.264 9.254,-13.965 28.435,-15.984c12.283,-1.178 25.575,-3.197 37.353,-6.057c-2.356,26.752 -22.378,36.847 -41.728,36.847Z" style="fill-rule:nonzero;"/><path d="M3957.19,491.891c21.2,0 40.045,-9.422 54.01,-24.565l-0,20.359l60.067,-0l-0,-262.983l-60.067,-0l-0,104.15c-13.965,-14.639 -32.978,-23.388 -54.01,-23.388c-43.242,0 -83.791,32.81 -83.791,91.868c-0,62.086 39.035,94.559 83.791,94.559Zm16.32,-51.15c-19.854,0 -38.193,-13.292 -38.193,-43.409c-0,-29.95 18.339,-42.569 38.193,-42.569c18.509,-0 37.69,13.124 37.69,36.848l-0,11.273c-0,23.892 -18.677,37.857 -37.69,37.857Z" style="fill-rule:nonzero;"/><g><path d="M427.956,361.453c0,-74.158 -60.119,-134.277 -134.277,-134.277c-74.152,0 -134.271,60.119 -134.271,134.277c-0,74.158 60.119,134.277 134.271,134.277c74.158,0 134.277,-60.119 134.277,-134.277" style="fill:#e2341d;"/><path d="M639.082,278.459c29.82,-53.954 89.459,-53.954 119.28,-26.977c29.82,26.977 29.82,80.93 -0,134.884c-20.875,40.465 -74.55,80.931 -119.28,107.907c-44.73,-26.976 -98.405,-67.442 -119.279,-107.907c-29.82,-53.954 -29.82,-107.907 -0,-134.884c29.82,-26.977 89.459,-26.977 119.279,26.977Z" style="fill:#fdc50f;"/><path d="M1140.78,221.333l-37.494,73.553c-1.489,2.924 -0.04,6.483 3.065,7.538l50.642,17.155c4.1,1.389 4.962,6.818 1.489,9.408l-42.876,32.006c-2.631,1.956 -2.904,5.796 -0.587,8.113l58.347,58.347c3.686,3.686 0.501,9.93 -4.641,9.115l-81.531,-12.881c-3.239,-0.514 -6.177,1.963 -6.224,5.242l-0.701,53.493c-0.053,4.327 -4.948,6.818 -8.487,4.321l-43.657,-30.87c-2.671,-1.897 -6.411,-0.975 -7.9,1.949l-37.494,73.559c-2.37,4.641 -9.295,3.54 -10.109,-1.609l-12.881,-81.505c-0.514,-3.239 -3.78,-5.275 -6.911,-4.3l-51.076,15.892c-4.14,1.289 -8.027,-2.597 -6.738,-6.737l15.893,-51.07c0.974,-3.131 -1.056,-6.403 -4.294,-6.911l-81.512,-12.887c-5.148,-0.808 -6.25,-7.74 -1.609,-10.103l73.565,-37.501c2.919,-1.489 3.84,-5.222 1.944,-7.9l-30.864,-43.657c-2.504,-3.539 -0.013,-8.433 4.321,-8.487l53.493,-0.701c3.272,-0.04 5.749,-2.985 5.242,-6.223l-12.888,-81.526c-0.814,-5.148 5.436,-8.326 9.115,-4.64l58.348,58.341c2.323,2.323 6.156,2.043 8.119,-0.581l31.999,-42.883c2.597,-3.472 8.019,-2.611 9.408,1.496l17.155,50.635c1.055,3.105 4.621,4.554 7.545,3.065l73.546,-37.487c4.647,-2.371 9.602,2.59 7.238,7.231" style="fill:#61b22b;"/></g></svg>