<?xml version="1.0" encoding="UTF-8" standalone="no"?><!DOCTYPE svg PUBLIC "-//W3C//DTD SVG 1.1//EN" "http://www.w3.org/Graphics/SVG/1.1/DTD/svg11.dtd"><svg width="100%" height="100%" viewBox="0 0 1146 312" version="1.1" xmlns="http://www.w3.org/2000/svg" xmlns:xlink="http://www.w3.org/1999/xlink" xml:space="preserve" xmlns:serif="http://www.serif.com/" style="fill-rule:evenodd;clip-rule:evenodd;stroke-linejoin:round;stroke-miterlimit:2;"><rect id="freieslastenrad---quer---mit-unterzeile----negativ" serif:id="freieslastenrad - quer - mit unterzeile  - negativ" x="0.18" y="0.027" width="1145.53" height="311.811" style="fill:none;"/><path d="M343.828,185.286l14.375,0l0,-31.982l11.186,0l-0,-10.903l-11.186,0l0,-1.736c0,-4.765 1.777,-7.834 7.673,-7.834c1.898,-0 3.796,0.404 4.442,0.605l-0,-10.983c-0.646,-0.283 -2.262,-0.848 -6.098,-0.848c-7.955,-0 -20.392,2.988 -20.392,18.696l-0,2.1l-8.763,0l-0,10.903l8.763,0l-0,31.982Z" style="fill:#fff;fill-rule:nonzero;"/><path d="M375.285,185.286l14.416,0l-0,-19.181c-0,-5.775 2.867,-11.953 11.387,-11.953c2.504,0 4.24,0.767 4.725,1.05l2.14,-12.72c-0.484,-0.242 -2.302,-0.929 -5.774,-0.929c-5.694,0 -9.894,2.544 -12.478,6.744l-0,-5.896l-14.416,0l-0,42.885Z" style="fill:#fff;fill-rule:nonzero;"/><path d="M456.007,171.718l-14.214,-0c-0.243,1.817 -2.544,3.998 -8.521,3.998c-5.694,-0 -8.924,-2.787 -10.014,-7.754l33.193,0c0.081,-0.646 0.162,-1.938 0.162,-3.392c-0,-13.971 -9.167,-23.017 -23.947,-23.017c-14.335,0 -24.067,8.965 -24.067,22.371c0,13.165 9.369,22.372 24.067,22.372c14.295,-0 22.574,-7.108 23.341,-14.578Zm-23.139,-19.747c6.017,0 8.763,3.554 9.127,6.986l-18.576,0c1.252,-4.482 4.482,-6.986 9.449,-6.986Z" style="fill:#fff;fill-rule:nonzero;"/><path d="M469.736,136.384c4.321,0 8.117,-2.301 8.117,-6.501c0,-4.2 -3.796,-6.501 -8.117,-6.501c-4.361,-0 -8.116,2.301 -8.116,6.501c-0,4.159 3.755,6.501 8.116,6.501Zm-7.107,48.902l14.255,0l-0,-42.885l-14.255,0l0,42.885Z" style="fill:#fff;fill-rule:nonzero;"/><path d="M530.268,171.718l-14.214,-0c-0.242,1.817 -2.544,3.998 -8.521,3.998c-5.693,-0 -8.924,-2.787 -10.014,-7.754l33.193,0c0.081,-0.646 0.162,-1.938 0.162,-3.392c-0,-13.971 -9.167,-23.017 -23.946,-23.017c-14.336,0 -24.068,8.965 -24.068,22.371c0,13.165 9.369,22.372 24.068,22.372c14.295,-0 22.573,-7.108 23.34,-14.578Zm-23.138,-19.747c6.016,0 8.762,3.554 9.126,6.986l-18.576,0c1.252,-4.482 4.483,-6.986 9.45,-6.986Z" style="fill:#fff;fill-rule:nonzero;"/><path d="M555.991,186.296c9.853,-0 20.554,-3.837 20.554,-14.174c-0,-9.732 -10.903,-12.155 -17.566,-13.205c-5.088,-0.808 -8.763,-1.696 -8.763,-3.836c0,-2.342 3.514,-2.988 5.856,-2.988c2.705,-0 5.734,1.171 5.734,3.876l-0,0.444l14.133,0l0,-0.484c0,-8.884 -9.489,-14.376 -19.787,-14.376c-10.862,0 -20.029,4.725 -20.029,13.811c0,8.883 9.813,11.952 17.405,13.164c6.501,1.05 9.085,1.655 9.085,3.998c0,2.261 -3.513,3.109 -6.218,3.109c-4.038,-0 -6.542,-1.09 -6.542,-3.796l-0,-0.484l-14.295,-0l-0,0.565c-0,9.651 10.297,14.376 20.433,14.376Z" style="fill:#fff;fill-rule:nonzero;"/><rect x="604.206" y="122.17" width="14.174" height="63.116" style="fill:#fff;fill-rule:nonzero;"/><path d="M641.882,186.215c5.896,-0 11.387,-1.938 14.699,-5.371c0.08,0.364 0.202,0.687 0.323,1.05c0.565,1.615 1.575,2.948 2.019,3.392l14.093,0c-0.525,-0.485 -1.575,-1.898 -2.181,-3.836c-0.525,-1.737 -0.525,-3.917 -0.525,-6.219l0,-17.606c0,-10.943 -10.418,-16.072 -21.967,-16.072c-12.316,0 -21.927,5.653 -21.927,16.233l14.214,0c0,-3.634 2.544,-5.451 7.592,-5.451c4.724,-0 7.632,1.777 7.632,4.361l-0,0.081c-0,1.655 -2.706,2.059 -11.751,2.907c-9.409,0.889 -18.333,4.604 -18.333,13.891c-0,8.077 6.784,12.64 16.112,12.64Zm4.119,-10.459c-3.756,0 -5.775,-1.171 -5.775,-3.553c0,-2.464 2.221,-3.352 6.825,-3.837c2.948,-0.282 6.138,-0.767 8.964,-1.453c-0.565,6.42 -5.37,8.843 -10.014,8.843Z" style="fill:#fff;fill-rule:nonzero;"/><path d="M697.002,186.296c9.853,-0 20.554,-3.837 20.554,-14.174c0,-9.732 -10.903,-12.155 -17.565,-13.205c-5.088,-0.808 -8.763,-1.696 -8.763,-3.836c-0,-2.342 3.513,-2.988 5.855,-2.988c2.706,-0 5.734,1.171 5.734,3.876l0,0.444l14.134,0l-0,-0.484c-0,-8.884 -9.49,-14.376 -19.787,-14.376c-10.863,0 -20.029,4.725 -20.029,13.811c-0,8.883 9.812,11.952 17.404,13.164c6.501,1.05 9.086,1.655 9.086,3.998c-0,2.261 -3.513,3.109 -6.219,3.109c-4.038,-0 -6.542,-1.09 -6.542,-3.796l0,-0.484l-14.295,-0l0,0.565c0,9.651 10.298,14.376 20.433,14.376Z" style="fill:#fff;fill-rule:nonzero;"/><path d="M746.712,186.255c2.948,0 5.209,-0.565 6.38,-1.05l-0,-10.58c-0.808,0.323 -2.665,0.808 -4.523,0.808c-3.392,0 -3.755,-2.504 -3.755,-5.936l-0,-16.193l12.114,0l0,-10.903l-12.114,0l-0,-14.093l-14.457,0l0,3.957c0,9.652 -0.767,10.136 -8.237,10.136l-1.495,0l0,10.903l9.732,0l0,20.07c0,11.427 9.369,12.881 16.355,12.881Z" style="fill:#fff;fill-rule:nonzero;"/><path d="M808.455,171.718l-14.214,-0c-0.243,1.817 -2.545,3.998 -8.521,3.998c-5.694,-0 -8.924,-2.787 -10.015,-7.754l33.194,0c0.081,-0.646 0.161,-1.938 0.161,-3.392c0,-13.971 -9.166,-23.017 -23.946,-23.017c-14.335,0 -24.067,8.965 -24.067,22.371c0,13.165 9.369,22.372 24.067,22.372c14.295,-0 22.573,-7.108 23.341,-14.578Zm-23.139,-19.747c6.017,0 8.763,3.554 9.126,6.986l-18.575,0c1.252,-4.482 4.482,-6.986 9.449,-6.986Z" style="fill:#fff;fill-rule:nonzero;"/><path d="M815.885,185.286l14.376,0l-0,-21.967c-0,-5.896 2.786,-9.692 8.278,-9.692c6.259,0 7.349,4.442 7.349,9.288l0,22.371l14.376,0l-0,-26.571c-0,-10.136 -4.402,-17.162 -15.143,-17.162c-6.219,0 -11.59,2.786 -14.86,7.511l-0,-6.663l-14.376,0l-0,42.885Z" style="fill:#fff;fill-rule:nonzero;"/><path d="M868.825,185.286l14.416,0l-0,-19.181c-0,-5.775 2.867,-11.953 11.387,-11.953c2.504,0 4.24,0.767 4.725,1.05l2.14,-12.72c-0.484,-0.242 -2.302,-0.929 -5.774,-0.929c-5.694,0 -9.894,2.544 -12.478,6.744l-0,-5.896l-14.416,0l-0,42.885Z" style="fill:#fff;fill-rule:nonzero;"/><path d="M920.271,186.215c5.895,-0 11.387,-1.938 14.698,-5.371c0.081,0.364 0.202,0.687 0.323,1.05c0.566,1.615 1.575,2.948 2.019,3.392l14.093,0c-0.524,-0.485 -1.574,-1.898 -2.18,-3.836c-0.525,-1.737 -0.525,-3.917 -0.525,-6.219l-0,-17.606c-0,-10.943 -10.418,-16.072 -21.967,-16.072c-12.317,0 -21.928,5.653 -21.928,16.233l14.215,0c-0,-3.634 2.544,-5.451 7.591,-5.451c4.725,-0 7.632,1.777 7.632,4.361l0,0.081c0,1.655 -2.705,2.059 -11.751,2.907c-9.408,0.889 -18.333,4.604 -18.333,13.891c0,8.077 6.784,12.64 16.113,12.64Zm4.118,-10.459c-3.755,0 -5.774,-1.171 -5.774,-3.553c-0,-2.464 2.221,-3.352 6.824,-3.837c2.948,-0.282 6.138,-0.767 8.965,-1.453c-0.565,6.42 -5.371,8.843 -10.015,8.843Z" style="fill:#fff;fill-rule:nonzero;"/><path d="M975.068,186.296c5.088,-0 9.611,-2.262 12.962,-5.896l0,4.886l14.416,0l0,-63.116l-14.416,0l0,24.996c-3.351,-3.513 -7.914,-5.613 -12.962,-5.613c-10.378,0 -20.11,7.874 -20.11,22.048c0,14.901 9.368,22.695 20.11,22.695Zm3.917,-12.276c-4.765,-0 -9.167,-3.19 -9.167,-10.419c0,-7.188 4.402,-10.216 9.167,-10.216c4.442,-0 9.045,3.15 9.045,8.843l0,2.706c0,5.734 -4.482,9.086 -9.045,9.086Z" style="fill:#fff;fill-rule:nonzero;"/><g><path d="M126.685,156.973c0,-17.798 -14.428,-32.227 -32.226,-32.227c-17.797,0 -32.225,14.429 -32.225,32.227c-0,17.798 14.428,32.226 32.225,32.226c17.798,0 32.226,-14.428 32.226,-32.226" style="fill:#e2341d;"/><path d="M177.356,137.054c7.156,-12.949 21.47,-12.949 28.627,-6.475c7.157,6.475 7.157,19.424 -0,32.373c-5.01,9.711 -17.892,19.423 -28.627,25.897c-10.736,-6.474 -23.618,-16.186 -28.627,-25.897c-7.157,-12.949 -7.157,-25.898 -0,-32.373c7.156,-6.474 21.47,-6.474 28.627,6.475Z" style="fill:#fdc50f;"/><path d="M297.764,123.344l-8.999,17.652c-0.357,0.702 -0.009,1.556 0.736,1.81l12.154,4.117c0.984,0.333 1.191,1.636 0.357,2.258l-10.29,7.681c-0.632,0.47 -0.697,1.391 -0.141,1.947l14.003,14.004c0.885,0.884 0.121,2.383 -1.113,2.187l-19.568,-3.091c-0.777,-0.124 -1.483,0.471 -1.494,1.258l-0.168,12.838c-0.013,1.039 -1.188,1.636 -2.037,1.037l-10.478,-7.409c-0.641,-0.455 -1.538,-0.234 -1.896,0.468l-8.998,17.654c-0.569,1.114 -2.231,0.85 -2.426,-0.386l-3.092,-19.561c-0.123,-0.777 -0.907,-1.266 -1.658,-1.032l-12.259,3.814c-0.993,0.309 -1.926,-0.623 -1.617,-1.617l3.814,-12.257c0.234,-0.751 -0.253,-1.537 -1.03,-1.658l-19.563,-3.093c-1.235,-0.194 -1.5,-1.858 -0.386,-2.425l17.656,-9c0.7,-0.358 0.921,-1.253 0.466,-1.896l-7.407,-10.478c-0.601,-0.849 -0.003,-2.024 1.037,-2.037l12.838,-0.168c0.785,-0.01 1.38,-0.716 1.258,-1.494l-3.093,-19.566c-0.195,-1.235 1.305,-1.998 2.188,-1.113l14.003,14.001c0.558,0.558 1.478,0.491 1.949,-0.139l7.679,-10.292c0.624,-0.833 1.925,-0.626 2.259,0.359l4.117,12.153c0.253,0.745 1.109,1.093 1.811,0.735l17.65,-8.997c1.116,-0.569 2.305,0.622 1.738,1.736" style="fill:#61b22b;"/></g><path d="M343.581,244.248l-8.534,-30.654l2.795,0l7.673,28.617l-0.227,-0l7.585,-28.617l2.807,0l-8.437,30.654l-3.662,-0Z" style="fill:#fff;fill-rule:nonzero;"/><path d="M360.353,234.152l0,-2.285l17.757,-0l-0.503,0.702l0,-0.413c0,-1.423 -0.301,-2.744 -0.905,-3.964c-0.603,-1.221 -1.481,-2.204 -2.632,-2.95c-1.152,-0.745 -2.553,-1.118 -4.205,-1.118c-1.67,0 -3.146,0.382 -4.426,1.146c-1.28,0.764 -2.28,1.818 -3,3.162c-0.721,1.345 -1.081,2.9 -1.081,4.667c0,1.798 0.356,3.374 1.067,4.728c0.711,1.353 1.708,2.406 2.99,3.159c1.283,0.752 2.773,1.128 4.47,1.128c1.262,0 2.357,-0.157 3.286,-0.471c0.93,-0.314 1.699,-0.725 2.31,-1.232c0.61,-0.507 1.076,-1.046 1.397,-1.617c0.321,-0.572 0.509,-1.114 0.564,-1.628l2.553,0c-0.064,0.812 -0.326,1.644 -0.788,2.495c-0.461,0.851 -1.114,1.639 -1.961,2.364c-0.847,0.725 -1.89,1.311 -3.132,1.758c-1.241,0.448 -2.673,0.671 -4.298,0.671c-2.124,0 -4.007,-0.48 -5.65,-1.441c-1.642,-0.962 -2.935,-2.292 -3.878,-3.992c-0.943,-1.7 -1.414,-3.656 -1.414,-5.867c-0,-2.23 0.473,-4.195 1.421,-5.895c0.947,-1.7 2.247,-3.033 3.899,-3.999c1.651,-0.965 3.533,-1.448 5.643,-1.448c2.143,-0 3.999,0.489 5.568,1.469c1.569,0.98 2.781,2.304 3.637,3.975c0.856,1.67 1.284,3.542 1.284,5.616c-0,0.179 -0.005,0.408 -0.014,0.688c-0.009,0.28 -0.023,0.477 -0.041,0.592l-19.918,-0Z" style="fill:#fff;fill-rule:nonzero;"/><path d="M386.561,244.048l-0,-21.927l2.547,0l-0,6.456l-0.902,-0.275c0.087,-0.689 0.29,-1.41 0.609,-2.165c0.319,-0.754 0.767,-1.46 1.346,-2.116c0.578,-0.656 1.306,-1.189 2.185,-1.597c0.878,-0.408 1.921,-0.612 3.128,-0.612c0.876,-0 1.584,0.075 2.123,0.227c0.539,0.151 0.877,0.27 1.015,0.358l-0.702,2.478c-0.138,-0.097 -0.419,-0.221 -0.843,-0.372c-0.425,-0.152 -1.038,-0.227 -1.841,-0.227c-1.156,-0 -2.127,0.222 -2.911,0.667c-0.785,0.445 -1.412,1.024 -1.883,1.738c-0.47,0.713 -0.808,1.475 -1.015,2.285c-0.206,0.81 -0.309,1.584 -0.309,2.323l-0,12.759l-2.547,0Z" style="fill:#fff;fill-rule:nonzero;"/><path d="M403.182,244.048l-0,-32.271l2.436,0l-0,20.214l-0.736,-0.317l11.39,-9.553l3.324,0l-10.668,9.14l0.627,-1.356l10.22,14.143l-2.794,0l-9.14,-12.759l0.661,0.364l-3.311,2.795l0.427,-1.281l-0,10.881l-2.436,0Z" style="fill:#fff;fill-rule:nonzero;"/><path d="M423.863,234.152l-0,-2.285l17.756,-0l-0.502,0.702l-0,-0.413c-0,-1.423 -0.302,-2.744 -0.905,-3.964c-0.604,-1.221 -1.481,-2.204 -2.633,-2.95c-1.151,-0.745 -2.553,-1.118 -4.205,-1.118c-1.67,0 -3.145,0.382 -4.425,1.146c-1.28,0.764 -2.281,1.818 -3.001,3.162c-0.72,1.345 -1.08,2.9 -1.08,4.667c-0,1.798 0.355,3.374 1.066,4.728c0.712,1.353 1.708,2.406 2.991,3.159c1.282,0.752 2.772,1.128 4.47,1.128c1.261,0 2.357,-0.157 3.286,-0.471c0.929,-0.314 1.699,-0.725 2.309,-1.232c0.61,-0.507 1.076,-1.046 1.397,-1.617c0.321,-0.572 0.509,-1.114 0.565,-1.628l2.553,0c-0.064,0.812 -0.327,1.644 -0.788,2.495c-0.461,0.851 -1.115,1.639 -1.962,2.364c-0.846,0.725 -1.89,1.311 -3.131,1.758c-1.241,0.448 -2.674,0.671 -4.298,0.671c-2.124,0 -4.008,-0.48 -5.65,-1.441c-1.643,-0.962 -2.936,-2.292 -3.879,-3.992c-0.943,-1.7 -1.414,-3.656 -1.414,-5.867c0,-2.23 0.474,-4.195 1.421,-5.895c0.948,-1.7 2.247,-3.033 3.899,-3.999c1.652,-0.965 3.533,-1.448 5.643,-1.448c2.143,-0 3.999,0.489 5.568,1.469c1.569,0.98 2.782,2.304 3.638,3.975c0.855,1.67 1.283,3.542 1.283,5.616c-0,0.179 -0.005,0.408 -0.014,0.688c-0.009,0.28 -0.023,0.477 -0.041,0.592l-19.917,-0Z" style="fill:#fff;fill-rule:nonzero;"/><path d="M465.858,244.048l0,-12.842c0,-2.248 -0.498,-3.972 -1.493,-5.172c-0.996,-1.2 -2.528,-1.8 -4.597,-1.8c-1.391,0 -2.624,0.288 -3.7,0.864c-1.076,0.576 -1.92,1.343 -2.532,2.302c-0.613,0.959 -0.919,2.014 -0.919,3.166l-1.693,-0.496c-0,-1.477 0.397,-2.842 1.191,-4.094c0.793,-1.253 1.89,-2.26 3.289,-3.022c1.399,-0.761 2.998,-1.142 4.797,-1.142c2.615,-0 4.636,0.792 6.063,2.377c1.427,1.586 2.141,3.775 2.141,6.57l-0,13.289l-2.547,0Zm-15.788,0l0,-32.271l2.547,0l-0,32.271l-2.547,0Z" style="fill:#fff;fill-rule:nonzero;"/><path d="M475.404,244.048l-0,-21.927l2.547,0l-0,6.456l-0.902,-0.275c0.087,-0.689 0.29,-1.41 0.609,-2.165c0.319,-0.754 0.767,-1.46 1.346,-2.116c0.578,-0.656 1.306,-1.189 2.185,-1.597c0.878,-0.408 1.921,-0.612 3.128,-0.612c0.876,-0 1.584,0.075 2.123,0.227c0.539,0.151 0.877,0.27 1.015,0.358l-0.702,2.478c-0.138,-0.097 -0.419,-0.221 -0.843,-0.372c-0.425,-0.152 -1.038,-0.227 -1.841,-0.227c-1.156,-0 -2.127,0.222 -2.911,0.667c-0.785,0.445 -1.412,1.024 -1.883,1.738c-0.47,0.713 -0.808,1.475 -1.015,2.285c-0.206,0.81 -0.309,1.584 -0.309,2.323l-0,12.759l-2.547,0Z" style="fill:#fff;fill-rule:nonzero;"/><path d="M499.554,244.441c-1.326,-0 -2.532,-0.138 -3.617,-0.413c-1.085,-0.276 -2.02,-0.677 -2.804,-1.205c-0.785,-0.528 -1.393,-1.176 -1.824,-1.944c-0.432,-0.768 -0.659,-1.646 -0.681,-2.632c-0.005,-0.124 -0.007,-0.634 -0.007,-0.73l2.567,0c-0,0.096 0.002,0.491 0.007,0.62c0.036,1.275 0.617,2.259 1.741,2.952c1.124,0.693 2.677,1.039 4.659,1.039c1.262,0 2.373,-0.142 3.335,-0.427c0.961,-0.284 1.714,-0.704 2.26,-1.259c0.546,-0.555 0.819,-1.234 0.819,-2.037c0,-1.331 -0.574,-2.282 -1.724,-2.853c-1.149,-0.571 -2.838,-1.047 -5.068,-1.428c-1.148,-0.202 -2.221,-0.455 -3.221,-0.76c-1.001,-0.306 -1.876,-0.698 -2.626,-1.177c-0.75,-0.48 -1.337,-1.076 -1.762,-1.79c-0.424,-0.713 -0.636,-1.572 -0.636,-2.577c-0,-1.285 0.385,-2.373 1.156,-3.266c0.771,-0.892 1.805,-1.572 3.104,-2.04c1.298,-0.468 2.732,-0.702 4.301,-0.702c1.556,-0 2.984,0.236 4.284,0.709c1.301,0.472 2.344,1.179 3.128,2.119c0.785,0.941 1.177,2.125 1.177,3.552l0,0.447l-2.553,0l-0,-0.372c-0,-0.995 -0.282,-1.797 -0.847,-2.405c-0.564,-0.608 -1.3,-1.052 -2.209,-1.332c-0.908,-0.28 -1.883,-0.42 -2.925,-0.42c-1.018,0 -1.993,0.123 -2.925,0.369c-0.931,0.245 -1.692,0.633 -2.281,1.163c-0.59,0.53 -0.884,1.226 -0.884,2.089c-0,0.871 0.276,1.572 0.829,2.102c0.553,0.53 1.33,0.955 2.333,1.277c1.002,0.321 2.176,0.605 3.52,0.853c1.216,0.22 2.333,0.486 3.352,0.798c1.018,0.312 1.9,0.703 2.646,1.174c0.746,0.47 1.325,1.058 1.738,1.765c0.413,0.707 0.619,1.567 0.619,2.581c0,1.009 -0.228,1.896 -0.685,2.66c-0.456,0.764 -1.093,1.406 -1.909,1.927c-0.817,0.521 -1.769,0.913 -2.857,1.177c-1.087,0.264 -2.264,0.396 -3.53,0.396Z" style="fill:#fff;fill-rule:nonzero;"/><path d="M531.618,244.048l-6.373,-21.927l2.299,0l6.077,20.682l-0.482,-0l4.267,-20.682l2.664,0l-4.942,21.927l-3.51,0Zm-14.453,0l-4.989,-21.927l2.663,0l4.315,20.682l-0.481,-0l6.015,-20.682l2.299,0l-6.298,21.927l-3.524,0Z" style="fill:#fff;fill-rule:nonzero;"/><path d="M545.926,234.152l0,-2.285l17.757,-0l-0.503,0.702l0,-0.413c0,-1.423 -0.301,-2.744 -0.905,-3.964c-0.603,-1.221 -1.481,-2.204 -2.632,-2.95c-1.152,-0.745 -2.553,-1.118 -4.205,-1.118c-1.67,0 -3.146,0.382 -4.426,1.146c-1.28,0.764 -2.28,1.818 -3,3.162c-0.721,1.345 -1.081,2.9 -1.081,4.667c0,1.798 0.356,3.374 1.067,4.728c0.711,1.353 1.708,2.406 2.99,3.159c1.283,0.752 2.773,1.128 4.47,1.128c1.262,0 2.357,-0.157 3.286,-0.471c0.93,-0.314 1.699,-0.725 2.31,-1.232c0.61,-0.507 1.076,-1.046 1.397,-1.617c0.321,-0.572 0.509,-1.114 0.564,-1.628l2.553,0c-0.064,0.812 -0.326,1.644 -0.788,2.495c-0.461,0.851 -1.114,1.639 -1.961,2.364c-0.847,0.725 -1.89,1.311 -3.132,1.758c-1.241,0.448 -2.673,0.671 -4.298,0.671c-2.124,0 -4.007,-0.48 -5.65,-1.441c-1.642,-0.962 -2.935,-2.292 -3.878,-3.992c-0.943,-1.7 -1.414,-3.656 -1.414,-5.867c-0,-2.23 0.473,-4.195 1.421,-5.895c0.947,-1.7 2.247,-3.033 3.899,-3.999c1.651,-0.965 3.533,-1.448 5.643,-1.448c2.143,-0 3.999,0.489 5.568,1.469c1.569,0.98 2.781,2.304 3.637,3.975c0.856,1.67 1.284,3.542 1.284,5.616c-0,0.179 -0.005,0.408 -0.014,0.688c-0.009,0.28 -0.023,0.477 -0.041,0.592l-19.918,-0Z" style="fill:#fff;fill-rule:nonzero;"/><path d="M587.894,244.048l0,-13.689c0,-1.22 -0.216,-2.29 -0.65,-3.21c-0.433,-0.92 -1.098,-1.636 -1.992,-2.147c-0.895,-0.512 -2.044,-0.768 -3.448,-0.768c-1.23,0 -2.39,0.306 -3.479,0.916c-1.09,0.61 -1.97,1.437 -2.64,2.481c-0.67,1.044 -1.004,2.222 -1.004,3.534l-1.535,-0.585c-0,-1.666 0.43,-3.159 1.29,-4.481c0.86,-1.321 1.987,-2.366 3.379,-3.134c1.393,-0.769 2.876,-1.153 4.45,-1.153c1.661,-0 3.104,0.312 4.329,0.936c1.225,0.624 2.172,1.525 2.842,2.704c0.67,1.18 1.005,2.609 1.005,4.288l-0,14.308l-2.547,0Zm-15.76,0l-0,-21.927l2.547,0l-0,21.927l-2.547,0Z" style="fill:#fff;fill-rule:nonzero;"/><path d="M606.036,244.441c-1.794,-0 -3.416,-0.439 -4.866,-1.315c-1.45,-0.876 -2.598,-2.161 -3.444,-3.854c-0.847,-1.693 -1.27,-3.755 -1.27,-6.187c-0,-2.404 0.428,-4.446 1.283,-6.125c0.856,-1.68 2.009,-2.958 3.459,-3.834c1.45,-0.876 3.062,-1.314 4.838,-1.314c1.679,-0 3.236,0.397 4.67,1.19c1.433,0.794 2.585,1.877 3.455,3.249c0.869,1.372 1.304,2.929 1.304,4.673l-0,0.289l-1.886,0.041l0,-0.275c0,-1.253 -0.335,-2.394 -1.005,-3.424c-0.67,-1.03 -1.553,-1.855 -2.65,-2.474c-1.096,-0.62 -2.282,-0.929 -3.558,-0.929c-2.129,-0 -3.875,0.749 -5.241,2.247c-1.365,1.498 -2.047,3.726 -2.047,6.686c-0,2.95 0.685,5.179 2.054,6.686c1.37,1.507 3.114,2.261 5.234,2.261c1.303,-0 2.501,-0.315 3.593,-0.943c1.092,-0.629 1.968,-1.473 2.629,-2.533c0.661,-1.06 0.991,-2.243 0.991,-3.551l1.886,0.041c-0,1.776 -0.427,3.374 -1.28,4.794c-0.854,1.42 -1.993,2.542 -3.417,3.365c-1.425,0.824 -3.002,1.236 -4.732,1.236Zm7.543,-0.393l0,-32.271l2.567,0l0,32.271l-2.567,0Z" style="fill:#fff;fill-rule:nonzero;"/><path d="M623.868,234.152l-0,-2.285l17.756,-0l-0.502,0.702l-0,-0.413c-0,-1.423 -0.302,-2.744 -0.905,-3.964c-0.604,-1.221 -1.481,-2.204 -2.633,-2.95c-1.151,-0.745 -2.553,-1.118 -4.205,-1.118c-1.67,0 -3.145,0.382 -4.425,1.146c-1.28,0.764 -2.281,1.818 -3.001,3.162c-0.72,1.345 -1.08,2.9 -1.08,4.667c-0,1.798 0.355,3.374 1.067,4.728c0.711,1.353 1.707,2.406 2.99,3.159c1.282,0.752 2.772,1.128 4.47,1.128c1.262,0 2.357,-0.157 3.286,-0.471c0.929,-0.314 1.699,-0.725 2.309,-1.232c0.61,-0.507 1.076,-1.046 1.397,-1.617c0.321,-0.572 0.51,-1.114 0.565,-1.628l2.553,0c-0.064,0.812 -0.327,1.644 -0.788,2.495c-0.461,0.851 -1.115,1.639 -1.962,2.364c-0.846,0.725 -1.89,1.311 -3.131,1.758c-1.241,0.448 -2.674,0.671 -4.298,0.671c-2.124,0 -4.008,-0.48 -5.65,-1.441c-1.643,-0.962 -2.936,-2.292 -3.879,-3.992c-0.942,-1.7 -1.414,-3.656 -1.414,-5.867c0,-2.23 0.474,-4.195 1.421,-5.895c0.948,-1.7 2.247,-3.033 3.899,-3.999c1.652,-0.965 3.533,-1.448 5.644,-1.448c2.142,-0 3.998,0.489 5.567,1.469c1.57,0.98 2.782,2.304 3.638,3.975c0.855,1.67 1.283,3.542 1.283,5.616c0,0.179 -0.004,0.408 -0.014,0.688c-0.009,0.28 -0.022,0.477 -0.041,0.592l-19.917,-0Z" style="fill:#fff;fill-rule:nonzero;"/><path d="M677.019,222.121l-7.591,21.927l-3.262,0l-7.749,-21.927l2.642,0l6.945,20.42l-0.413,0l6.786,-20.42l2.642,0Z" style="fill:#fff;fill-rule:nonzero;"/><path d="M691.052,244.427c-2.147,-0 -4.045,-0.495 -5.695,-1.483c-1.649,-0.989 -2.942,-2.341 -3.878,-4.057c-0.936,-1.716 -1.404,-3.66 -1.404,-5.83c0,-2.174 0.468,-4.107 1.404,-5.798c0.936,-1.691 2.229,-3.019 3.878,-3.985c1.65,-0.966 3.548,-1.448 5.695,-1.448c2.148,-0 4.046,0.482 5.696,1.448c1.649,0.966 2.942,2.294 3.878,3.985c0.936,1.691 1.404,3.624 1.404,5.798c-0,2.17 -0.468,4.114 -1.404,5.83c-0.936,1.716 -2.229,3.068 -3.878,4.057c-1.65,0.988 -3.548,1.483 -5.696,1.483Zm0,-2.34c1.648,-0 3.102,-0.386 4.364,-1.156c1.262,-0.771 2.251,-1.837 2.969,-3.197c0.718,-1.361 1.077,-2.919 1.077,-4.677c0,-1.757 -0.359,-3.304 -1.077,-4.642c-0.718,-1.337 -1.707,-2.38 -2.969,-3.128c-1.262,-0.748 -2.716,-1.122 -4.364,-1.122c-1.638,0 -3.09,0.374 -4.356,1.122c-1.266,0.748 -2.259,1.791 -2.977,3.128c-0.718,1.338 -1.077,2.885 -1.077,4.642c0,1.758 0.359,3.316 1.077,4.677c0.718,1.36 1.711,2.426 2.977,3.197c1.266,0.77 2.718,1.156 4.356,1.156Z" style="fill:#fff;fill-rule:nonzero;"/><path d="M723.915,244.048l0,-13.689c0,-1.22 -0.217,-2.29 -0.65,-3.21c-0.434,-0.92 -1.098,-1.636 -1.993,-2.147c-0.894,-0.512 -2.044,-0.768 -3.448,-0.768c-1.229,0 -2.389,0.306 -3.479,0.916c-1.089,0.61 -1.969,1.437 -2.639,2.481c-0.67,1.044 -1.005,2.222 -1.005,3.534l-1.535,-0.585c0,-1.666 0.431,-3.159 1.291,-4.481c0.86,-1.321 1.987,-2.366 3.379,-3.134c1.393,-0.769 2.876,-1.153 4.449,-1.153c1.661,-0 3.104,0.312 4.33,0.936c1.225,0.624 2.172,1.525 2.842,2.704c0.67,1.18 1.005,2.609 1.005,4.288l-0,14.308l-2.547,0Zm-15.76,0l-0,-21.927l2.546,0l0,21.927l-2.546,0Z" style="fill:#fff;fill-rule:nonzero;"/><path d="M751.637,244.427c-1.578,-0 -2.878,-0.278 -3.899,-0.833c-1.021,-0.555 -1.82,-1.27 -2.399,-2.144c-0.578,-0.874 -0.98,-1.811 -1.207,-2.811c-0.227,-1 -0.341,-1.943 -0.341,-2.829l-0,-13.689l2.567,0l0,13.125c0,1.179 0.172,2.288 0.516,3.327c0.345,1.04 0.936,1.883 1.776,2.53c0.84,0.646 1.987,0.97 3.441,0.97c1.354,-0 2.548,-0.373 3.582,-1.118c1.035,-0.746 1.846,-1.693 2.433,-2.843c0.587,-1.149 0.881,-2.327 0.881,-3.534l1.562,0.64c0,1.097 -0.203,2.187 -0.609,3.269c-0.406,1.083 -0.992,2.074 -1.758,2.973c-0.766,0.9 -1.701,1.619 -2.805,2.158c-1.103,0.539 -2.35,0.809 -3.74,0.809Zm7.35,-0.379l0,-21.927l2.553,0l0,21.927l-2.553,0Z" style="fill:#fff;fill-rule:nonzero;"/><path d="M784.328,244.048l-0,-13.689c-0,-1.22 -0.217,-2.29 -0.651,-3.21c-0.433,-0.92 -1.097,-1.636 -1.992,-2.147c-0.895,-0.512 -2.044,-0.768 -3.448,-0.768c-1.23,0 -2.39,0.306 -3.479,0.916c-1.09,0.61 -1.97,1.437 -2.64,2.481c-0.669,1.044 -1.004,2.222 -1.004,3.534l-1.535,-0.585c-0,-1.666 0.43,-3.159 1.29,-4.481c0.86,-1.321 1.987,-2.366 3.379,-3.134c1.393,-0.769 2.876,-1.153 4.45,-1.153c1.661,-0 3.104,0.312 4.329,0.936c1.225,0.624 2.172,1.525 2.842,2.704c0.67,1.18 1.005,2.609 1.005,4.288l-0,14.308l-2.546,0Zm-15.761,0l0,-21.927l2.547,0l-0,21.927l-2.547,0Z" style="fill:#fff;fill-rule:nonzero;"/><path d="M800.928,244.385c-0.62,0 -1.221,-0.078 -1.804,-0.234c-0.582,-0.155 -1.103,-0.427 -1.562,-0.815c-0.459,-0.388 -0.821,-0.926 -1.087,-1.614c-0.266,-0.688 -0.399,-1.565 -0.399,-2.629l-0,-14.714l-5.272,-0l-0,-2.258l3.785,0c0.362,0 0.646,-0.012 0.85,-0.038c0.204,-0.025 0.351,-0.092 0.441,-0.203c0.089,-0.11 0.144,-0.282 0.165,-0.516c0.02,-0.234 0.031,-0.562 0.031,-0.984l-0,-5.334l2.567,0l-0,7.075l7.02,0l-0,2.258l-7.02,-0l-0,13.778c-0,1.248 0.181,2.221 0.543,2.918c0.363,0.698 1.053,1.046 2.072,1.046c0.39,0 0.772,-0.033 1.146,-0.1c0.374,-0.066 0.652,-0.143 0.836,-0.23l0,2.237c-0.225,0.096 -0.545,0.18 -0.96,0.251c-0.415,0.071 -0.866,0.106 -1.352,0.106Z" style="fill:#fff;fill-rule:nonzero;"/><path d="M811.175,234.152l0,-2.285l17.756,-0l-0.502,0.702l0,-0.413c0,-1.423 -0.302,-2.744 -0.905,-3.964c-0.603,-1.221 -1.481,-2.204 -2.632,-2.95c-1.152,-0.745 -2.554,-1.118 -4.205,-1.118c-1.671,0 -3.146,0.382 -4.426,1.146c-1.28,0.764 -2.28,1.818 -3,3.162c-0.721,1.345 -1.081,2.9 -1.081,4.667c0,1.798 0.356,3.374 1.067,4.728c0.711,1.353 1.708,2.406 2.99,3.159c1.282,0.752 2.772,1.128 4.47,1.128c1.262,0 2.357,-0.157 3.286,-0.471c0.929,-0.314 1.699,-0.725 2.309,-1.232c0.611,-0.507 1.076,-1.046 1.398,-1.617c0.321,-0.572 0.509,-1.114 0.564,-1.628l2.553,0c-0.064,0.812 -0.327,1.644 -0.788,2.495c-0.461,0.851 -1.115,1.639 -1.961,2.364c-0.847,0.725 -1.891,1.311 -3.132,1.758c-1.241,0.448 -2.674,0.671 -4.298,0.671c-2.124,0 -4.007,-0.48 -5.65,-1.441c-1.643,-0.962 -2.935,-2.292 -3.878,-3.992c-0.943,-1.7 -1.415,-3.656 -1.415,-5.867c0,-2.23 0.474,-4.195 1.422,-5.895c0.947,-1.7 2.247,-3.033 3.899,-3.999c1.651,-0.965 3.532,-1.448 5.643,-1.448c2.143,-0 3.999,0.489 5.568,1.469c1.569,0.98 2.781,2.304 3.637,3.975c0.856,1.67 1.283,3.542 1.283,5.616c0,0.179 -0.004,0.408 -0.013,0.688c-0.009,0.28 -0.023,0.477 -0.041,0.592l-19.918,-0Z" style="fill:#fff;fill-rule:nonzero;"/><path d="M853.143,244.048l0,-13.689c0,-1.22 -0.217,-2.29 -0.65,-3.21c-0.434,-0.92 -1.098,-1.636 -1.993,-2.147c-0.894,-0.512 -2.044,-0.768 -3.448,-0.768c-1.229,0 -2.389,0.306 -3.479,0.916c-1.089,0.61 -1.969,1.437 -2.639,2.481c-0.67,1.044 -1.005,2.222 -1.005,3.534l-1.535,-0.585c0,-1.666 0.431,-3.159 1.291,-4.481c0.86,-1.321 1.987,-2.366 3.379,-3.134c1.393,-0.769 2.876,-1.153 4.449,-1.153c1.661,-0 3.104,0.312 4.33,0.936c1.225,0.624 2.172,1.525 2.842,2.704c0.67,1.18 1.005,2.609 1.005,4.288l-0,14.308l-2.547,0Zm-15.76,0l-0,-21.927l2.546,0l0,21.927l-2.546,0Z" style="fill:#fff;fill-rule:nonzero;"/></svg>