<?xml version="1.0" encoding="UTF-8" standalone="no"?><!DOCTYPE svg PUBLIC "-//W3C//DTD SVG 1.1//EN" "http://www.w3.org/Graphics/SVG/1.1/DTD/svg11.dtd"><svg width="100%" height="100%" viewBox="0 0 1146 312" version="1.1" xmlns="http://www.w3.org/2000/svg" xmlns:xlink="http://www.w3.org/1999/xlink" xml:space="preserve" xmlns:serif="http://www.serif.com/" style="fill-rule:evenodd;clip-rule:evenodd;stroke-linejoin:round;stroke-miterlimit:2;"><rect id="freieslastenrad---quer---mit-unterzeile" serif:id="freieslastenrad - quer - mit unterzeile" x="0.1" y="0.039" width="1145.53" height="311.811" style="fill:none;"/><path d="M343.748,185.299l14.375,-0l0,-31.982l11.186,-0l-0,-10.903l-11.186,-0l0,-1.737c0,-4.765 1.777,-7.834 7.673,-7.834c1.898,0 3.796,0.404 4.442,0.606l-0,-10.984c-0.646,-0.282 -2.262,-0.848 -6.098,-0.848c-7.955,0 -20.392,2.988 -20.392,18.697l-0,2.1l-8.763,-0l-0,10.903l8.763,-0l-0,31.982Z" style="fill-rule:nonzero;"/><path d="M375.205,185.299l14.416,-0l-0,-19.182c-0,-5.774 2.867,-11.952 11.387,-11.952c2.504,-0 4.24,0.767 4.725,1.05l2.14,-12.721c-0.485,-0.242 -2.302,-0.928 -5.775,-0.928c-5.693,-0 -9.893,2.544 -12.477,6.743l-0,-5.895l-14.416,-0l-0,42.885Z" style="fill-rule:nonzero;"/><path d="M455.927,171.73l-14.214,0c-0.243,1.818 -2.544,3.998 -8.521,3.998c-5.694,0 -8.924,-2.786 -10.014,-7.753l33.193,0c0.081,-0.646 0.161,-1.938 0.161,-3.392c0,-13.972 -9.166,-23.017 -23.946,-23.017c-14.335,-0 -24.067,8.964 -24.067,22.371c0,13.164 9.369,22.371 24.067,22.371c14.295,0 22.573,-7.107 23.341,-14.578Zm-23.139,-19.746c6.017,0 8.763,3.554 9.126,6.986l-18.575,-0c1.252,-4.482 4.482,-6.986 9.449,-6.986Z" style="fill-rule:nonzero;"/><path d="M469.656,136.397c4.321,-0 8.117,-2.302 8.117,-6.502c0,-4.199 -3.796,-6.501 -8.117,-6.501c-4.361,0 -8.116,2.302 -8.116,6.501c-0,4.16 3.755,6.502 8.116,6.502Zm-7.107,48.902l14.255,-0l-0,-42.885l-14.255,-0l0,42.885Z" style="fill-rule:nonzero;"/><path d="M530.188,171.73l-14.214,0c-0.243,1.818 -2.544,3.998 -8.521,3.998c-5.693,0 -8.924,-2.786 -10.014,-7.753l33.193,0c0.081,-0.646 0.162,-1.938 0.162,-3.392c-0,-13.972 -9.167,-23.017 -23.946,-23.017c-14.336,-0 -24.068,8.964 -24.068,22.371c0,13.164 9.369,22.371 24.068,22.371c14.295,0 22.573,-7.107 23.34,-14.578Zm-23.139,-19.746c6.017,0 8.763,3.554 9.127,6.986l-18.576,-0c1.252,-4.482 4.483,-6.986 9.449,-6.986Z" style="fill-rule:nonzero;"/><path d="M555.911,186.308c9.853,0 20.554,-3.836 20.554,-14.174c-0,-9.732 -10.903,-12.154 -17.566,-13.204c-5.088,-0.808 -8.763,-1.696 -8.763,-3.837c0,-2.342 3.513,-2.988 5.856,-2.988c2.705,0 5.734,1.171 5.734,3.877l-0,0.444l14.133,-0l0,-0.485c0,-8.884 -9.489,-14.375 -19.787,-14.375c-10.862,-0 -20.029,4.724 -20.029,13.81c0,8.884 9.813,11.953 17.405,13.164c6.501,1.05 9.085,1.656 9.085,3.998c0,2.261 -3.513,3.109 -6.218,3.109c-4.039,0 -6.542,-1.09 -6.542,-3.795l-0,-0.485l-14.295,0l-0,0.565c-0,9.651 10.297,14.376 20.433,14.376Z" style="fill-rule:nonzero;"/><rect x="604.126" y="122.183" width="14.174" height="63.116" style="fill-rule:nonzero;"/><path d="M641.802,186.227c5.895,0 11.387,-1.938 14.699,-5.37c0.08,0.363 0.201,0.686 0.323,1.05c0.565,1.615 1.575,2.947 2.019,3.392l14.093,-0c-0.525,-0.485 -1.575,-1.898 -2.181,-3.837c-0.525,-1.736 -0.525,-3.917 -0.525,-6.218l0,-17.607c0,-10.943 -10.418,-16.071 -21.967,-16.071c-12.316,-0 -21.927,5.653 -21.927,16.233l14.214,-0c-0,-3.634 2.544,-5.452 7.592,-5.452c4.724,0 7.632,1.777 7.632,4.362l-0,0.08c-0,1.656 -2.706,2.06 -11.751,2.908c-9.409,0.888 -18.333,4.603 -18.333,13.891c-0,8.076 6.784,12.639 16.112,12.639Zm4.119,-10.458c-3.756,-0 -5.775,-1.171 -5.775,-3.554c0,-2.463 2.221,-3.352 6.825,-3.836c2.947,-0.283 6.138,-0.767 8.964,-1.454c-0.565,6.421 -5.37,8.844 -10.014,8.844Z" style="fill-rule:nonzero;"/><path d="M696.922,186.308c9.853,0 20.554,-3.836 20.554,-14.174c0,-9.732 -10.903,-12.154 -17.566,-13.204c-5.088,-0.808 -8.762,-1.696 -8.762,-3.837c-0,-2.342 3.513,-2.988 5.855,-2.988c2.706,0 5.734,1.171 5.734,3.877l0,0.444l14.134,-0l-0,-0.485c-0,-8.884 -9.49,-14.375 -19.787,-14.375c-10.863,-0 -20.029,4.724 -20.029,13.81c-0,8.884 9.812,11.953 17.404,13.164c6.501,1.05 9.086,1.656 9.086,3.998c-0,2.261 -3.513,3.109 -6.219,3.109c-4.038,0 -6.542,-1.09 -6.542,-3.795l0,-0.485l-14.295,0l0,0.565c0,9.651 10.298,14.376 20.433,14.376Z" style="fill-rule:nonzero;"/><path d="M746.632,186.268c2.947,-0 5.209,-0.566 6.38,-1.05l-0,-10.58c-0.808,0.323 -2.665,0.808 -4.523,0.808c-3.392,-0 -3.755,-2.504 -3.755,-5.937l-0,-16.192l12.114,-0l0,-10.903l-12.114,-0l-0,-14.093l-14.457,-0l0,3.957c0,9.651 -0.767,10.136 -8.238,10.136l-1.494,-0l0,10.903l9.732,-0l0,20.069c0,11.428 9.369,12.882 16.355,12.882Z" style="fill-rule:nonzero;"/><path d="M808.375,171.73l-14.215,0c-0.242,1.818 -2.544,3.998 -8.52,3.998c-5.694,0 -8.924,-2.786 -10.015,-7.753l33.194,0c0.081,-0.646 0.161,-1.938 0.161,-3.392c0,-13.972 -9.166,-23.017 -23.946,-23.017c-14.335,-0 -24.067,8.964 -24.067,22.371c-0,13.164 9.368,22.371 24.067,22.371c14.295,0 22.573,-7.107 23.341,-14.578Zm-23.139,-19.746c6.017,0 8.763,3.554 9.126,6.986l-18.575,-0c1.252,-4.482 4.482,-6.986 9.449,-6.986Z" style="fill-rule:nonzero;"/><path d="M815.805,185.299l14.376,-0l-0,-21.968c-0,-5.896 2.786,-9.691 8.278,-9.691c6.259,-0 7.349,4.442 7.349,9.287l0,22.372l14.376,-0l-0,-26.571c-0,-10.136 -4.402,-17.162 -15.143,-17.162c-6.219,-0 -11.59,2.786 -14.86,7.511l-0,-6.663l-14.376,-0l-0,42.885Z" style="fill-rule:nonzero;"/><path d="M868.745,185.299l14.416,-0l-0,-19.182c-0,-5.774 2.867,-11.952 11.387,-11.952c2.504,-0 4.24,0.767 4.725,1.05l2.14,-12.721c-0.484,-0.242 -2.302,-0.928 -5.774,-0.928c-5.694,-0 -9.894,2.544 -12.478,6.743l-0,-5.895l-14.416,-0l-0,42.885Z" style="fill-rule:nonzero;"/><path d="M920.19,186.227c5.896,0 11.388,-1.938 14.699,-5.37c0.081,0.363 0.202,0.686 0.323,1.05c0.566,1.615 1.575,2.947 2.019,3.392l14.093,-0c-0.525,-0.485 -1.574,-1.898 -2.18,-3.837c-0.525,-1.736 -0.525,-3.917 -0.525,-6.218l-0,-17.607c-0,-10.943 -10.419,-16.071 -21.968,-16.071c-12.316,-0 -21.927,5.653 -21.927,16.233l14.215,-0c-0,-3.634 2.544,-5.452 7.591,-5.452c4.725,0 7.632,1.777 7.632,4.362l0,0.08c0,1.656 -2.705,2.06 -11.751,2.908c-9.408,0.888 -18.333,4.603 -18.333,13.891c0,8.076 6.784,12.639 16.112,12.639Zm4.119,-10.458c-3.755,-0 -5.774,-1.171 -5.774,-3.554c-0,-2.463 2.221,-3.352 6.824,-3.836c2.948,-0.283 6.138,-0.767 8.965,-1.454c-0.565,6.421 -5.371,8.844 -10.015,8.844Z" style="fill-rule:nonzero;"/><path d="M974.988,186.308c5.088,0 9.611,-2.261 12.962,-5.896l0,4.887l14.416,-0l0,-63.116l-14.416,-0l0,24.996c-3.351,-3.514 -7.915,-5.613 -12.962,-5.613c-10.378,-0 -20.11,7.874 -20.11,22.048c-0,14.901 9.368,22.694 20.11,22.694Zm3.917,-12.276c-4.765,0 -9.167,-3.19 -9.167,-10.418c0,-7.188 4.402,-10.217 9.167,-10.217c4.442,0 9.045,3.15 9.045,8.844l0,2.705c0,5.735 -4.482,9.086 -9.045,9.086Z" style="fill-rule:nonzero;"/><g><path d="M126.605,156.985c0,-17.798 -14.428,-32.226 -32.226,-32.226c-17.797,-0 -32.225,14.428 -32.225,32.226c-0,17.798 14.428,32.227 32.225,32.227c17.798,-0 32.226,-14.429 32.226,-32.227" style="fill:#e2341d;"/><path d="M177.276,137.066c7.156,-12.948 21.47,-12.948 28.627,-6.474c7.157,6.474 7.157,19.423 -0,32.372c-5.01,9.712 -17.892,19.424 -28.627,25.898c-10.736,-6.474 -23.618,-16.186 -28.628,-25.898c-7.156,-12.949 -7.156,-25.898 0,-32.372c7.157,-6.474 21.471,-6.474 28.628,6.474Z" style="fill:#fdc50f;"/><path d="M297.684,123.356l-8.999,17.653c-0.357,0.702 -0.01,1.556 0.736,1.809l12.154,4.117c0.984,0.334 1.19,1.637 0.357,2.258l-10.29,7.682c-0.632,0.469 -0.697,1.391 -0.141,1.947l14.003,14.003c0.885,0.885 0.12,2.383 -1.114,2.188l-19.567,-3.092c-0.777,-0.123 -1.483,0.471 -1.494,1.258l-0.168,12.839c-0.013,1.038 -1.188,1.636 -2.037,1.037l-10.478,-7.409c-0.641,-0.455 -1.538,-0.234 -1.896,0.468l-8.998,17.654c-0.569,1.114 -2.231,0.849 -2.426,-0.386l-3.092,-19.562c-0.123,-0.777 -0.907,-1.266 -1.659,-1.032l-12.258,3.815c-0.993,0.309 -1.926,-0.624 -1.617,-1.617l3.814,-12.257c0.234,-0.752 -0.253,-1.537 -1.03,-1.659l-19.563,-3.093c-1.236,-0.194 -1.5,-1.857 -0.386,-2.425l17.656,-9c0.7,-0.357 0.921,-1.253 0.466,-1.896l-7.407,-10.477c-0.601,-0.85 -0.003,-2.024 1.037,-2.037l12.838,-0.168c0.785,-0.01 1.38,-0.717 1.258,-1.494l-3.093,-19.566c-0.195,-1.236 1.305,-1.999 2.188,-1.114l14.003,14.002c0.558,0.558 1.478,0.49 1.949,-0.14l7.679,-10.291c0.624,-0.834 1.925,-0.627 2.258,0.359l4.117,12.152c0.254,0.745 1.109,1.093 1.811,0.736l17.651,-8.997c1.116,-0.569 2.305,0.622 1.738,1.735" style="fill:#61b22b;"/></g><path d="M343.501,244.26l-8.534,-30.653l2.795,-0l7.673,28.616l-0.227,0l7.584,-28.616l2.808,-0l-8.437,30.653l-3.662,0Z" style="fill:#1c1c1b;fill-rule:nonzero;"/><path d="M360.273,234.164l0,-2.285l17.757,0l-0.503,0.702l0,-0.413c0,-1.422 -0.301,-2.743 -0.905,-3.964c-0.603,-1.22 -1.481,-2.203 -2.632,-2.949c-1.152,-0.746 -2.554,-1.118 -4.205,-1.118c-1.671,-0 -3.146,0.382 -4.426,1.146c-1.28,0.763 -2.28,1.818 -3,3.162c-0.721,1.344 -1.081,2.9 -1.081,4.666c0,1.799 0.356,3.375 1.067,4.728c0.711,1.354 1.708,2.407 2.99,3.159c1.282,0.753 2.773,1.129 4.47,1.129c1.262,-0 2.357,-0.157 3.286,-0.472c0.929,-0.314 1.699,-0.724 2.309,-1.231c0.611,-0.507 1.076,-1.047 1.398,-1.618c0.321,-0.571 0.509,-1.114 0.564,-1.627l2.553,-0c-0.064,0.812 -0.327,1.643 -0.788,2.494c-0.461,0.851 -1.115,1.639 -1.961,2.364c-0.847,0.725 -1.89,1.312 -3.132,1.759c-1.241,0.447 -2.674,0.671 -4.298,0.671c-2.124,-0 -4.007,-0.481 -5.65,-1.442c-1.643,-0.961 -2.935,-2.292 -3.878,-3.992c-0.943,-1.7 -1.414,-3.655 -1.414,-5.867c-0,-2.23 0.473,-4.195 1.421,-5.895c0.947,-1.699 2.247,-3.032 3.899,-3.998c1.651,-0.966 3.532,-1.449 5.643,-1.449c2.143,0 3.999,0.49 5.568,1.47c1.569,0.979 2.781,2.304 3.637,3.974c0.856,1.67 1.283,3.542 1.283,5.616c0,0.179 -0.004,0.408 -0.013,0.688c-0.009,0.28 -0.023,0.477 -0.041,0.592l-19.918,0Z" style="fill:#1c1c1b;fill-rule:nonzero;"/><path d="M386.481,244.061l-0,-21.927l2.546,-0l0,6.456l-0.901,-0.276c0.087,-0.688 0.29,-1.41 0.609,-2.164c0.319,-0.755 0.767,-1.46 1.345,-2.117c0.579,-0.656 1.307,-1.188 2.185,-1.596c0.879,-0.409 1.922,-0.613 3.128,-0.613c0.877,0 1.585,0.076 2.124,0.227c0.539,0.152 0.877,0.271 1.015,0.358l-0.702,2.478c-0.138,-0.096 -0.419,-0.22 -0.843,-0.372c-0.425,-0.151 -1.038,-0.227 -1.841,-0.227c-1.157,0 -2.127,0.223 -2.912,0.668c-0.784,0.445 -1.412,1.024 -1.882,1.737c-0.47,0.714 -0.808,1.476 -1.015,2.285c-0.206,0.81 -0.31,1.584 -0.31,2.323l0,12.76l-2.546,-0Z" style="fill:#1c1c1b;fill-rule:nonzero;"/><path d="M403.101,244.061l0,-32.271l2.437,-0l-0,20.213l-0.736,-0.316l11.389,-9.553l3.325,-0l-10.668,9.14l0.627,-1.356l10.22,14.143l-2.794,-0l-9.14,-12.76l0.661,0.365l-3.311,2.794l0.427,-1.28l-0,10.881l-2.437,-0Z" style="fill:#1c1c1b;fill-rule:nonzero;"/><path d="M423.783,234.164l-0,-2.285l17.756,0l-0.502,0.702l-0,-0.413c-0,-1.422 -0.302,-2.743 -0.905,-3.964c-0.604,-1.22 -1.481,-2.203 -2.633,-2.949c-1.152,-0.746 -2.553,-1.118 -4.205,-1.118c-1.67,-0 -3.145,0.382 -4.425,1.146c-1.281,0.763 -2.281,1.818 -3.001,3.162c-0.72,1.344 -1.08,2.9 -1.08,4.666c-0,1.799 0.355,3.375 1.066,4.728c0.711,1.354 1.708,2.407 2.991,3.159c1.282,0.753 2.772,1.129 4.47,1.129c1.261,-0 2.357,-0.157 3.286,-0.472c0.929,-0.314 1.699,-0.724 2.309,-1.231c0.61,-0.507 1.076,-1.047 1.397,-1.618c0.321,-0.571 0.509,-1.114 0.564,-1.627l2.554,-0c-0.065,0.812 -0.327,1.643 -0.788,2.494c-0.461,0.851 -1.115,1.639 -1.962,2.364c-0.846,0.725 -1.89,1.312 -3.131,1.759c-1.241,0.447 -2.674,0.671 -4.298,0.671c-2.125,-0 -4.008,-0.481 -5.651,-1.442c-1.642,-0.961 -2.935,-2.292 -3.878,-3.992c-0.943,-1.7 -1.414,-3.655 -1.414,-5.867c-0,-2.23 0.474,-4.195 1.421,-5.895c0.948,-1.699 2.247,-3.032 3.899,-3.998c1.652,-0.966 3.533,-1.449 5.643,-1.449c2.143,0 3.999,0.49 5.568,1.47c1.569,0.979 2.782,2.304 3.637,3.974c0.856,1.67 1.284,3.542 1.284,5.616c-0,0.179 -0.005,0.408 -0.014,0.688c-0.009,0.28 -0.023,0.477 -0.041,0.592l-19.917,0Z" style="fill:#1c1c1b;fill-rule:nonzero;"/><path d="M465.778,244.061l0,-12.842c0,-2.249 -0.498,-3.973 -1.493,-5.172c-0.996,-1.2 -2.528,-1.8 -4.598,-1.8c-1.39,-0 -2.623,0.288 -3.699,0.864c-1.076,0.575 -1.92,1.343 -2.532,2.302c-0.613,0.958 -0.919,2.014 -0.919,3.165l-1.693,-0.495c-0,-1.477 0.397,-2.842 1.19,-4.095c0.794,-1.252 1.891,-2.26 3.29,-3.021c1.399,-0.762 2.998,-1.143 4.797,-1.143c2.615,0 4.636,0.793 6.063,2.378c1.427,1.585 2.141,3.775 2.141,6.569l-0,13.29l-2.547,-0Zm-15.788,-0l0,-32.271l2.547,-0l-0,32.271l-2.547,-0Z" style="fill:#1c1c1b;fill-rule:nonzero;"/><path d="M475.324,244.061l-0,-21.927l2.546,-0l0,6.456l-0.901,-0.276c0.087,-0.688 0.29,-1.41 0.609,-2.164c0.319,-0.755 0.767,-1.46 1.345,-2.117c0.579,-0.656 1.307,-1.188 2.185,-1.596c0.879,-0.409 1.922,-0.613 3.128,-0.613c0.877,0 1.585,0.076 2.124,0.227c0.539,0.152 0.877,0.271 1.015,0.358l-0.702,2.478c-0.138,-0.096 -0.419,-0.22 -0.843,-0.372c-0.425,-0.151 -1.039,-0.227 -1.841,-0.227c-1.157,0 -2.127,0.223 -2.912,0.668c-0.784,0.445 -1.412,1.024 -1.882,1.737c-0.47,0.714 -0.808,1.476 -1.015,2.285c-0.206,0.81 -0.31,1.584 -0.31,2.323l0,12.76l-2.546,-0Z" style="fill:#1c1c1b;fill-rule:nonzero;"/><path d="M499.474,244.453c-1.326,0 -2.532,-0.138 -3.617,-0.413c-1.085,-0.275 -2.02,-0.677 -2.804,-1.204c-0.785,-0.528 -1.393,-1.176 -1.824,-1.944c-0.432,-0.769 -0.659,-1.646 -0.681,-2.633c-0.005,-0.124 -0.008,-0.633 -0.008,-0.729l2.568,-0c-0,0.096 0.002,0.49 0.006,0.619c0.037,1.275 0.618,2.26 1.742,2.952c1.124,0.693 2.677,1.04 4.659,1.04c1.262,-0 2.373,-0.143 3.334,-0.427c0.962,-0.284 1.715,-0.704 2.261,-1.259c0.546,-0.556 0.819,-1.235 0.819,-2.038c0,-1.33 -0.574,-2.281 -1.724,-2.852c-1.149,-0.572 -2.839,-1.048 -5.068,-1.429c-1.148,-0.201 -2.221,-0.455 -3.221,-0.76c-1.001,-0.305 -1.876,-0.697 -2.626,-1.177c-0.75,-0.479 -1.337,-1.076 -1.762,-1.789c-0.424,-0.714 -0.637,-1.573 -0.637,-2.578c0,-1.284 0.386,-2.373 1.157,-3.265c0.77,-0.893 1.805,-1.573 3.104,-2.041c1.298,-0.468 2.732,-0.702 4.301,-0.702c1.555,0 2.984,0.237 4.284,0.709c1.301,0.473 2.344,1.179 3.128,2.12c0.785,0.94 1.177,2.124 1.177,3.551l0,0.448l-2.553,-0l-0,-0.372c-0,-0.996 -0.282,-1.798 -0.847,-2.406c-0.564,-0.608 -1.301,-1.051 -2.209,-1.331c-0.909,-0.28 -1.883,-0.42 -2.925,-0.42c-1.018,-0 -1.993,0.123 -2.925,0.368c-0.931,0.246 -1.692,0.633 -2.281,1.163c-0.59,0.53 -0.885,1.226 -0.885,2.089c0,0.872 0.277,1.573 0.83,2.102c0.553,0.53 1.33,0.956 2.333,1.277c1.002,0.321 2.176,0.606 3.52,0.854c1.216,0.22 2.333,0.486 3.352,0.798c1.018,0.312 1.9,0.703 2.646,1.173c0.745,0.471 1.325,1.059 1.738,1.766c0.413,0.706 0.619,1.567 0.619,2.581c0,1.009 -0.228,1.896 -0.685,2.659c-0.456,0.764 -1.093,1.407 -1.91,1.928c-0.816,0.52 -1.768,0.913 -2.856,1.176c-1.087,0.264 -2.264,0.396 -3.53,0.396Z" style="fill:#1c1c1b;fill-rule:nonzero;"/><path d="M531.538,244.061l-6.373,-21.927l2.299,-0l6.077,20.681l-0.482,0l4.267,-20.681l2.664,-0l-4.942,21.927l-3.51,-0Zm-14.453,-0l-4.989,-21.927l2.663,-0l4.315,20.681l-0.481,0l6.015,-20.681l2.298,-0l-6.297,21.927l-3.524,-0Z" style="fill:#1c1c1b;fill-rule:nonzero;"/><path d="M545.846,234.164l0,-2.285l17.757,0l-0.503,0.702l0,-0.413c0,-1.422 -0.301,-2.743 -0.905,-3.964c-0.603,-1.22 -1.481,-2.203 -2.632,-2.949c-1.152,-0.746 -2.554,-1.118 -4.205,-1.118c-1.671,-0 -3.146,0.382 -4.426,1.146c-1.28,0.763 -2.28,1.818 -3,3.162c-0.721,1.344 -1.081,2.9 -1.081,4.666c0,1.799 0.356,3.375 1.067,4.728c0.711,1.354 1.708,2.407 2.99,3.159c1.282,0.753 2.773,1.129 4.47,1.129c1.262,-0 2.357,-0.157 3.286,-0.472c0.929,-0.314 1.699,-0.724 2.309,-1.231c0.611,-0.507 1.076,-1.047 1.398,-1.618c0.321,-0.571 0.509,-1.114 0.564,-1.627l2.553,-0c-0.064,0.812 -0.327,1.643 -0.788,2.494c-0.461,0.851 -1.115,1.639 -1.961,2.364c-0.847,0.725 -1.89,1.312 -3.132,1.759c-1.241,0.447 -2.674,0.671 -4.298,0.671c-2.124,-0 -4.007,-0.481 -5.65,-1.442c-1.643,-0.961 -2.935,-2.292 -3.878,-3.992c-0.943,-1.7 -1.414,-3.655 -1.414,-5.867c-0,-2.23 0.473,-4.195 1.421,-5.895c0.947,-1.699 2.247,-3.032 3.899,-3.998c1.651,-0.966 3.532,-1.449 5.643,-1.449c2.143,0 3.999,0.49 5.568,1.47c1.569,0.979 2.781,2.304 3.637,3.974c0.856,1.67 1.283,3.542 1.283,5.616c0,0.179 -0.004,0.408 -0.013,0.688c-0.009,0.28 -0.023,0.477 -0.041,0.592l-19.918,0Z" style="fill:#1c1c1b;fill-rule:nonzero;"/><path d="M587.814,244.061l0,-13.689c0,-1.221 -0.216,-2.291 -0.65,-3.211c-0.434,-0.919 -1.098,-1.635 -1.992,-2.147c-0.895,-0.511 -2.044,-0.767 -3.448,-0.767c-1.23,-0 -2.39,0.305 -3.48,0.915c-1.089,0.61 -1.969,1.437 -2.639,2.481c-0.67,1.044 -1.005,2.222 -1.005,3.534l-1.535,-0.585c0,-1.665 0.431,-3.159 1.291,-4.48c0.86,-1.321 1.987,-2.366 3.379,-3.135c1.393,-0.768 2.876,-1.153 4.45,-1.153c1.661,0 3.104,0.312 4.329,0.936c1.225,0.624 2.172,1.526 2.842,2.705c0.67,1.179 1.005,2.608 1.005,4.288l-0,14.308l-2.547,-0Zm-15.76,-0l-0,-21.927l2.546,-0l0,21.927l-2.546,-0Z" style="fill:#1c1c1b;fill-rule:nonzero;"/><path d="M605.956,244.453c-1.794,0 -3.416,-0.438 -4.866,-1.314c-1.45,-0.877 -2.598,-2.161 -3.445,-3.854c-0.846,-1.693 -1.269,-3.756 -1.269,-6.188c-0,-2.404 0.428,-4.446 1.283,-6.125c0.856,-1.679 2.009,-2.957 3.459,-3.833c1.449,-0.877 3.062,-1.315 4.838,-1.315c1.679,0 3.236,0.397 4.669,1.191c1.434,0.794 2.586,1.876 3.455,3.248c0.87,1.372 1.305,2.93 1.305,4.673l-0,0.289l-1.886,0.042l-0,-0.276c-0,-1.252 -0.335,-2.394 -1.005,-3.424c-0.67,-1.03 -1.553,-1.854 -2.65,-2.474c-1.096,-0.619 -2.282,-0.929 -3.558,-0.929c-2.129,0 -3.876,0.749 -5.241,2.247c-1.365,1.498 -2.047,3.727 -2.047,6.686c-0,2.95 0.685,5.179 2.054,6.686c1.37,1.508 3.114,2.261 5.234,2.261c1.303,0 2.501,-0.314 3.593,-0.943c1.092,-0.628 1.968,-1.472 2.629,-2.532c0.661,-1.06 0.991,-2.244 0.991,-3.551l1.886,0.041c-0,1.775 -0.427,3.373 -1.281,4.793c-0.853,1.42 -1.992,2.542 -3.417,3.366c-1.424,0.823 -3.001,1.235 -4.731,1.235Zm7.543,-0.392l-0,-32.271l2.567,-0l-0,32.271l-2.567,-0Z" style="fill:#1c1c1b;fill-rule:nonzero;"/><path d="M623.788,234.164l-0,-2.285l17.756,0l-0.502,0.702l-0,-0.413c-0,-1.422 -0.302,-2.743 -0.905,-3.964c-0.604,-1.22 -1.481,-2.203 -2.633,-2.949c-1.151,-0.746 -2.553,-1.118 -4.205,-1.118c-1.67,-0 -3.145,0.382 -4.425,1.146c-1.28,0.763 -2.281,1.818 -3.001,3.162c-0.72,1.344 -1.08,2.9 -1.08,4.666c-0,1.799 0.355,3.375 1.066,4.728c0.712,1.354 1.708,2.407 2.991,3.159c1.282,0.753 2.772,1.129 4.47,1.129c1.261,-0 2.357,-0.157 3.286,-0.472c0.929,-0.314 1.699,-0.724 2.309,-1.231c0.61,-0.507 1.076,-1.047 1.397,-1.618c0.321,-0.571 0.509,-1.114 0.565,-1.627l2.553,-0c-0.064,0.812 -0.327,1.643 -0.788,2.494c-0.461,0.851 -1.115,1.639 -1.962,2.364c-0.846,0.725 -1.89,1.312 -3.131,1.759c-1.241,0.447 -2.674,0.671 -4.298,0.671c-2.124,-0 -4.008,-0.481 -5.651,-1.442c-1.642,-0.961 -2.935,-2.292 -3.878,-3.992c-0.943,-1.7 -1.414,-3.655 -1.414,-5.867c-0,-2.23 0.474,-4.195 1.421,-5.895c0.948,-1.699 2.247,-3.032 3.899,-3.998c1.652,-0.966 3.533,-1.449 5.643,-1.449c2.143,0 3.999,0.49 5.568,1.47c1.569,0.979 2.782,2.304 3.637,3.974c0.856,1.67 1.284,3.542 1.284,5.616c-0,0.179 -0.005,0.408 -0.014,0.688c-0.009,0.28 -0.023,0.477 -0.041,0.592l-19.917,0Z" style="fill:#1c1c1b;fill-rule:nonzero;"/><path d="M676.939,222.134l-7.591,21.927l-3.262,-0l-7.749,-21.927l2.642,-0l6.945,20.42l-0.413,-0l6.786,-20.42l2.642,-0Z" style="fill:#1c1c1b;fill-rule:nonzero;"/><path d="M690.972,244.439c-2.147,0 -4.045,-0.494 -5.695,-1.483c-1.649,-0.988 -2.942,-2.341 -3.878,-4.057c-0.936,-1.716 -1.404,-3.659 -1.404,-5.829c0,-2.175 0.468,-4.108 1.404,-5.798c0.936,-1.691 2.229,-3.019 3.878,-3.985c1.65,-0.966 3.548,-1.449 5.695,-1.449c2.148,0 4.046,0.483 5.695,1.449c1.65,0.966 2.943,2.294 3.879,3.985c0.936,1.69 1.404,3.623 1.404,5.798c-0,2.17 -0.468,4.113 -1.404,5.829c-0.936,1.716 -2.229,3.069 -3.879,4.057c-1.649,0.989 -3.547,1.483 -5.695,1.483Zm0,-2.34c1.648,0 3.102,-0.385 4.364,-1.156c1.261,-0.771 2.251,-1.836 2.969,-3.197c0.718,-1.36 1.077,-2.919 1.077,-4.676c0,-1.757 -0.359,-3.305 -1.077,-4.642c-0.718,-1.338 -1.708,-2.38 -2.969,-3.128c-1.262,-0.748 -2.716,-1.122 -4.364,-1.122c-1.638,-0 -3.09,0.374 -4.356,1.122c-1.266,0.748 -2.259,1.79 -2.977,3.128c-0.718,1.337 -1.077,2.885 -1.077,4.642c0,1.757 0.359,3.316 1.077,4.676c0.718,1.361 1.711,2.426 2.977,3.197c1.266,0.771 2.718,1.156 4.356,1.156Z" style="fill:#1c1c1b;fill-rule:nonzero;"/><path d="M723.835,244.061l0,-13.689c0,-1.221 -0.217,-2.291 -0.65,-3.211c-0.434,-0.919 -1.098,-1.635 -1.993,-2.147c-0.894,-0.511 -2.044,-0.767 -3.448,-0.767c-1.229,-0 -2.389,0.305 -3.479,0.915c-1.089,0.61 -1.969,1.437 -2.639,2.481c-0.67,1.044 -1.005,2.222 -1.005,3.534l-1.535,-0.585c0,-1.665 0.43,-3.159 1.291,-4.48c0.86,-1.321 1.986,-2.366 3.379,-3.135c1.393,-0.768 2.876,-1.153 4.449,-1.153c1.661,0 3.104,0.312 4.329,0.936c1.225,0.624 2.173,1.526 2.843,2.705c0.67,1.179 1.004,2.608 1.004,4.288l0,14.308l-2.546,-0Zm-15.76,-0l-0,-21.927l2.546,-0l0,21.927l-2.546,-0Z" style="fill:#1c1c1b;fill-rule:nonzero;"/><path d="M751.557,244.439c-1.579,0 -2.878,-0.277 -3.899,-0.832c-1.021,-0.556 -1.82,-1.27 -2.399,-2.144c-0.578,-0.874 -0.98,-1.811 -1.207,-2.812c-0.228,-1 -0.341,-1.943 -0.341,-2.828l-0,-13.689l2.567,-0l0,13.124c0,1.18 0.172,2.289 0.516,3.328c0.344,1.039 0.936,1.882 1.776,2.529c0.84,0.647 1.987,0.97 3.441,0.97c1.354,0 2.548,-0.372 3.582,-1.118c1.035,-0.745 1.846,-1.693 2.433,-2.842c0.587,-1.149 0.881,-2.328 0.881,-3.534l1.562,0.64c0,1.096 -0.203,2.186 -0.609,3.269c-0.406,1.083 -0.992,2.074 -1.758,2.973c-0.766,0.899 -1.701,1.619 -2.805,2.158c-1.103,0.539 -2.35,0.808 -3.74,0.808Zm7.35,-0.378l-0,-21.927l2.553,-0l0,21.927l-2.553,-0Z" style="fill:#1c1c1b;fill-rule:nonzero;"/><path d="M784.248,244.061l-0,-13.689c-0,-1.221 -0.217,-2.291 -0.651,-3.211c-0.433,-0.919 -1.098,-1.635 -1.992,-2.147c-0.895,-0.511 -2.044,-0.767 -3.448,-0.767c-1.23,-0 -2.39,0.305 -3.479,0.915c-1.09,0.61 -1.97,1.437 -2.64,2.481c-0.669,1.044 -1.004,2.222 -1.004,3.534l-1.535,-0.585c-0,-1.665 0.43,-3.159 1.29,-4.48c0.86,-1.321 1.987,-2.366 3.379,-3.135c1.393,-0.768 2.876,-1.153 4.45,-1.153c1.661,0 3.104,0.312 4.329,0.936c1.225,0.624 2.172,1.526 2.842,2.705c0.67,1.179 1.005,2.608 1.005,4.288l-0,14.308l-2.546,-0Zm-15.761,-0l-0,-21.927l2.547,-0l-0,21.927l-2.547,-0Z" style="fill:#1c1c1b;fill-rule:nonzero;"/><path d="M800.848,244.398c-0.62,-0 -1.221,-0.078 -1.804,-0.234c-0.582,-0.156 -1.103,-0.428 -1.562,-0.816c-0.459,-0.387 -0.821,-0.925 -1.087,-1.614c-0.266,-0.688 -0.399,-1.564 -0.399,-2.628l-0,-14.715l-5.272,0l-0,-2.257l3.785,-0c0.362,-0 0.646,-0.013 0.85,-0.038c0.204,-0.025 0.351,-0.093 0.44,-0.203c0.09,-0.11 0.145,-0.282 0.166,-0.516c0.02,-0.234 0.031,-0.562 0.031,-0.984l-0,-5.334l2.567,-0l-0,7.075l7.019,-0l0,2.257l-7.019,0l-0,13.779c-0,1.248 0.181,2.22 0.543,2.918c0.363,0.697 1.053,1.046 2.072,1.046c0.39,-0 0.772,-0.033 1.146,-0.1c0.374,-0.067 0.652,-0.143 0.836,-0.23l-0,2.236c-0.225,0.096 -0.545,0.18 -0.96,0.251c-0.415,0.071 -0.866,0.107 -1.352,0.107Z" style="fill:#1c1c1b;fill-rule:nonzero;"/><path d="M811.095,234.164l0,-2.285l17.756,0l-0.502,0.702l0,-0.413c0,-1.422 -0.302,-2.743 -0.905,-3.964c-0.603,-1.22 -1.481,-2.203 -2.633,-2.949c-1.151,-0.746 -2.553,-1.118 -4.205,-1.118c-1.67,-0 -3.145,0.382 -4.425,1.146c-1.28,0.763 -2.28,1.818 -3.001,3.162c-0.72,1.344 -1.08,2.9 -1.08,4.666c0,1.799 0.356,3.375 1.067,4.728c0.711,1.354 1.708,2.407 2.99,3.159c1.282,0.753 2.772,1.129 4.47,1.129c1.262,-0 2.357,-0.157 3.286,-0.472c0.929,-0.314 1.699,-0.724 2.309,-1.231c0.611,-0.507 1.076,-1.047 1.397,-1.618c0.322,-0.571 0.51,-1.114 0.565,-1.627l2.553,-0c-0.064,0.812 -0.327,1.643 -0.788,2.494c-0.461,0.851 -1.115,1.639 -1.961,2.364c-0.847,0.725 -1.891,1.312 -3.132,1.759c-1.241,0.447 -2.674,0.671 -4.298,0.671c-2.124,-0 -4.008,-0.481 -5.65,-1.442c-1.643,-0.961 -2.936,-2.292 -3.878,-3.992c-0.943,-1.7 -1.415,-3.655 -1.415,-5.867c0,-2.23 0.474,-4.195 1.422,-5.895c0.947,-1.699 2.247,-3.032 3.898,-3.998c1.652,-0.966 3.533,-1.449 5.644,-1.449c2.142,0 3.998,0.49 5.568,1.47c1.569,0.979 2.781,2.304 3.637,3.974c0.855,1.67 1.283,3.542 1.283,5.616c0,0.179 -0.004,0.408 -0.013,0.688c-0.01,0.28 -0.023,0.477 -0.042,0.592l-19.917,0Z" style="fill:#1c1c1b;fill-rule:nonzero;"/><path d="M853.063,244.061l0,-13.689c0,-1.221 -0.217,-2.291 -0.65,-3.211c-0.434,-0.919 -1.098,-1.635 -1.993,-2.147c-0.894,-0.511 -2.044,-0.767 -3.448,-0.767c-1.229,-0 -2.389,0.305 -3.479,0.915c-1.089,0.61 -1.969,1.437 -2.639,2.481c-0.67,1.044 -1.005,2.222 -1.005,3.534l-1.535,-0.585c0,-1.665 0.43,-3.159 1.291,-4.48c0.86,-1.321 1.986,-2.366 3.379,-3.135c1.393,-0.768 2.876,-1.153 4.449,-1.153c1.661,0 3.104,0.312 4.329,0.936c1.225,0.624 2.173,1.526 2.843,2.705c0.67,1.179 1.005,2.608 1.005,4.288l-0,14.308l-2.547,-0Zm-15.76,-0l-0,-21.927l2.546,-0l0,21.927l-2.546,-0Z" style="fill:#1c1c1b;fill-rule:nonzero;"/></svg>