<?xml version="1.0" encoding="UTF-8" standalone="no"?><!DOCTYPE svg PUBLIC "-//W3C//DTD SVG 1.1//EN" "http://www.w3.org/Graphics/SVG/1.1/DTD/svg11.dtd"><svg width="100%" height="100%" viewBox="0 0 4774 1300" version="1.1" xmlns="http://www.w3.org/2000/svg" xmlns:xlink="http://www.w3.org/1999/xlink" xml:space="preserve" xmlns:serif="http://www.serif.com/" style="fill-rule:evenodd;clip-rule:evenodd;stroke-linejoin:round;stroke-miterlimit:2;"><rect id="freieslastenrad---quer---mit-unterzeile----negativ" serif:id="freieslastenrad - quer - mit unterzeile  - negativ" x="0.872" y="0.202" width="4773.05" height="1299.21" style="fill:none;"/><g transform="matrix(336.511,0,0,336.511,4194.82,772.115)"></g><text x="1392.69px" y="772.115px" style="font-family:'Epilogue-ExtraBold', 'Epilogue';font-weight:800;font-size:336.511px;fill:#fff;">fr<tspan x="1692.86px " y="772.115px ">e</tspan>ies las<tspan x="2999.2px 3161.39px " y="772.115px 772.115px ">te</tspan>nr<tspan x="3756.01px " y="772.115px ">a</tspan>d</text><g><path d="M527.979,654.143c-0,-74.159 -60.119,-134.277 -134.277,-134.277c-74.153,-0 -134.271,60.118 -134.271,134.277c-0,74.158 60.118,134.277 134.271,134.277c74.158,-0 134.277,-60.119 134.277,-134.277" style="fill:#e2341d;"/><path d="M739.105,571.148c29.82,-53.954 89.459,-53.954 119.279,-26.977c29.821,26.977 29.821,80.931 0,134.884c-20.874,40.466 -74.549,80.931 -119.279,107.908c-44.73,-26.977 -98.406,-67.442 -119.28,-107.908c-29.819,-53.953 -29.819,-107.907 0,-134.884c29.82,-26.977 89.46,-26.977 119.28,26.977Z" style="fill:#fdc50f;"/><path d="M1240.81,514.023l-37.494,73.552c-1.489,2.925 -0.04,6.484 3.065,7.539l50.642,17.154c4.1,1.389 4.961,6.818 1.489,9.409l-42.876,32.005c-2.631,1.956 -2.905,5.796 -0.588,8.113l58.348,58.348c3.686,3.686 0.501,9.929 -4.641,9.114l-81.532,-12.88c-3.238,-0.515 -6.176,1.963 -6.223,5.241l-0.701,53.494c-0.054,4.327 -4.948,6.817 -8.487,4.32l-43.658,-30.87c-2.671,-1.896 -6.41,-0.975 -7.899,1.95l-37.494,73.559c-2.371,4.641 -9.295,3.539 -10.11,-1.609l-12.881,-81.506c-0.514,-3.238 -3.779,-5.275 -6.911,-4.3l-51.076,15.892c-4.14,1.289 -8.026,-2.597 -6.737,-6.737l15.892,-51.069c0.975,-3.132 -1.055,-6.404 -4.293,-6.912l-81.512,-12.887c-5.149,-0.808 -6.25,-7.739 -1.61,-10.103l73.566,-37.501c2.918,-1.489 3.84,-5.222 1.943,-7.899l-30.863,-43.657c-2.504,-3.54 -0.013,-8.434 4.32,-8.488l53.493,-0.701c3.272,-0.04 5.75,-2.984 5.242,-6.223l-12.887,-81.525c-0.815,-5.149 5.435,-8.327 9.115,-4.641l58.347,58.341c2.324,2.324 6.157,2.043 8.12,-0.581l31.998,-42.883c2.598,-3.472 8.02,-2.611 9.409,1.496l17.154,50.635c1.055,3.105 4.621,4.554 7.546,3.065l73.546,-37.487c4.647,-2.371 9.602,2.591 7.238,7.232" style="fill:#61b22b;"/></g><g transform="matrix(172.056,0,0,172.056,3580.04,1016.96)"></g><text x="1388.38px" y="1016.96px" style="font-family:'EpilogueRoman-Light', 'Epilogue';font-size:172.056px;fill:#fff;">V<tspan x="1484.91px " y="1016.96px ">e</tspan>rk<tspan x="1749.53px " y="1016.96px ">e</tspan>hr<tspan x="2033.85px 2127.79px 2258.13px " y="1016.96px 1016.96px 1016.96px ">swe</tspan>nde v<tspan x="2823.25px " y="1016.96px ">o</tspan>n un<tspan x="3290.72px 3363.33px " y="1016.96px 1016.96px ">te</tspan>n</text></svg>