<?xml version="1.0" encoding="UTF-8" standalone="no"?><!DOCTYPE svg PUBLIC "-//W3C//DTD SVG 1.1//EN" "http://www.w3.org/Graphics/SVG/1.1/DTD/svg11.dtd"><svg width="100%" height="100%" viewBox="0 0 1056 185" version="1.1" xmlns="http://www.w3.org/2000/svg" xmlns:xlink="http://www.w3.org/1999/xlink" xml:space="preserve" xmlns:serif="http://www.serif.com/" style="fill-rule:evenodd;clip-rule:evenodd;stroke-linejoin:round;stroke-miterlimit:2;"><rect id="freieslastenrad---quer---negativ" serif:id="freieslastenrad - quer - negativ" x="0.104" y="0.023" width="1055.33" height="184.675" style="fill:none;"/><path d="M318.565,116.933l14.376,-0l-0,-31.982l11.185,-0l0,-10.903l-11.185,0l-0,-1.736c-0,-4.765 1.776,-7.834 7.672,-7.834c1.898,-0 3.796,0.403 4.442,0.605l0,-10.983c-0.646,-0.283 -2.261,-0.848 -6.098,-0.848c-7.955,-0 -20.392,2.988 -20.392,18.696l-0,2.1l-8.763,0l0,10.903l8.763,-0l-0,31.982Z" style="fill:#fff;fill-rule:nonzero;"/><path d="M350.022,116.933l14.416,-0l0,-19.181c0,-5.775 2.867,-11.953 11.388,-11.953c2.503,-0 4.24,0.767 4.724,1.05l2.14,-12.72c-0.484,-0.242 -2.301,-0.929 -5.774,-0.929c-5.694,0 -9.894,2.544 -12.478,6.744l0,-5.896l-14.416,0l-0,42.885Z" style="fill:#fff;fill-rule:nonzero;"/><path d="M430.744,103.365l-14.214,-0c-0.242,1.817 -2.544,3.998 -8.521,3.998c-5.693,-0 -8.924,-2.787 -10.014,-7.754l33.193,0c0.081,-0.646 0.162,-1.938 0.162,-3.392c-0,-13.972 -9.167,-23.017 -23.946,-23.017c-14.336,0 -24.068,8.965 -24.068,22.371c0,13.165 9.369,22.371 24.068,22.371c14.295,0 22.573,-7.107 23.34,-14.577Zm-23.138,-19.747c6.016,0 8.762,3.554 9.126,6.986l-18.576,0c1.252,-4.482 4.483,-6.986 9.45,-6.986Z" style="fill:#fff;fill-rule:nonzero;"/><path d="M444.474,68.031c4.321,0 8.116,-2.302 8.116,-6.501c0,-4.2 -3.795,-6.502 -8.116,-6.502c-4.361,0 -8.117,2.302 -8.117,6.502c0,4.159 3.756,6.501 8.117,6.501Zm-7.107,48.902l14.254,-0l0,-42.885l-14.254,0l-0,42.885Z" style="fill:#fff;fill-rule:nonzero;"/><path d="M505.005,103.365l-14.214,-0c-0.242,1.817 -2.544,3.998 -8.52,3.998c-5.694,-0 -8.925,-2.787 -10.015,-7.754l33.193,0c0.081,-0.646 0.162,-1.938 0.162,-3.392c0,-13.972 -9.167,-23.017 -23.946,-23.017c-14.335,0 -24.067,8.965 -24.067,22.371c-0,13.165 9.368,22.371 24.067,22.371c14.295,0 22.573,-7.107 23.34,-14.577Zm-23.138,-19.747c6.017,0 8.763,3.554 9.126,6.986l-18.575,0c1.251,-4.482 4.482,-6.986 9.449,-6.986Z" style="fill:#fff;fill-rule:nonzero;"/><path d="M530.728,117.942c9.853,0 20.554,-3.836 20.554,-14.173c0,-9.732 -10.903,-12.155 -17.566,-13.205c-5.088,-0.808 -8.762,-1.696 -8.762,-3.836c-0,-2.342 3.513,-2.988 5.855,-2.988c2.705,-0 5.734,1.171 5.734,3.876l0,0.444l14.134,0l-0,-0.484c-0,-8.884 -9.49,-14.376 -19.787,-14.376c-10.863,0 -20.029,4.725 -20.029,13.81c-0,8.884 9.812,11.953 17.404,13.165c6.501,1.05 9.086,1.655 9.086,3.997c-0,2.262 -3.513,3.11 -6.219,3.11c-4.038,-0 -6.542,-1.09 -6.542,-3.796l0,-0.485l-14.295,0l0,0.566c0,9.651 10.297,14.375 20.433,14.375Z" style="fill:#fff;fill-rule:nonzero;"/><rect x="578.943" y="53.817" width="14.174" height="63.116" style="fill:#fff;fill-rule:nonzero;"/><path d="M616.619,117.862c5.896,-0 11.388,-1.939 14.699,-5.371c0.081,0.363 0.202,0.687 0.323,1.05c0.565,1.615 1.575,2.948 2.019,3.392l14.093,-0c-0.525,-0.485 -1.575,-1.898 -2.18,-3.836c-0.525,-1.737 -0.525,-3.917 -0.525,-6.219l-0,-17.606c-0,-10.944 -10.419,-16.072 -21.968,-16.072c-12.316,0 -21.927,5.653 -21.927,16.233l14.214,0c0,-3.634 2.544,-5.451 7.592,-5.451c4.725,-0 7.632,1.777 7.632,4.361l0,0.081c0,1.655 -2.705,2.059 -11.751,2.907c-9.409,0.889 -18.333,4.604 -18.333,13.891c0,8.077 6.784,12.64 16.112,12.64Zm4.119,-10.459c-3.755,-0 -5.774,-1.171 -5.774,-3.554c-0,-2.463 2.221,-3.351 6.824,-3.836c2.948,-0.282 6.138,-0.767 8.965,-1.454c-0.566,6.421 -5.371,8.844 -10.015,8.844Z" style="fill:#fff;fill-rule:nonzero;"/><path d="M671.74,117.942c9.853,0 20.554,-3.836 20.554,-14.173c-0,-9.732 -10.903,-12.155 -17.566,-13.205c-5.088,-0.808 -8.763,-1.696 -8.763,-3.836c0,-2.342 3.513,-2.988 5.855,-2.988c2.706,-0 5.735,1.171 5.735,3.876l-0,0.444l14.133,0l-0,-0.484c-0,-8.884 -9.49,-14.376 -19.787,-14.376c-10.862,0 -20.029,4.725 -20.029,13.81c0,8.884 9.813,11.953 17.404,13.165c6.502,1.05 9.086,1.655 9.086,3.997c0,2.262 -3.513,3.11 -6.219,3.11c-4.038,-0 -6.541,-1.09 -6.541,-3.796l-0,-0.485l-14.295,0l-0,0.566c-0,9.651 10.297,14.375 20.433,14.375Z" style="fill:#fff;fill-rule:nonzero;"/><path d="M721.449,117.902c2.948,0 5.209,-0.565 6.38,-1.05l0,-10.58c-0.807,0.323 -2.665,0.808 -4.522,0.808c-3.393,-0 -3.756,-2.504 -3.756,-5.936l0,-16.193l12.114,-0l0,-10.903l-12.114,0l0,-14.093l-14.456,-0l-0,3.957c-0,9.651 -0.768,10.136 -8.238,10.136l-1.494,0l-0,10.903l9.732,-0l-0,20.069c-0,11.428 9.368,12.882 16.354,12.882Z" style="fill:#fff;fill-rule:nonzero;"/><path d="M783.192,103.365l-14.214,-0c-0.243,1.817 -2.544,3.998 -8.521,3.998c-5.693,-0 -8.924,-2.787 -10.014,-7.754l33.193,0c0.081,-0.646 0.162,-1.938 0.162,-3.392c-0,-13.972 -9.167,-23.017 -23.946,-23.017c-14.336,0 -24.068,8.965 -24.068,22.371c0,13.165 9.369,22.371 24.068,22.371c14.295,0 22.573,-7.107 23.34,-14.577Zm-23.139,-19.747c6.017,0 8.763,3.554 9.127,6.986l-18.576,0c1.252,-4.482 4.483,-6.986 9.449,-6.986Z" style="fill:#fff;fill-rule:nonzero;"/><path d="M790.622,116.933l14.376,-0l-0,-21.967c-0,-5.896 2.786,-9.692 8.278,-9.692c6.259,0 7.349,4.442 7.349,9.288l0,22.371l14.376,-0l0,-26.571c0,-10.136 -4.401,-17.162 -15.143,-17.162c-6.219,0 -11.589,2.786 -14.86,7.511l-0,-6.663l-14.376,0l0,42.885Z" style="fill:#fff;fill-rule:nonzero;"/><path d="M843.562,116.933l14.416,-0l0,-19.181c0,-5.775 2.867,-11.953 11.388,-11.953c2.503,-0 4.24,0.767 4.724,1.05l2.14,-12.72c-0.484,-0.242 -2.301,-0.929 -5.774,-0.929c-5.694,0 -9.893,2.544 -12.478,6.744l0,-5.896l-14.416,0l-0,42.885Z" style="fill:#fff;fill-rule:nonzero;"/><path d="M895.008,117.862c5.895,-0 11.387,-1.939 14.699,-5.371c0.08,0.363 0.201,0.687 0.323,1.05c0.565,1.615 1.574,2.948 2.019,3.392l14.093,-0c-0.525,-0.485 -1.575,-1.898 -2.181,-3.836c-0.525,-1.737 -0.525,-3.917 -0.525,-6.219l0,-17.606c0,-10.944 -10.418,-16.072 -21.967,-16.072c-12.317,0 -21.927,5.653 -21.927,16.233l14.214,0c-0,-3.634 2.544,-5.451 7.592,-5.451c4.724,-0 7.632,1.777 7.632,4.361l-0,0.081c-0,1.655 -2.706,2.059 -11.751,2.907c-9.409,0.889 -18.333,4.604 -18.333,13.891c-0,8.077 6.784,12.64 16.112,12.64Zm4.119,-10.459c-3.756,-0 -5.775,-1.171 -5.775,-3.554c0,-2.463 2.221,-3.351 6.825,-3.836c2.947,-0.282 6.138,-0.767 8.964,-1.454c-0.565,6.421 -5.371,8.844 -10.014,8.844Z" style="fill:#fff;fill-rule:nonzero;"/><path d="M949.805,117.942c5.088,0 9.611,-2.261 12.963,-5.895l-0,4.886l14.416,-0l-0,-63.116l-14.416,0l-0,24.996c-3.352,-3.513 -7.915,-5.613 -12.963,-5.613c-10.378,0 -20.11,7.874 -20.11,22.048c0,14.901 9.369,22.694 20.11,22.694Zm3.917,-12.275c-4.765,-0 -9.166,-3.191 -9.166,-10.419c-0,-7.188 4.401,-10.216 9.166,-10.216c4.442,-0 9.046,3.149 9.046,8.843l-0,2.706c-0,5.734 -4.483,9.086 -9.046,9.086Z" style="fill:#fff;fill-rule:nonzero;"/><g><path d="M102.79,86.637c-0,-17.798 -14.429,-32.226 -32.227,-32.226c-17.796,-0 -32.225,14.428 -32.225,32.226c0,17.798 14.429,32.227 32.225,32.227c17.798,-0 32.227,-14.429 32.227,-32.227" style="fill:#e2341d;"/><path d="M153.46,66.719c7.157,-12.949 21.47,-12.949 28.627,-6.475c7.157,6.475 7.157,19.424 -0,32.372c-5.01,9.712 -17.892,19.424 -28.627,25.898c-10.735,-6.474 -23.617,-16.186 -28.627,-25.898c-7.157,-12.948 -7.157,-25.897 -0,-32.372c7.157,-6.474 21.47,-6.474 28.627,6.475Z" style="fill:#fdc50f;"/><path d="M273.868,53.009l-8.999,17.652c-0.357,0.702 -0.009,1.556 0.736,1.81l12.154,4.117c0.984,0.333 1.191,1.636 0.357,2.258l-10.29,7.681c-0.631,0.469 -0.697,1.391 -0.141,1.947l14.004,14.003c0.884,0.885 0.12,2.383 -1.114,2.188l-19.568,-3.091c-0.777,-0.124 -1.482,0.471 -1.494,1.258l-0.168,12.838c-0.013,1.038 -1.187,1.636 -2.037,1.037l-10.477,-7.409c-0.642,-0.455 -1.539,-0.234 -1.896,0.468l-8.999,17.654c-0.569,1.114 -2.231,0.85 -2.426,-0.386l-3.092,-19.561c-0.123,-0.778 -0.907,-1.266 -1.658,-1.032l-12.259,3.814c-0.993,0.309 -1.926,-0.624 -1.617,-1.617l3.815,-12.257c0.234,-0.751 -0.254,-1.537 -1.031,-1.659l-19.563,-3.093c-1.235,-0.193 -1.5,-1.857 -0.386,-2.424l17.656,-9c0.7,-0.358 0.921,-1.254 0.466,-1.896l-7.407,-10.478c-0.601,-0.849 -0.003,-2.024 1.037,-2.037l12.838,-0.168c0.786,-0.01 1.38,-0.717 1.258,-1.494l-3.093,-19.566c-0.195,-1.235 1.305,-1.998 2.188,-1.114l14.003,14.002c0.558,0.558 1.478,0.491 1.949,-0.139l7.68,-10.292c0.623,-0.833 1.924,-0.627 2.258,0.359l4.117,12.152c0.253,0.746 1.109,1.093 1.811,0.736l17.651,-8.997c1.115,-0.569 2.304,0.622 1.737,1.736" style="fill:#61b22b;"/></g></svg>