<?xml version="1.0" encoding="UTF-8" standalone="no"?>
<!DOCTYPE svg PUBLIC "-//W3C//DTD SVG 1.1//EN" "http://www.w3.org/Graphics/SVG/1.1/DTD/svg11.dtd">
<svg width="100%" height="100%" viewBox="0 0 3461 1300" version="1.1" xmlns="http://www.w3.org/2000/svg" xmlns:xlink="http://www.w3.org/1999/xlink" xml:space="preserve" xmlns:serif="http://www.serif.com/" style="fill-rule:evenodd;clip-rule:evenodd;stroke-linejoin:round;stroke-miterlimit:2;">
    <g transform="matrix(1,0,0,1,-11387,0)">
        <g id="freieslastenrad" transform="matrix(0.581975,0,0,0.323791,11280.1,1651.82)">
            <rect x="184.158" y="-5101.49" width="5945.83" height="4012.5" style="fill:none;"/>
            <g transform="matrix(11.5776,0,0,20.8093,-5476.52,-16394.2)">
                <g transform="matrix(49.9432,0,0,49.9432,755.038,654.595)">
                    <path d="M0.119,-0L0.297,-0L0.297,-0.396L0.436,-0.396L0.436,-0.531L0.297,-0.531L0.297,-0.553C0.297,-0.612 0.319,-0.65 0.392,-0.65C0.416,-0.65 0.439,-0.645 0.447,-0.642L0.447,-0.778C0.439,-0.782 0.419,-0.789 0.372,-0.789C0.273,-0.789 0.119,-0.752 0.119,-0.557L0.119,-0.531L0.011,-0.531L0.011,-0.396L0.119,-0.396L0.119,-0Z" style="fill-rule:nonzero;"/>
                </g>
                <g transform="matrix(49.9432,0,0,49.9432,777.662,654.595)">
                    <path d="M0.056,-0L0.234,-0L0.234,-0.238C0.234,-0.309 0.27,-0.386 0.375,-0.386C0.406,-0.386 0.428,-0.376 0.434,-0.373L0.46,-0.53C0.454,-0.533 0.432,-0.542 0.389,-0.542C0.318,-0.542 0.266,-0.51 0.234,-0.458L0.234,-0.531L0.056,-0.531L0.056,-0Z" style="fill-rule:nonzero;"/>
                </g>
                <g transform="matrix(49.9432,0,0,49.9432,799.587,654.595)">
                    <path d="M0.616,-0.168L0.44,-0.168C0.437,-0.146 0.409,-0.119 0.335,-0.119C0.264,-0.119 0.224,-0.153 0.211,-0.215L0.622,-0.215C0.623,-0.223 0.624,-0.239 0.624,-0.257C0.624,-0.43 0.51,-0.542 0.327,-0.542C0.15,-0.542 0.029,-0.431 0.029,-0.265C0.029,-0.102 0.145,0.013 0.327,0.013C0.504,0.013 0.607,-0.076 0.616,-0.168ZM0.33,-0.413C0.404,-0.413 0.438,-0.369 0.443,-0.326L0.213,-0.326C0.228,-0.382 0.268,-0.413 0.33,-0.413Z" style="fill-rule:nonzero;"/>
                </g>
                <g transform="matrix(49.9432,0,0,49.9432,832.175,654.595)">
                    <path d="M0.134,-0.606C0.187,-0.606 0.234,-0.634 0.234,-0.686C0.234,-0.738 0.187,-0.767 0.134,-0.767C0.08,-0.767 0.033,-0.738 0.033,-0.686C0.033,-0.635 0.08,-0.606 0.134,-0.606ZM0.046,-0L0.222,-0L0.222,-0.531L0.046,-0.531L0.046,-0Z" style="fill-rule:nonzero;"/>
                </g>
                <g transform="matrix(49.9432,0,0,49.9432,845.51,654.595)">
                    <path d="M0.616,-0.168L0.44,-0.168C0.437,-0.146 0.409,-0.119 0.335,-0.119C0.264,-0.119 0.224,-0.153 0.211,-0.215L0.622,-0.215C0.623,-0.223 0.624,-0.239 0.624,-0.257C0.624,-0.43 0.51,-0.542 0.327,-0.542C0.15,-0.542 0.029,-0.431 0.029,-0.265C0.029,-0.102 0.145,0.013 0.327,0.013C0.504,0.013 0.607,-0.076 0.616,-0.168ZM0.33,-0.413C0.404,-0.413 0.438,-0.369 0.443,-0.326L0.213,-0.326C0.228,-0.382 0.268,-0.413 0.33,-0.413Z" style="fill-rule:nonzero;"/>
                </g>
                <g transform="matrix(49.9432,0,0,49.9432,878.098,654.595)">
                    <path d="M0.282,0.013C0.404,0.013 0.537,-0.035 0.537,-0.163C0.537,-0.284 0.402,-0.314 0.319,-0.327C0.256,-0.337 0.211,-0.348 0.211,-0.374C0.211,-0.403 0.254,-0.411 0.283,-0.411C0.317,-0.411 0.354,-0.397 0.354,-0.363L0.354,-0.358L0.529,-0.358L0.529,-0.364C0.529,-0.474 0.412,-0.542 0.284,-0.542C0.15,-0.542 0.036,-0.483 0.036,-0.371C0.036,-0.261 0.158,-0.223 0.252,-0.208C0.332,-0.195 0.364,-0.187 0.364,-0.158C0.364,-0.13 0.321,-0.12 0.287,-0.12C0.237,-0.12 0.206,-0.133 0.206,-0.167L0.206,-0.173L0.029,-0.173L0.029,-0.166C0.029,-0.046 0.157,0.013 0.282,0.013Z" style="fill-rule:nonzero;"/>
                </g>
                <g transform="matrix(49.9432,0,0,49.9432,655.801,701.572)">
                    <rect x="0.063" y="-0.782" width="0.176" height="0.782" style="fill-rule:nonzero;"/>
                </g>
                <g transform="matrix(49.9432,0,0,49.9432,670.084,701.572)">
                    <path d="M0.234,0.012C0.307,0.012 0.375,-0.013 0.416,-0.055C0.417,-0.051 0.418,-0.047 0.42,-0.042C0.427,-0.022 0.439,-0.006 0.445,-0L0.619,-0C0.613,-0.006 0.6,-0.024 0.592,-0.048C0.586,-0.069 0.586,-0.096 0.586,-0.125L0.586,-0.343C0.586,-0.478 0.457,-0.542 0.314,-0.542C0.161,-0.542 0.042,-0.472 0.042,-0.341L0.218,-0.341C0.218,-0.386 0.25,-0.408 0.312,-0.408C0.371,-0.408 0.407,-0.386 0.407,-0.354L0.407,-0.353C0.407,-0.333 0.373,-0.328 0.261,-0.317C0.145,-0.306 0.034,-0.26 0.034,-0.145C0.034,-0.045 0.118,0.012 0.234,0.012ZM0.285,-0.118C0.238,-0.118 0.213,-0.133 0.213,-0.162C0.213,-0.193 0.241,-0.204 0.298,-0.21C0.334,-0.213 0.374,-0.219 0.409,-0.228C0.402,-0.148 0.342,-0.118 0.285,-0.118Z" style="fill-rule:nonzero;"/>
                </g>
                <g transform="matrix(49.9432,0,0,49.9432,701.748,701.572)">
                    <path d="M0.282,0.013C0.404,0.013 0.537,-0.035 0.537,-0.163C0.537,-0.284 0.402,-0.314 0.319,-0.327C0.256,-0.337 0.211,-0.348 0.211,-0.374C0.211,-0.403 0.254,-0.411 0.283,-0.411C0.317,-0.411 0.354,-0.397 0.354,-0.363L0.354,-0.358L0.529,-0.358L0.529,-0.364C0.529,-0.474 0.412,-0.542 0.284,-0.542C0.15,-0.542 0.036,-0.483 0.036,-0.371C0.036,-0.261 0.158,-0.223 0.252,-0.208C0.332,-0.195 0.364,-0.187 0.364,-0.158C0.364,-0.13 0.321,-0.12 0.287,-0.12C0.237,-0.12 0.206,-0.133 0.206,-0.167L0.206,-0.173L0.029,-0.173L0.029,-0.166C0.029,-0.046 0.157,0.013 0.282,0.013Z" style="fill-rule:nonzero;"/>
                </g>
                <g transform="matrix(49.9432,0,0,49.9432,729.417,701.572)">
                    <path d="M0.334,0.012C0.37,0.012 0.398,0.005 0.413,-0.001L0.413,-0.132C0.403,-0.128 0.38,-0.122 0.357,-0.122C0.315,-0.122 0.31,-0.153 0.31,-0.196L0.31,-0.396L0.46,-0.396L0.46,-0.531L0.31,-0.531L0.31,-0.706L0.131,-0.706L0.131,-0.657C0.131,-0.537 0.122,-0.531 0.029,-0.531L0.011,-0.531L0.011,-0.396L0.131,-0.396L0.131,-0.148C0.131,-0.006 0.247,0.012 0.334,0.012Z" style="fill-rule:nonzero;"/>
                </g>
                <g transform="matrix(49.9432,0,0,49.9432,752.491,701.572)">
                    <path d="M0.616,-0.168L0.44,-0.168C0.437,-0.146 0.409,-0.119 0.335,-0.119C0.264,-0.119 0.224,-0.153 0.211,-0.215L0.622,-0.215C0.623,-0.223 0.624,-0.239 0.624,-0.257C0.624,-0.43 0.51,-0.542 0.327,-0.542C0.15,-0.542 0.029,-0.431 0.029,-0.265C0.029,-0.102 0.145,0.013 0.327,0.013C0.504,0.013 0.607,-0.076 0.616,-0.168ZM0.33,-0.413C0.404,-0.413 0.438,-0.369 0.443,-0.326L0.213,-0.326C0.228,-0.382 0.268,-0.413 0.33,-0.413Z" style="fill-rule:nonzero;"/>
                </g>
                <g transform="matrix(49.9432,0,0,49.9432,785.078,701.572)">
                    <path d="M0.056,-0L0.234,-0L0.234,-0.272C0.234,-0.345 0.268,-0.392 0.336,-0.392C0.414,-0.392 0.427,-0.337 0.427,-0.277L0.427,-0L0.605,-0L0.605,-0.329C0.605,-0.455 0.551,-0.542 0.418,-0.542C0.341,-0.542 0.274,-0.507 0.234,-0.449L0.234,-0.531L0.056,-0.531L0.056,-0Z" style="fill-rule:nonzero;"/>
                </g>
                <g transform="matrix(49.9432,0,0,49.9432,817.816,701.572)">
                    <path d="M0.056,-0L0.234,-0L0.234,-0.238C0.234,-0.309 0.27,-0.386 0.375,-0.386C0.406,-0.386 0.428,-0.376 0.434,-0.373L0.46,-0.53C0.454,-0.533 0.432,-0.542 0.389,-0.542C0.318,-0.542 0.266,-0.51 0.234,-0.458L0.234,-0.531L0.056,-0.531L0.056,-0Z" style="fill-rule:nonzero;"/>
                </g>
                <g transform="matrix(49.9432,0,0,49.9432,841.239,701.572)">
                    <path d="M0.234,0.012C0.307,0.012 0.375,-0.013 0.416,-0.055C0.417,-0.051 0.418,-0.047 0.42,-0.042C0.427,-0.022 0.439,-0.006 0.445,-0L0.619,-0C0.613,-0.006 0.6,-0.024 0.592,-0.048C0.586,-0.069 0.586,-0.096 0.586,-0.125L0.586,-0.343C0.586,-0.478 0.457,-0.542 0.314,-0.542C0.161,-0.542 0.042,-0.472 0.042,-0.341L0.218,-0.341C0.218,-0.386 0.25,-0.408 0.312,-0.408C0.371,-0.408 0.407,-0.386 0.407,-0.354L0.407,-0.353C0.407,-0.333 0.373,-0.328 0.261,-0.317C0.145,-0.306 0.034,-0.26 0.034,-0.145C0.034,-0.045 0.118,0.012 0.234,0.012ZM0.285,-0.118C0.238,-0.118 0.213,-0.133 0.213,-0.162C0.213,-0.193 0.241,-0.204 0.298,-0.21C0.334,-0.213 0.374,-0.219 0.409,-0.228C0.402,-0.148 0.342,-0.118 0.285,-0.118Z" style="fill-rule:nonzero;"/>
                </g>
                <g transform="matrix(49.9432,0,0,49.9432,872.903,701.572)">
                    <path d="M0.278,0.013C0.341,0.013 0.397,-0.016 0.439,-0.061L0.439,-0L0.617,-0L0.617,-0.782L0.439,-0.782L0.439,-0.472C0.397,-0.516 0.341,-0.542 0.278,-0.542C0.15,-0.542 0.029,-0.444 0.029,-0.269C0.029,-0.084 0.145,0.013 0.278,0.013ZM0.327,-0.14C0.268,-0.14 0.213,-0.179 0.213,-0.269C0.213,-0.358 0.268,-0.395 0.327,-0.395C0.382,-0.395 0.439,-0.356 0.439,-0.286L0.439,-0.252C0.439,-0.181 0.383,-0.14 0.327,-0.14Z" style="fill-rule:nonzero;"/>
                </g>
            </g>
            <g transform="matrix(6.79419,0,0,12.2117,4845.37,-4659.52)">
                <g transform="matrix(1,0,0,1,-10.6794,51.05)">
                    <path d="M0,0C0,-13.068 -10.594,-23.662 -23.662,-23.662C-36.729,-23.662 -47.323,-13.068 -47.323,0C-47.323,13.068 -36.729,23.662 -23.662,23.662C-10.594,23.662 0,13.068 0,0" style="fill:rgb(226,52,29);"/>
                </g>
                <g transform="matrix(0.221498,0,0,0.281236,-316.28,-1203.66)">
                    <path d="M1547.66,4409.43C1571.39,4375.62 1618.84,4375.62 1642.56,4392.52C1666.29,4409.43 1666.29,4443.23 1642.56,4477.04C1625.95,4502.39 1583.25,4527.75 1547.66,4544.65C1512.08,4527.75 1469.38,4502.39 1452.77,4477.04C1429.05,4443.23 1429.05,4409.43 1452.77,4392.52C1476.49,4375.62 1523.94,4375.62 1547.66,4409.43Z" style="fill:rgb(253,197,15);"/>
                </g>
                <g transform="matrix(1.17669,0,0,1.17669,114.933,74.146)">
                    <path d="M0,-40.612L-5.615,-29.597C-5.838,-29.159 -5.621,-28.626 -5.156,-28.468L2.428,-25.899C3.042,-25.691 3.171,-24.878 2.651,-24.49L-3.77,-19.697C-4.164,-19.404 -4.205,-18.829 -3.858,-18.482L4.88,-9.744C5.432,-9.192 4.955,-8.257 4.185,-8.379L-8.025,-10.308C-8.51,-10.385 -8.95,-10.014 -8.957,-9.523L-9.062,-1.512C-9.07,-0.864 -9.803,-0.491 -10.333,-0.865L-16.871,-5.488C-17.271,-5.772 -17.831,-5.634 -18.054,-5.196L-23.669,5.82C-24.024,6.515 -25.061,6.35 -25.183,5.579L-27.112,-6.627C-27.189,-7.112 -27.678,-7.417 -28.147,-7.271L-35.796,-4.891C-36.416,-4.698 -36.998,-5.28 -36.805,-5.9L-34.425,-13.548C-34.279,-14.017 -34.583,-14.507 -35.068,-14.583L-47.275,-16.513C-48.046,-16.634 -48.211,-17.672 -47.516,-18.026L-36.499,-23.642C-36.062,-23.865 -35.924,-24.424 -36.208,-24.825L-40.83,-31.363C-41.205,-31.893 -40.832,-32.626 -40.183,-32.634L-32.172,-32.739C-31.682,-32.745 -31.311,-33.186 -31.387,-33.671L-33.317,-45.88C-33.439,-46.651 -32.503,-47.127 -31.952,-46.575L-23.214,-37.838C-22.866,-37.49 -22.292,-37.532 -21.998,-37.925L-17.206,-44.347C-16.817,-44.867 -16.005,-44.738 -15.797,-44.123L-13.228,-36.54C-13.07,-36.075 -12.536,-35.858 -12.098,-36.081L-1.084,-41.695C-0.388,-42.05 0.354,-41.307 0,-40.612" style="fill:rgb(97,178,43);"/>
                </g>
            </g>
        </g>
    </g>
</svg>
