<?xml version="1.0" encoding="UTF-8" standalone="no"?><!DOCTYPE svg PUBLIC "-//W3C//DTD SVG 1.1//EN" "http://www.w3.org/Graphics/SVG/1.1/DTD/svg11.dtd"><svg width="100%" height="100%" viewBox="0 0 4398 770" version="1.1" xmlns="http://www.w3.org/2000/svg" xmlns:xlink="http://www.w3.org/1999/xlink" xml:space="preserve" xmlns:serif="http://www.serif.com/" style="fill-rule:evenodd;clip-rule:evenodd;stroke-linejoin:round;stroke-miterlimit:2;"><rect id="freieslastenrad---quer" serif:id="freieslastenrad - quer" x="0.371" y="0.187" width="4397.21" height="769.481" style="fill:none;"/><g transform="matrix(336.511,0,0,336.511,4089.37,487.311)"></g><text x="1287.24px" y="487.311px" style="font-family:'Epilogue-ExtraBold', 'Epilogue';font-weight:800;font-size:336.511px;">fr<tspan x="1587.41px " y="487.311px ">e</tspan>ies las<tspan x="2893.75px 3055.95px " y="487.311px 487.311px ">te</tspan>nr<tspan x="3650.56px " y="487.311px ">a</tspan>d</text><g><path d="M428.225,361.079c0,-74.158 -60.118,-134.277 -134.277,-134.277c-74.152,0 -134.271,60.119 -134.271,134.277c0,74.159 60.119,134.277 134.271,134.277c74.159,0 134.277,-60.118 134.277,-134.277" style="fill:#e2341d;"/><path d="M639.351,278.085c29.82,-53.954 89.46,-53.954 119.28,-26.977c29.821,26.977 29.821,80.93 -0,134.884c-20.874,40.465 -74.55,80.931 -119.28,107.907c-44.73,-26.976 -98.405,-67.442 -119.279,-107.907c-29.82,-53.954 -29.82,-107.907 -0,-134.884c29.82,-26.977 89.46,-26.977 119.279,26.977Z" style="fill:#fdc50f;"/><path d="M1141.05,220.959l-37.494,73.553c-1.49,2.924 -0.041,6.484 3.064,7.539l50.642,17.154c4.1,1.389 4.962,6.818 1.489,9.409l-42.876,32.005c-2.63,1.956 -2.904,5.796 -0.587,8.113l58.348,58.347c3.686,3.686 0.5,9.93 -4.641,9.115l-81.532,-12.881c-3.239,-0.514 -6.177,1.964 -6.224,5.242l-0.701,53.493c-0.053,4.327 -4.948,6.818 -8.487,4.321l-43.657,-30.87c-2.671,-1.897 -6.41,-0.975 -7.899,1.95l-37.494,73.559c-2.371,4.64 -9.295,3.539 -10.11,-1.61l-12.881,-81.505c-0.514,-3.238 -3.779,-5.275 -6.911,-4.3l-51.076,15.892c-4.14,1.289 -8.026,-2.597 -6.738,-6.737l15.893,-51.07c0.975,-3.131 -1.055,-6.403 -4.294,-6.911l-81.512,-12.887c-5.148,-0.808 -6.25,-7.739 -1.609,-10.103l73.566,-37.501c2.918,-1.489 3.839,-5.222 1.943,-7.899l-30.863,-43.658c-2.504,-3.539 -0.014,-8.433 4.32,-8.487l53.493,-0.701c3.272,-0.04 5.749,-2.985 5.242,-6.223l-12.888,-81.525c-0.814,-5.149 5.436,-8.327 9.115,-4.641l58.348,58.341c2.324,2.323 6.156,2.043 8.12,-0.581l31.998,-42.883c2.598,-3.472 8.02,-2.611 9.409,1.496l17.154,50.635c1.055,3.105 4.621,4.554 7.546,3.065l73.545,-37.487c4.648,-2.371 9.602,2.591 7.239,7.231" style="fill:#61b22b;"/></g></svg>