<?xml version="1.0" encoding="UTF-8" standalone="no"?><!DOCTYPE svg PUBLIC "-//W3C//DTD SVG 1.1//EN" "http://www.w3.org/Graphics/SVG/1.1/DTD/svg11.dtd"><svg width="100%" height="100%" viewBox="0 0 1056 186" version="1.1" xmlns="http://www.w3.org/2000/svg" xmlns:xlink="http://www.w3.org/1999/xlink" xml:space="preserve" xmlns:serif="http://www.serif.com/" style="fill-rule:evenodd;clip-rule:evenodd;stroke-linejoin:round;stroke-miterlimit:2;"><rect id="freieslastenrad---quer" serif:id="freieslastenrad - quer" x="0.024" y="0.135" width="1055.33" height="184.675" style="fill:none;"/><path d="M318.485,117.044l14.376,0l-0,-31.982l11.185,0l0,-10.903l-11.185,0l-0,-1.736c-0,-4.765 1.776,-7.834 7.672,-7.834c1.898,0 3.796,0.404 4.442,0.606l-0,-10.984c-0.646,-0.283 -2.261,-0.848 -6.098,-0.848c-7.955,0 -20.392,2.988 -20.392,18.697l-0,2.099l-8.763,0l0,10.903l8.763,0l-0,31.982Z" style="fill-rule:nonzero;"/><path d="M349.942,117.044l14.416,0l-0,-19.181c-0,-5.774 2.867,-11.953 11.387,-11.953c2.504,0 4.24,0.768 4.725,1.05l2.14,-12.72c-0.484,-0.242 -2.301,-0.929 -5.774,-0.929c-5.694,0 -9.894,2.544 -12.478,6.744l-0,-5.896l-14.416,0l-0,42.885Z" style="fill-rule:nonzero;"/><path d="M430.664,103.476l-14.214,0c-0.243,1.817 -2.544,3.998 -8.521,3.998c-5.693,-0 -8.924,-2.786 -10.014,-7.753l33.193,-0c0.081,-0.646 0.162,-1.939 0.162,-3.392c-0,-13.972 -9.167,-23.018 -23.946,-23.018c-14.336,0 -24.068,8.965 -24.068,22.372c0,13.164 9.369,22.371 24.068,22.371c14.295,-0 22.573,-7.107 23.34,-14.578Zm-23.138,-19.746c6.016,-0 8.762,3.553 9.126,6.986l-18.576,-0c1.252,-4.483 4.483,-6.986 9.45,-6.986Z" style="fill-rule:nonzero;"/><path d="M444.394,68.143c4.32,-0 8.116,-2.302 8.116,-6.502c0,-4.199 -3.796,-6.501 -8.116,-6.501c-4.362,-0 -8.117,2.302 -8.117,6.501c-0,4.159 3.755,6.502 8.117,6.502Zm-7.107,48.901l14.254,0l0,-42.885l-14.254,0l-0,42.885Z" style="fill-rule:nonzero;"/><path d="M504.925,103.476l-14.214,0c-0.242,1.817 -2.544,3.998 -8.52,3.998c-5.694,-0 -8.925,-2.786 -10.015,-7.753l33.193,-0c0.081,-0.646 0.162,-1.939 0.162,-3.392c-0,-13.972 -9.167,-23.018 -23.946,-23.018c-14.336,0 -24.067,8.965 -24.067,22.372c-0,13.164 9.368,22.371 24.067,22.371c14.295,-0 22.573,-7.107 23.34,-14.578Zm-23.138,-19.746c6.017,-0 8.762,3.553 9.126,6.986l-18.576,-0c1.252,-4.483 4.483,-6.986 9.45,-6.986Z" style="fill-rule:nonzero;"/><path d="M530.648,118.054c9.853,-0 20.554,-3.836 20.554,-14.174c0,-9.732 -10.903,-12.155 -17.566,-13.205c-5.088,-0.807 -8.762,-1.696 -8.762,-3.836c-0,-2.342 3.513,-2.988 5.855,-2.988c2.705,-0 5.734,1.171 5.734,3.877l-0,0.444l14.133,-0l0,-0.485c0,-8.884 -9.489,-14.376 -19.786,-14.376c-10.863,0 -20.03,4.725 -20.03,13.811c0,8.884 9.813,11.953 17.405,13.164c6.501,1.05 9.086,1.656 9.086,3.998c-0,2.261 -3.514,3.109 -6.219,3.109c-4.038,0 -6.542,-1.09 -6.542,-3.796l0,-0.484l-14.295,-0l0,0.565c0,9.651 10.297,14.376 20.433,14.376Z" style="fill-rule:nonzero;"/><rect x="578.863" y="53.928" width="14.174" height="63.116" style="fill-rule:nonzero;"/><path d="M616.539,117.973c5.896,0 11.388,-1.938 14.699,-5.371c0.081,0.364 0.202,0.687 0.323,1.05c0.565,1.616 1.575,2.948 2.019,3.392l14.093,0c-0.525,-0.484 -1.575,-1.898 -2.181,-3.836c-0.525,-1.736 -0.525,-3.917 -0.525,-6.219l0,-17.606c0,-10.943 -10.418,-16.072 -21.967,-16.072c-12.316,0 -21.927,5.654 -21.927,16.234l14.214,-0c0,-3.635 2.544,-5.452 7.592,-5.452c4.725,0 7.632,1.777 7.632,4.361l-0,0.081c-0,1.656 -2.706,2.06 -11.751,2.908c-9.409,0.888 -18.333,4.603 -18.333,13.891c-0,8.076 6.784,12.639 16.112,12.639Zm4.119,-10.459c-3.756,0 -5.775,-1.171 -5.775,-3.553c0,-2.463 2.221,-3.352 6.825,-3.836c2.948,-0.283 6.138,-0.768 8.965,-1.454c-0.566,6.42 -5.371,8.843 -10.015,8.843Z" style="fill-rule:nonzero;"/><path d="M671.66,118.054c9.853,-0 20.554,-3.836 20.554,-14.174c-0,-9.732 -10.903,-12.155 -17.566,-13.205c-5.088,-0.807 -8.763,-1.696 -8.763,-3.836c-0,-2.342 3.513,-2.988 5.855,-2.988c2.706,-0 5.734,1.171 5.734,3.877l0,0.444l14.134,-0l-0,-0.485c-0,-8.884 -9.49,-14.376 -19.787,-14.376c-10.863,0 -20.029,4.725 -20.029,13.811c-0,8.884 9.813,11.953 17.404,13.164c6.502,1.05 9.086,1.656 9.086,3.998c0,2.261 -3.513,3.109 -6.219,3.109c-4.038,0 -6.541,-1.09 -6.541,-3.796l-0,-0.484l-14.295,-0l-0,0.565c-0,9.651 10.297,14.376 20.433,14.376Z" style="fill-rule:nonzero;"/><path d="M721.369,118.013c2.948,0 5.209,-0.565 6.38,-1.049l0,-10.58c-0.808,0.323 -2.665,0.807 -4.523,0.807c-3.392,0 -3.755,-2.503 -3.755,-5.936l-0,-16.193l12.114,0l0,-10.903l-12.114,0l-0,-14.093l-14.457,0l0,3.958c0,9.651 -0.767,10.135 -8.237,10.135l-1.494,0l-0,10.903l9.731,0l0,20.07c0,11.428 9.369,12.881 16.355,12.881Z" style="fill-rule:nonzero;"/><path d="M783.112,103.476l-14.214,0c-0.243,1.817 -2.544,3.998 -8.521,3.998c-5.694,-0 -8.924,-2.786 -10.014,-7.753l33.193,-0c0.081,-0.646 0.162,-1.939 0.162,-3.392c-0,-13.972 -9.167,-23.018 -23.947,-23.018c-14.335,0 -24.067,8.965 -24.067,22.372c0,13.164 9.369,22.371 24.067,22.371c14.295,-0 22.574,-7.107 23.341,-14.578Zm-23.139,-19.746c6.017,-0 8.763,3.553 9.127,6.986l-18.576,-0c1.252,-4.483 4.482,-6.986 9.449,-6.986Z" style="fill-rule:nonzero;"/><path d="M790.542,117.044l14.376,0l-0,-21.967c-0,-5.896 2.786,-9.692 8.278,-9.692c6.259,0 7.349,4.442 7.349,9.288l0,22.371l14.376,0l0,-26.571c0,-10.135 -4.402,-17.162 -15.143,-17.162c-6.219,0 -11.589,2.787 -14.86,7.511l-0,-6.663l-14.376,0l0,42.885Z" style="fill-rule:nonzero;"/><path d="M843.482,117.044l14.416,0l0,-19.181c0,-5.774 2.867,-11.953 11.388,-11.953c2.503,0 4.24,0.768 4.724,1.05l2.14,-12.72c-0.484,-0.242 -2.301,-0.929 -5.774,-0.929c-5.694,0 -9.894,2.544 -12.478,6.744l0,-5.896l-14.416,0l-0,42.885Z" style="fill-rule:nonzero;"/><path d="M894.928,117.973c5.895,0 11.387,-1.938 14.698,-5.371c0.081,0.364 0.202,0.687 0.323,1.05c0.566,1.616 1.575,2.948 2.02,3.392l14.093,0c-0.525,-0.484 -1.575,-1.898 -2.181,-3.836c-0.525,-1.736 -0.525,-3.917 -0.525,-6.219l0,-17.606c0,-10.943 -10.418,-16.072 -21.967,-16.072c-12.317,0 -21.927,5.654 -21.927,16.234l14.214,-0c-0,-3.635 2.544,-5.452 7.592,-5.452c4.724,0 7.632,1.777 7.632,4.361l-0,0.081c-0,1.656 -2.706,2.06 -11.751,2.908c-9.409,0.888 -18.333,4.603 -18.333,13.891c-0,8.076 6.784,12.639 16.112,12.639Zm4.119,-10.459c-3.756,0 -5.775,-1.171 -5.775,-3.553c0,-2.463 2.221,-3.352 6.824,-3.836c2.948,-0.283 6.138,-0.768 8.965,-1.454c-0.565,6.42 -5.371,8.843 -10.014,8.843Z" style="fill-rule:nonzero;"/><path d="M949.725,118.054c5.088,-0 9.611,-2.261 12.962,-5.896l0,4.886l14.417,0l-0,-63.116l-14.417,0l0,24.996c-3.351,-3.513 -7.914,-5.613 -12.962,-5.613c-10.378,0 -20.11,7.875 -20.11,22.049c0,14.9 9.369,22.694 20.11,22.694Zm3.917,-12.276c-4.765,-0 -9.167,-3.19 -9.167,-10.418c0,-7.188 4.402,-10.217 9.167,-10.217c4.442,0 9.045,3.15 9.045,8.844l0,2.705c0,5.734 -4.482,9.086 -9.045,9.086Z" style="fill-rule:nonzero;"/><g><path d="M102.709,86.749c0,-17.798 -14.428,-32.227 -32.226,-32.227c-17.797,0 -32.225,14.429 -32.225,32.227c-0,17.798 14.428,32.226 32.225,32.226c17.798,0 32.226,-14.428 32.226,-32.226" style="fill:#e2341d;"/><path d="M153.38,66.83c7.156,-12.949 21.47,-12.949 28.627,-6.474c7.157,6.474 7.157,19.423 -0,32.372c-5.01,9.712 -17.892,19.423 -28.627,25.898c-10.735,-6.475 -23.618,-16.186 -28.627,-25.898c-7.157,-12.949 -7.157,-25.898 -0,-32.372c7.156,-6.475 21.47,-6.475 28.627,6.474Z" style="fill:#fdc50f;"/><path d="M273.788,53.12l-8.999,17.653c-0.357,0.701 -0.009,1.556 0.736,1.809l12.154,4.117c0.984,0.333 1.191,1.636 0.357,2.258l-10.29,7.681c-0.631,0.47 -0.697,1.391 -0.141,1.947l14.003,14.004c0.885,0.884 0.121,2.383 -1.113,2.187l-19.568,-3.091c-0.777,-0.123 -1.482,0.471 -1.494,1.258l-0.168,12.838c-0.013,1.039 -1.187,1.637 -2.037,1.037l-10.478,-7.409c-0.641,-0.455 -1.538,-0.234 -1.895,0.468l-8.999,17.655c-0.569,1.113 -2.231,0.849 -2.426,-0.387l-3.092,-19.561c-0.123,-0.777 -0.907,-1.266 -1.658,-1.032l-12.259,3.814c-0.993,0.309 -1.926,-0.623 -1.617,-1.617l3.815,-12.256c0.234,-0.752 -0.254,-1.537 -1.031,-1.659l-19.563,-3.093c-1.235,-0.194 -1.5,-1.858 -0.386,-2.425l17.656,-9c0.7,-0.357 0.921,-1.253 0.466,-1.896l-7.407,-10.478c-0.601,-0.849 -0.003,-2.024 1.037,-2.037l12.838,-0.168c0.785,-0.009 1.38,-0.716 1.258,-1.493l-3.093,-19.566c-0.195,-1.236 1.305,-1.999 2.188,-1.114l14.003,14.002c0.558,0.557 1.478,0.49 1.949,-0.14l7.68,-10.292c0.623,-0.833 1.924,-0.626 2.258,0.359l4.117,12.153c0.253,0.745 1.109,1.093 1.811,0.735l17.651,-8.997c1.115,-0.569 2.304,0.622 1.737,1.736" style="fill:#61b22b;"/></g></svg>