<?xml version="1.0" encoding="UTF-8" standalone="no"?><!DOCTYPE svg PUBLIC "-//W3C//DTD SVG 1.1//EN" "http://www.w3.org/Graphics/SVG/1.1/DTD/svg11.dtd"><svg width="100%" height="100%" viewBox="0 0 4774 1300" version="1.1" xmlns="http://www.w3.org/2000/svg" xmlns:xlink="http://www.w3.org/1999/xlink" xml:space="preserve" xmlns:serif="http://www.serif.com/" style="fill-rule:evenodd;clip-rule:evenodd;stroke-linejoin:round;stroke-miterlimit:2;"><rect id="freieslastenrad---quer---mit-unterzeile" serif:id="freieslastenrad - quer - mit unterzeile" x="0.415" y="0.575" width="4773.05" height="1299.21" style="fill:none;"/><path d="M1432.28,772.489l59.899,0l0,-133.258l46.607,-0l0,-45.429l-46.607,0l0,-7.235c0,-19.854 7.404,-32.642 31.969,-32.642c7.908,0 15.816,1.683 18.508,2.524l-0,-45.765c-2.692,-1.178 -9.422,-3.534 -25.407,-3.534c-33.146,0 -84.969,12.451 -84.969,77.903l0,8.749l-36.511,0l-0,45.429l36.511,-0l0,133.258Z" style="fill-rule:nonzero;"/><path d="M1563.35,772.489l60.067,0l0,-79.921c0,-24.061 11.947,-49.804 47.448,-49.804c10.432,0 17.667,3.197 19.686,4.375l8.918,-53c-2.019,-1.01 -9.591,-3.87 -24.061,-3.87c-23.724,-0 -41.222,10.6 -51.991,28.098l0,-24.565l-60.067,0l0,178.687Z" style="fill-rule:nonzero;"/><path d="M1899.69,715.955l-59.226,0c-1.01,7.572 -10.6,16.658 -35.502,16.658c-23.724,-0 -37.184,-11.61 -41.727,-32.305l138.306,-0c0.336,-2.692 0.673,-8.077 0.673,-14.134c-0,-58.216 -38.194,-95.905 -99.776,-95.905c-59.731,-0 -100.28,37.352 -100.28,93.213c-0,54.851 39.035,93.214 100.28,93.214c59.563,-0 94.055,-29.613 97.252,-60.741Zm-96.411,-82.276c25.07,-0 36.512,14.806 38.026,29.108l-77.397,-0c5.216,-18.677 18.676,-29.108 39.371,-29.108Z" style="fill-rule:nonzero;"/><path d="M1956.9,568.732c18.003,-0 33.819,-9.591 33.819,-27.089c-0,-17.499 -15.816,-27.089 -33.819,-27.089c-18.172,-0 -33.82,9.59 -33.82,27.089c0,17.33 15.648,27.089 33.82,27.089Zm-29.613,203.757l59.394,0l-0,-178.687l-59.394,0l-0,178.687Z" style="fill-rule:nonzero;"/><path d="M2209.12,715.955l-59.226,0c-1.009,7.572 -10.6,16.658 -35.501,16.658c-23.724,-0 -37.185,-11.61 -41.728,-32.305l138.306,-0c0.337,-2.692 0.673,-8.077 0.673,-14.134c0,-58.216 -38.194,-95.905 -99.775,-95.905c-59.731,-0 -100.28,37.352 -100.28,93.213c-0,54.851 39.035,93.214 100.28,93.214c59.562,-0 94.055,-29.613 97.251,-60.741Zm-96.41,-82.276c25.07,-0 36.511,14.806 38.026,29.108l-77.398,-0c5.216,-18.677 18.677,-29.108 39.372,-29.108Z" style="fill-rule:nonzero;"/><path d="M2316.3,776.696c41.054,-0 85.642,-15.985 85.642,-59.058c0,-40.55 -45.429,-50.645 -73.191,-55.02c-21.2,-3.365 -36.511,-7.066 -36.511,-15.984c-0,-9.759 14.638,-12.451 24.397,-12.451c11.273,0 23.892,4.88 23.892,16.153l-0,1.851l58.889,-0l0,-2.019c0,-37.017 -39.54,-59.899 -82.445,-59.899c-45.261,-0 -83.455,19.686 -83.455,57.543c0,37.016 40.886,49.804 72.518,54.851c27.09,4.375 37.858,6.899 37.858,16.658c-0,9.422 -14.638,12.955 -25.911,12.955c-16.826,0 -27.258,-4.543 -27.258,-15.816l0,-2.019l-59.562,0l-0,2.356c-0,40.213 42.905,59.899 85.137,59.899Z" style="fill-rule:nonzero;"/><rect x="2517.19" y="509.506" width="59.058" height="262.983" style="fill-rule:nonzero;"/><path d="M2674.17,776.359c24.565,0 47.448,-8.076 61.245,-22.378c0.337,1.514 0.841,2.86 1.346,4.375c2.356,6.73 6.562,12.282 8.413,14.133l58.721,0c-2.187,-2.019 -6.562,-7.908 -9.086,-15.984c-2.187,-7.235 -2.187,-16.321 -2.187,-25.911l-0,-73.36c-0,-45.597 -43.41,-66.965 -91.531,-66.965c-51.318,-0 -91.363,23.555 -91.363,67.638l59.226,0c0,-15.143 10.6,-22.714 31.632,-22.714c19.686,-0 31.801,7.403 31.801,18.171l-0,0.337c-0,6.898 -11.274,8.581 -48.963,12.114c-39.203,3.702 -76.388,19.181 -76.388,57.88c0,33.651 28.267,52.664 67.134,52.664Zm17.162,-43.578c-15.648,-0 -24.06,-4.879 -24.06,-14.807c-0,-10.263 9.254,-13.965 28.435,-15.984c12.283,-1.178 25.575,-3.197 37.353,-6.057c-2.356,26.753 -22.378,36.848 -41.728,36.848Z" style="fill-rule:nonzero;"/><path d="M2903.84,776.696c41.054,-0 85.642,-15.985 85.642,-59.058c-0,-40.55 -45.429,-50.645 -73.191,-55.02c-21.201,-3.365 -36.512,-7.066 -36.512,-15.984c0,-9.759 14.638,-12.451 24.397,-12.451c11.273,0 23.893,4.88 23.893,16.153l-0,1.851l58.889,-0l-0,-2.019c-0,-37.017 -39.54,-59.899 -82.445,-59.899c-45.261,-0 -83.455,19.686 -83.455,57.543c0,37.016 40.886,49.804 72.518,54.851c27.089,4.375 37.858,6.899 37.858,16.658c-0,9.422 -14.639,12.955 -25.912,12.955c-16.825,0 -27.257,-4.543 -27.257,-15.816l-0,-2.019l-59.562,0l-0,2.356c-0,40.213 42.905,59.899 85.137,59.899Z" style="fill-rule:nonzero;"/><path d="M3110.97,776.527c12.283,0 21.705,-2.355 26.584,-4.374l0,-44.083c-3.365,1.346 -11.104,3.365 -18.844,3.365c-14.134,-0 -15.648,-10.432 -15.648,-24.734l0,-67.47l50.477,-0l-0,-45.429l-50.477,0l0,-58.721l-60.235,-0l-0,16.489c-0,40.213 -3.197,42.232 -34.324,42.232l-6.226,0l0,45.429l40.55,-0l-0,83.623c-0,47.616 39.035,53.673 68.143,53.673Z" style="fill-rule:nonzero;"/><path d="M3368.23,715.955l-59.226,0c-1.01,7.572 -10.6,16.658 -35.502,16.658c-23.724,-0 -37.185,-11.61 -41.728,-32.305l138.306,-0c0.337,-2.692 0.673,-8.077 0.673,-14.134c0,-58.216 -38.194,-95.905 -99.775,-95.905c-59.731,-0 -100.28,37.352 -100.28,93.213c-0,54.851 39.035,93.214 100.28,93.214c59.562,-0 94.055,-29.613 97.252,-60.741Zm-96.411,-82.276c25.07,-0 36.512,14.806 38.026,29.108l-77.398,-0c5.216,-18.677 18.677,-29.108 39.372,-29.108Z" style="fill-rule:nonzero;"/><path d="M3399.19,772.489l59.898,0l0,-91.531c0,-24.565 11.61,-40.381 34.493,-40.381c26.079,0 30.622,18.508 30.622,38.699l0,93.213l59.899,0l0,-110.712c0,-42.232 -18.34,-71.508 -63.096,-71.508c-25.911,-0 -48.289,11.609 -61.918,31.295l0,-27.762l-59.898,0l-0,178.687Z" style="fill-rule:nonzero;"/><path d="M3619.77,772.489l60.067,0l0,-79.921c0,-24.061 11.947,-49.804 47.448,-49.804c10.432,0 17.667,3.197 19.686,4.375l8.918,-53c-2.019,-1.01 -9.591,-3.87 -24.061,-3.87c-23.724,-0 -41.222,10.6 -51.991,28.098l0,-24.565l-60.067,0l0,178.687Z" style="fill-rule:nonzero;"/><path d="M3834.13,776.359c24.565,0 47.448,-8.076 61.245,-22.378c0.336,1.514 0.841,2.86 1.346,4.375c2.355,6.73 6.562,12.282 8.412,14.133l58.722,0c-2.188,-2.019 -6.562,-7.908 -9.086,-15.984c-2.188,-7.235 -2.188,-16.321 -2.188,-25.911l0,-73.36c0,-45.597 -43.409,-66.965 -91.53,-66.965c-51.318,-0 -91.363,23.555 -91.363,67.638l59.226,0c-0,-15.143 10.6,-22.714 31.632,-22.714c19.686,-0 31.8,7.403 31.8,18.171l0,0.337c0,6.898 -11.273,8.581 -48.962,12.114c-39.204,3.702 -76.388,19.181 -76.388,57.88c-0,33.651 28.267,52.664 67.134,52.664Zm17.162,-43.578c-15.648,-0 -24.061,-4.879 -24.061,-14.807c0,-10.263 9.254,-13.965 28.435,-15.984c12.283,-1.178 25.575,-3.197 37.353,-6.057c-2.356,26.753 -22.378,36.848 -41.727,36.848Z" style="fill-rule:nonzero;"/><path d="M4062.45,776.696c21.2,-0 40.045,-9.423 54.01,-24.566l0,20.359l60.067,0l0,-262.983l-60.067,0l0,104.15c-13.965,-14.638 -32.978,-23.387 -54.01,-23.387c-43.241,-0 -83.791,32.809 -83.791,91.867c-0,62.086 39.035,94.56 83.791,94.56Zm16.321,-51.15c-19.854,-0 -38.194,-13.292 -38.194,-43.41c-0,-29.949 18.34,-42.569 38.194,-42.569c18.508,0 37.689,13.124 37.689,36.848l0,11.274c0,23.892 -18.676,37.857 -37.689,37.857Z" style="fill-rule:nonzero;"/><g><path d="M527.522,654.517c0,-74.159 -60.119,-134.277 -134.277,-134.277c-74.152,-0 -134.271,60.118 -134.271,134.277c-0,74.158 60.119,134.276 134.271,134.276c74.158,0 134.277,-60.118 134.277,-134.276" style="fill:#e2341d;"/><path d="M738.648,571.522c29.82,-53.954 89.459,-53.954 119.28,-26.977c29.82,26.977 29.82,80.931 -0,134.884c-20.875,40.466 -74.55,80.931 -119.28,107.908c-44.73,-26.977 -98.405,-67.442 -119.279,-107.908c-29.82,-53.953 -29.82,-107.907 -0,-134.884c29.82,-26.977 89.459,-26.977 119.279,26.977Z" style="fill:#fdc50f;"/><path d="M1240.35,514.397l-37.494,73.552c-1.489,2.925 -0.04,6.484 3.065,7.539l50.642,17.154c4.1,1.389 4.962,6.818 1.489,9.409l-42.876,32.005c-2.631,1.956 -2.904,5.796 -0.587,8.113l58.347,58.348c3.686,3.686 0.501,9.929 -4.641,9.114l-81.531,-12.881c-3.239,-0.514 -6.177,1.964 -6.224,5.242l-0.701,53.493c-0.053,4.327 -4.948,6.818 -8.487,4.321l-43.657,-30.87c-2.671,-1.897 -6.411,-0.975 -7.9,1.95l-37.494,73.559c-2.37,4.641 -9.295,3.539 -10.109,-1.61l-12.881,-81.505c-0.514,-3.238 -3.78,-5.275 -6.911,-4.3l-51.076,15.892c-4.14,1.289 -8.027,-2.597 -6.738,-6.737l15.892,-51.069c0.975,-3.132 -1.055,-6.404 -4.293,-6.912l-81.512,-12.887c-5.148,-0.808 -6.25,-7.739 -1.609,-10.103l73.565,-37.501c2.918,-1.489 3.84,-5.222 1.944,-7.899l-30.864,-43.658c-2.504,-3.539 -0.013,-8.433 4.321,-8.487l53.493,-0.701c3.272,-0.04 5.749,-2.985 5.242,-6.223l-12.888,-81.525c-0.815,-5.149 5.436,-8.327 9.115,-4.641l58.348,58.341c2.323,2.324 6.156,2.043 8.119,-0.581l31.999,-42.883c2.597,-3.472 8.019,-2.611 9.408,1.496l17.155,50.635c1.055,3.105 4.621,4.554 7.545,3.065l73.546,-37.487c4.647,-2.371 9.602,2.591 7.238,7.232" style="fill:#61b22b;"/></g><path d="M1431.26,1018.16l-35.56,-127.724l11.644,0l31.973,119.235l-0.947,0l31.602,-119.235l11.7,0l-35.157,127.724l-15.255,-0Z" style="fill:#1c1c1b;fill-rule:nonzero;"/><path d="M1501.14,976.096l-0,-9.521l73.984,0l-2.093,2.925l0,-1.72c0,-5.927 -1.257,-11.432 -3.771,-16.518c-2.514,-5.085 -6.17,-9.181 -10.969,-12.288c-4.798,-3.106 -10.638,-4.659 -17.521,-4.659c-6.959,-0 -13.105,1.591 -18.439,4.774c-5.334,3.183 -9.501,7.575 -12.502,13.177c-3.002,5.601 -4.502,12.082 -4.502,19.443c-0,7.493 1.481,14.06 4.444,19.699c2.964,5.64 7.117,10.028 12.46,13.163c5.343,3.135 11.552,4.702 18.626,4.702c5.256,0 9.82,-0.654 13.691,-1.964c3.872,-1.309 7.079,-3.02 9.621,-5.132c2.543,-2.113 4.484,-4.359 5.822,-6.739c1.339,-2.381 2.122,-4.641 2.352,-6.782l10.638,0c-0.267,3.384 -1.361,6.849 -3.283,10.395c-1.921,3.546 -4.645,6.829 -8.172,9.85c-3.528,3.021 -7.877,5.463 -13.048,7.327c-5.172,1.864 -11.142,2.796 -17.909,2.796c-8.851,0 -16.699,-2.003 -23.543,-6.008c-6.844,-4.005 -12.23,-9.549 -16.159,-16.632c-3.929,-7.083 -5.893,-15.232 -5.893,-24.447c-0,-9.291 1.974,-17.478 5.922,-24.561c3.948,-7.083 9.363,-12.636 16.245,-16.66c6.882,-4.025 14.72,-6.037 23.514,-6.037c8.928,0 16.661,2.041 23.199,6.123c6.538,4.081 11.59,9.601 15.155,16.56c3.566,6.959 5.348,14.759 5.348,23.4c0,0.746 -0.019,1.702 -0.057,2.867c-0.038,1.166 -0.095,1.989 -0.171,2.467l-82.989,0Z" style="fill:#1c1c1b;fill-rule:nonzero;"/><path d="M1610.34,1017.33l-0,-91.362l10.611,-0l-0,26.898l-3.757,-1.147c0.363,-2.868 1.209,-5.874 2.538,-9.019c1.328,-3.144 3.197,-6.083 5.606,-8.818c2.409,-2.734 5.444,-4.951 9.104,-6.653c3.661,-1.701 8.005,-2.552 13.034,-2.552c3.651,0 6.6,0.316 8.846,0.947c2.247,0.631 3.656,1.128 4.23,1.49l-2.925,10.325c-0.574,-0.401 -1.745,-0.917 -3.513,-1.548c-1.769,-0.631 -4.325,-0.947 -7.671,-0.947c-4.817,0 -8.861,0.927 -12.13,2.782c-3.269,1.854 -5.883,4.267 -7.842,7.24c-1.96,2.973 -3.37,6.146 -4.23,9.52c-0.86,3.374 -1.29,6.6 -1.29,9.678l-0,53.166l-10.611,-0Z" style="fill:#1c1c1b;fill-rule:nonzero;"/><path d="M1679.59,1017.33l0,-134.462l10.152,-0l-0,84.221l-3.068,-1.318l47.458,-39.803l13.851,-0l-44.447,38.082l2.609,-5.65l42.584,58.93l-11.642,-0l-38.083,-53.166l2.753,1.521l-13.792,11.642l1.777,-5.334l-0,45.337l-10.152,-0Z" style="fill:#1c1c1b;fill-rule:nonzero;"/><path d="M1765.76,976.096l0,-9.521l73.984,0l-2.092,2.925l-0,-1.72c-0,-5.927 -1.257,-11.432 -3.772,-16.518c-2.514,-5.085 -6.17,-9.181 -10.968,-12.288c-4.798,-3.106 -10.639,-4.659 -17.521,-4.659c-6.959,-0 -13.106,1.591 -18.44,4.774c-5.333,3.183 -9.501,7.575 -12.502,13.177c-3.001,5.601 -4.502,12.082 -4.502,19.443c0,7.493 1.482,14.06 4.445,19.699c2.963,5.64 7.116,10.028 12.459,13.163c5.343,3.135 11.552,4.702 18.626,4.702c5.257,0 9.821,-0.654 13.692,-1.964c3.871,-1.309 7.078,-3.02 9.621,-5.132c2.543,-2.113 4.483,-4.359 5.822,-6.739c1.338,-2.381 2.122,-4.641 2.351,-6.782l10.638,0c-0.267,3.384 -1.361,6.849 -3.282,10.395c-1.922,3.546 -4.646,6.829 -8.173,9.85c-3.527,3.021 -7.876,5.463 -13.048,7.327c-5.172,1.864 -11.141,2.796 -17.909,2.796c-8.851,0 -16.698,-2.003 -23.542,-6.008c-6.845,-4.005 -12.231,-9.549 -16.16,-16.632c-3.928,-7.083 -5.893,-15.232 -5.893,-24.447c0,-9.291 1.974,-17.478 5.922,-24.561c3.948,-7.083 9.363,-12.636 16.246,-16.66c6.882,-4.025 14.72,-6.037 23.513,-6.037c8.929,0 16.662,2.041 23.2,6.123c6.538,4.081 11.59,9.601 15.155,16.56c3.565,6.959 5.348,14.759 5.348,23.4c-0,0.746 -0.019,1.702 -0.057,2.867c-0.039,1.166 -0.096,1.989 -0.172,2.467l-82.989,0Z" style="fill:#1c1c1b;fill-rule:nonzero;"/><path d="M1940.74,1017.33l0,-53.51c0,-9.367 -2.074,-16.55 -6.222,-21.549c-4.149,-4.999 -10.534,-7.499 -19.156,-7.499c-5.792,0 -10.93,1.2 -15.413,3.599c-4.483,2.399 -8,5.596 -10.553,9.591c-2.552,3.996 -3.828,8.393 -3.828,13.191l-7.054,-2.064c-0,-6.156 1.654,-11.843 4.961,-17.062c3.307,-5.219 7.876,-9.415 13.706,-12.589c5.831,-3.174 12.493,-4.761 19.988,-4.761c10.897,0 19.318,3.303 25.263,9.908c5.946,6.605 8.918,15.728 8.918,27.371l0,55.374l-10.61,-0Zm-65.783,-0l0,-134.462l10.611,-0l0,134.462l-10.611,-0Z" style="fill:#1c1c1b;fill-rule:nonzero;"/><path d="M1980.52,1017.33l-0,-91.362l10.611,-0l-0,26.898l-3.757,-1.147c0.363,-2.868 1.209,-5.874 2.538,-9.019c1.329,-3.144 3.197,-6.083 5.606,-8.818c2.409,-2.734 5.444,-4.951 9.104,-6.653c3.661,-1.701 8.005,-2.552 13.034,-2.552c3.651,0 6.6,0.316 8.846,0.947c2.247,0.631 3.656,1.128 4.23,1.49l-2.925,10.325c-0.574,-0.401 -1.745,-0.917 -3.513,-1.548c-1.769,-0.631 -4.325,-0.947 -7.671,-0.947c-4.817,0 -8.861,0.927 -12.13,2.782c-3.269,1.854 -5.883,4.267 -7.842,7.24c-1.96,2.973 -3.37,6.146 -4.23,9.52c-0.86,3.374 -1.29,6.6 -1.29,9.678l-0,53.166l-10.611,-0Z" style="fill:#1c1c1b;fill-rule:nonzero;"/><path d="M2081.14,1018.97c-5.524,0 -10.547,-0.573 -15.069,-1.72c-4.521,-1.147 -8.416,-2.82 -11.685,-5.019c-3.269,-2.198 -5.803,-4.899 -7.6,-8.101c-1.797,-3.201 -2.743,-6.858 -2.838,-10.968c-0.02,-0.516 -0.03,-2.638 -0.03,-3.039l10.698,-0c-0,0.401 0.009,2.045 0.028,2.58c0.153,5.315 2.571,9.415 7.255,12.302c4.684,2.887 11.155,4.33 19.413,4.33c5.258,0 9.889,-0.592 13.894,-1.778c4.005,-1.185 7.145,-2.934 9.42,-5.247c2.275,-2.314 3.413,-5.143 3.413,-8.488c-0,-5.544 -2.394,-9.507 -7.183,-11.887c-4.789,-2.38 -11.829,-4.364 -21.12,-5.951c-4.78,-0.84 -9.254,-1.896 -13.421,-3.168c-4.168,-1.271 -7.814,-2.906 -10.94,-4.903c-3.126,-1.998 -5.573,-4.483 -7.341,-7.456c-1.769,-2.973 -2.653,-6.553 -2.653,-10.739c-0,-5.353 1.606,-9.888 4.817,-13.607c3.212,-3.718 7.523,-6.553 12.934,-8.503c5.41,-1.95 11.384,-2.925 17.922,-2.925c6.481,0 12.431,0.985 17.851,2.954c5.42,1.97 9.764,4.914 13.033,8.832c3.27,3.919 4.904,8.851 4.904,14.797l0,1.865l-10.639,-0l-0,-1.549c-0,-4.149 -1.176,-7.49 -3.527,-10.023c-2.352,-2.533 -5.42,-4.382 -9.205,-5.549c-3.786,-1.166 -7.848,-1.749 -12.187,-1.749c-4.244,-0 -8.306,0.511 -12.188,1.534c-3.881,1.023 -7.049,2.639 -9.506,4.847c-2.456,2.208 -3.684,5.109 -3.684,8.703c-0,3.632 1.152,6.552 3.455,8.76c2.304,2.208 5.544,3.982 9.721,5.32c4.178,1.338 9.067,2.524 14.667,3.556c5.067,0.918 9.723,2.026 13.967,3.326c4.244,1.3 7.919,2.93 11.025,4.889c3.107,1.959 5.52,4.411 7.241,7.355c1.72,2.945 2.581,6.529 2.581,10.755c-0,4.205 -0.951,7.899 -2.853,11.083c-1.902,3.183 -4.555,5.859 -7.958,8.029c-3.403,2.17 -7.37,3.805 -11.901,4.904c-4.531,1.099 -9.434,1.648 -14.711,1.648Z" style="fill:#1c1c1b;fill-rule:nonzero;"/><path d="M2214.74,1017.33l-26.554,-91.362l9.578,-0l25.321,86.172l-2.007,-0l17.778,-86.172l11.099,-0l-20.59,91.362l-14.625,-0Zm-60.22,-0l-20.79,-91.362l11.097,-0l17.98,86.172l-2.007,-0l25.063,-86.172l9.579,-0l-26.239,91.362l-14.683,-0Z" style="fill:#1c1c1b;fill-rule:nonzero;"/><path d="M2274.36,976.096l-0,-9.521l73.984,0l-2.093,2.925l-0,-1.72c-0,-5.927 -1.257,-11.432 -3.771,-16.518c-2.514,-5.085 -6.171,-9.181 -10.969,-12.288c-4.798,-3.106 -10.638,-4.659 -17.521,-4.659c-6.959,-0 -13.106,1.591 -18.439,4.774c-5.334,3.183 -9.501,7.575 -12.503,13.177c-3.001,5.601 -4.501,12.082 -4.501,19.443c-0,7.493 1.481,14.06 4.444,19.699c2.963,5.64 7.116,10.028 12.46,13.163c5.343,3.135 11.551,4.702 18.625,4.702c5.257,0 9.821,-0.654 13.692,-1.964c3.872,-1.309 7.079,-3.02 9.621,-5.132c2.543,-2.113 4.484,-4.359 5.822,-6.739c1.338,-2.381 2.122,-4.641 2.352,-6.782l10.638,0c-0.267,3.384 -1.362,6.849 -3.283,10.395c-1.921,3.546 -4.645,6.829 -8.173,9.85c-3.527,3.021 -7.876,5.463 -13.048,7.327c-5.171,1.864 -11.141,2.796 -17.908,2.796c-8.851,0 -16.699,-2.003 -23.543,-6.008c-6.844,-4.005 -12.231,-9.549 -16.159,-16.632c-3.929,-7.083 -5.893,-15.232 -5.893,-24.447c-0,-9.291 1.974,-17.478 5.922,-24.561c3.947,-7.083 9.363,-12.636 16.245,-16.66c6.882,-4.025 14.72,-6.037 23.514,-6.037c8.928,0 16.661,2.041 23.199,6.123c6.538,4.081 11.59,9.601 15.155,16.56c3.565,6.959 5.348,14.759 5.348,23.4c0,0.746 -0.019,1.702 -0.057,2.867c-0.038,1.166 -0.095,1.989 -0.172,2.467l-82.988,0Z" style="fill:#1c1c1b;fill-rule:nonzero;"/><path d="M2449.23,1017.33l-0,-57.037c-0,-5.085 -0.904,-9.545 -2.71,-13.377c-1.807,-3.833 -4.574,-6.815 -8.302,-8.947c-3.728,-2.131 -8.517,-3.197 -14.367,-3.197c-5.124,0 -9.956,1.271 -14.496,3.814c-4.54,2.542 -8.206,5.988 -10.997,10.337c-2.791,4.35 -4.186,9.258 -4.186,14.725l-6.396,-2.437c-0,-6.939 1.792,-13.162 5.377,-18.668c3.584,-5.506 8.278,-9.86 14.08,-13.062c5.802,-3.202 11.982,-4.804 18.539,-4.804c6.921,0 12.933,1.301 18.038,3.901c5.104,2.6 9.052,6.356 11.843,11.269c2.791,4.913 4.186,10.868 4.186,17.865l0,59.618l-10.609,-0Zm-65.67,-0l0,-91.362l10.612,-0l-0,91.362l-10.612,-0Z" style="fill:#1c1c1b;fill-rule:nonzero;"/><path d="M2524.82,1018.97c-7.475,0 -14.233,-1.825 -20.274,-5.477c-6.041,-3.651 -10.825,-9.004 -14.353,-16.058c-3.527,-7.054 -5.29,-15.648 -5.29,-25.78c-0,-10.018 1.782,-18.525 5.348,-25.522c3.566,-6.997 8.369,-12.321 14.41,-15.973c6.041,-3.651 12.76,-5.477 20.159,-5.477c6.997,0 13.482,1.654 19.457,4.961c5.974,3.307 10.773,7.819 14.395,13.536c3.623,5.716 5.434,12.206 5.434,19.47l0,1.204l-7.856,0.173l-0,-1.147c-0,-5.219 -1.396,-9.975 -4.188,-14.267c-2.791,-4.292 -6.471,-7.728 -11.04,-10.309c-4.569,-2.581 -9.511,-3.871 -14.826,-3.871c-8.87,-0 -16.149,3.121 -21.836,9.363c-5.688,6.242 -8.532,15.528 -8.532,27.859c0,12.292 2.853,21.578 8.56,27.858c5.707,6.28 12.976,9.42 21.808,9.42c5.43,0 10.42,-1.309 14.97,-3.928c4.55,-2.619 8.201,-6.137 10.954,-10.553c2.753,-4.416 4.13,-9.348 4.13,-14.797l7.856,0.172c0,7.399 -1.778,14.056 -5.333,19.973c-3.556,5.917 -8.302,10.591 -14.238,14.023c-5.936,3.431 -12.508,5.147 -19.715,5.147Zm31.43,-1.634l-0,-134.462l10.695,-0l0,134.462l-10.695,-0Z" style="fill:#1c1c1b;fill-rule:nonzero;"/><path d="M2599.12,976.096l-0,-9.521l73.984,0l-2.093,2.925l0,-1.72c0,-5.927 -1.257,-11.432 -3.771,-16.518c-2.514,-5.085 -6.17,-9.181 -10.969,-12.288c-4.798,-3.106 -10.638,-4.659 -17.521,-4.659c-6.959,-0 -13.105,1.591 -18.439,4.774c-5.334,3.183 -9.501,7.575 -12.502,13.177c-3.002,5.601 -4.502,12.082 -4.502,19.443c-0,7.493 1.481,14.06 4.444,19.699c2.964,5.64 7.117,10.028 12.46,13.163c5.343,3.135 11.552,4.702 18.626,4.702c5.256,0 9.82,-0.654 13.691,-1.964c3.872,-1.309 7.079,-3.02 9.621,-5.132c2.543,-2.113 4.484,-4.359 5.822,-6.739c1.339,-2.381 2.122,-4.641 2.352,-6.782l10.638,0c-0.267,3.384 -1.361,6.849 -3.283,10.395c-1.921,3.546 -4.645,6.829 -8.172,9.85c-3.528,3.021 -7.877,5.463 -13.048,7.327c-5.172,1.864 -11.142,2.796 -17.909,2.796c-8.851,0 -16.699,-2.003 -23.543,-6.008c-6.844,-4.005 -12.23,-9.549 -16.159,-16.632c-3.929,-7.083 -5.893,-15.232 -5.893,-24.447c-0,-9.291 1.974,-17.478 5.922,-24.561c3.948,-7.083 9.363,-12.636 16.245,-16.66c6.882,-4.025 14.72,-6.037 23.514,-6.037c8.928,0 16.661,2.041 23.199,6.123c6.538,4.081 11.59,9.601 15.155,16.56c3.566,6.959 5.348,14.759 5.348,23.4c0,0.746 -0.019,1.702 -0.057,2.867c-0.038,1.166 -0.095,1.989 -0.171,2.467l-82.989,0Z" style="fill:#1c1c1b;fill-rule:nonzero;"/><path d="M2820.58,925.97l-31.628,91.362l-13.593,-0l-32.29,-91.362l11.012,-0l28.935,85.082l-1.721,-0l28.274,-85.082l11.011,-0Z" style="fill:#1c1c1b;fill-rule:nonzero;"/><path d="M2879.05,1018.91c-8.947,0 -16.857,-2.059 -23.729,-6.179c-6.873,-4.119 -12.26,-9.754 -16.16,-16.904c-3.899,-7.15 -5.849,-15.247 -5.849,-24.288c-0,-9.062 1.95,-17.115 5.849,-24.16c3.9,-7.045 9.287,-12.58 16.16,-16.604c6.872,-4.024 14.782,-6.036 23.729,-6.036c8.947,0 16.857,2.012 23.73,6.036c6.873,4.024 12.259,9.559 16.159,16.604c3.9,7.045 5.85,15.098 5.85,24.16c0,9.041 -1.95,17.138 -5.85,24.288c-3.9,7.15 -9.286,12.785 -16.159,16.904c-6.873,4.12 -14.783,6.179 -23.73,6.179Zm0,-9.749c6.864,0 12.924,-1.606 18.181,-4.817c5.257,-3.212 9.382,-7.652 12.373,-13.321c2.992,-5.668 4.488,-12.163 4.488,-19.484c-0,-7.323 -1.496,-13.77 -4.488,-19.343c-2.991,-5.572 -7.116,-9.917 -12.373,-13.033c-5.257,-3.116 -11.317,-4.674 -18.181,-4.674c-6.825,-0 -12.875,1.558 -18.152,4.674c-5.276,3.116 -9.41,7.461 -12.402,13.033c-2.992,5.573 -4.487,12.02 -4.487,19.343c-0,7.321 1.495,13.816 4.487,19.484c2.992,5.669 7.126,10.109 12.402,13.321c5.277,3.211 11.327,4.817 18.152,4.817Z" style="fill:#1c1c1b;fill-rule:nonzero;"/><path d="M3015.98,1017.33l-0,-57.037c-0,-5.085 -0.903,-9.545 -2.71,-13.377c-1.807,-3.833 -4.574,-6.815 -8.302,-8.947c-3.728,-2.131 -8.517,-3.197 -14.366,-3.197c-5.125,0 -9.957,1.271 -14.497,3.814c-4.54,2.542 -8.206,5.988 -10.997,10.337c-2.791,4.35 -4.186,9.258 -4.186,14.725l-6.396,-2.437c0,-6.939 1.792,-13.162 5.377,-18.668c3.584,-5.506 8.278,-9.86 14.08,-13.062c5.803,-3.202 11.982,-4.804 18.539,-4.804c6.921,0 12.934,1.301 18.038,3.901c5.104,2.6 9.052,6.356 11.843,11.269c2.791,4.913 4.187,10.868 4.187,17.865l-0,59.618l-10.61,-0Zm-65.669,-0l-0,-91.362l10.611,-0l-0,91.362l-10.611,-0Z" style="fill:#1c1c1b;fill-rule:nonzero;"/><path d="M3131.49,1018.91c-6.576,0 -11.991,-1.156 -16.244,-3.469c-4.254,-2.313 -7.586,-5.29 -9.995,-8.932c-2.408,-3.642 -4.086,-7.547 -5.032,-11.715c-0.946,-4.168 -1.42,-8.096 -1.42,-11.785l0,-57.037l10.697,-0l0,54.686c0,4.912 0.717,9.533 2.151,13.864c1.434,4.33 3.9,7.842 7.399,10.538c3.498,2.696 8.277,4.043 14.337,4.043c5.64,0 10.615,-1.553 14.926,-4.659c4.311,-3.107 7.69,-7.054 10.137,-11.843c2.447,-4.789 3.67,-9.698 3.67,-14.726l6.51,2.667c-0,4.569 -0.846,9.11 -2.538,13.621c-1.692,4.512 -4.134,8.641 -7.326,12.388c-3.193,3.747 -7.088,6.744 -11.686,8.99c-4.598,2.246 -9.793,3.369 -15.586,3.369Zm30.626,-1.576l0,-91.362l10.639,-0l0,91.362l-10.639,-0Z" style="fill:#1c1c1b;fill-rule:nonzero;"/><path d="M3267.7,1017.33l0,-57.037c0,-5.085 -0.903,-9.545 -2.71,-13.377c-1.806,-3.833 -4.574,-6.815 -8.301,-8.947c-3.728,-2.131 -8.517,-3.197 -14.367,-3.197c-5.124,0 -9.956,1.271 -14.497,3.814c-4.54,2.542 -8.205,5.988 -10.996,10.337c-2.791,4.35 -4.187,9.258 -4.187,14.725l-6.396,-2.437c0,-6.939 1.793,-13.162 5.377,-18.668c3.585,-5.506 8.278,-9.86 14.081,-13.062c5.802,-3.202 11.982,-4.804 18.539,-4.804c6.92,0 12.933,1.301 18.037,3.901c5.105,2.6 9.052,6.356 11.843,11.269c2.791,4.913 4.187,10.868 4.187,17.865l-0,59.618l-10.61,-0Zm-65.669,-0l0,-91.362l10.611,-0l0,91.362l-10.611,-0Z" style="fill:#1c1c1b;fill-rule:nonzero;"/><path d="M3336.87,1018.74c-2.581,0 -5.086,-0.324 -7.514,-0.974c-2.428,-0.65 -4.598,-1.783 -6.509,-3.398c-1.912,-1.616 -3.423,-3.858 -4.531,-6.725c-1.109,-2.868 -1.663,-6.519 -1.663,-10.954l0,-61.31l-21.967,0l0,-9.405l15.773,-0c1.51,-0 2.691,-0.053 3.541,-0.158c0.851,-0.105 1.463,-0.387 1.836,-0.846c0.373,-0.459 0.602,-1.176 0.688,-2.151c0.086,-0.975 0.129,-2.342 0.129,-4.1l0,-22.225l10.696,0l-0,29.48l29.249,-0l0,9.405l-29.249,0l-0,57.411c-0,5.199 0.755,9.252 2.265,12.158c1.511,2.906 4.388,4.359 8.632,4.359c1.625,-0 3.216,-0.139 4.774,-0.416c1.558,-0.277 2.72,-0.598 3.485,-0.961l-0,9.32c-0.937,0.401 -2.271,0.75 -4.001,1.046c-1.73,0.296 -3.608,0.444 -5.634,0.444Z" style="fill:#1c1c1b;fill-rule:nonzero;"/><path d="M3379.56,976.096l-0,-9.521l73.984,0l-2.093,2.925l0,-1.72c0,-5.927 -1.257,-11.432 -3.771,-16.518c-2.514,-5.085 -6.17,-9.181 -10.968,-12.288c-4.799,-3.106 -10.639,-4.659 -17.521,-4.659c-6.96,-0 -13.106,1.591 -18.44,4.774c-5.334,3.183 -9.501,7.575 -12.502,13.177c-3.001,5.601 -4.502,12.082 -4.502,19.443c0,7.493 1.482,14.06 4.445,19.699c2.963,5.64 7.116,10.028 12.459,13.163c5.343,3.135 11.552,4.702 18.626,4.702c5.256,0 9.82,-0.654 13.692,-1.964c3.871,-1.309 7.078,-3.02 9.621,-5.132c2.542,-2.113 4.483,-4.359 5.821,-6.739c1.339,-2.381 2.123,-4.641 2.352,-6.782l10.638,0c-0.267,3.384 -1.361,6.849 -3.283,10.395c-1.921,3.546 -4.645,6.829 -8.172,9.85c-3.527,3.021 -7.877,5.463 -13.048,7.327c-5.172,1.864 -11.141,2.796 -17.909,2.796c-8.851,0 -16.699,-2.003 -23.543,-6.008c-6.844,-4.005 -12.23,-9.549 -16.159,-16.632c-3.929,-7.083 -5.893,-15.232 -5.893,-24.447c0,-9.291 1.974,-17.478 5.922,-24.561c3.948,-7.083 9.363,-12.636 16.245,-16.66c6.882,-4.025 14.72,-6.037 23.514,-6.037c8.928,0 16.661,2.041 23.199,6.123c6.539,4.081 11.59,9.601 15.156,16.56c3.565,6.959 5.347,14.759 5.347,23.4c0,0.746 -0.019,1.702 -0.057,2.867c-0.038,1.166 -0.095,1.989 -0.171,2.467l-82.989,0Z" style="fill:#1c1c1b;fill-rule:nonzero;"/><path d="M3554.43,1017.33l-0,-57.037c-0,-5.085 -0.903,-9.545 -2.71,-13.377c-1.807,-3.833 -4.574,-6.815 -8.302,-8.947c-3.728,-2.131 -8.516,-3.197 -14.366,-3.197c-5.124,0 -9.957,1.271 -14.497,3.814c-4.54,2.542 -8.206,5.988 -10.997,10.337c-2.791,4.35 -4.186,9.258 -4.186,14.725l-6.396,-2.437c0,-6.939 1.792,-13.162 5.377,-18.668c3.585,-5.506 8.278,-9.86 14.08,-13.062c5.803,-3.202 11.982,-4.804 18.539,-4.804c6.921,0 12.934,1.301 18.038,3.901c5.104,2.6 9.052,6.356 11.843,11.269c2.791,4.913 4.187,10.868 4.187,17.865l-0,59.618l-10.61,-0Zm-65.669,-0l-0,-91.362l10.611,-0l-0,91.362l-10.611,-0Z" style="fill:#1c1c1b;fill-rule:nonzero;"/></svg>