<?xml version="1.0" encoding="UTF-8" standalone="no"?><!DOCTYPE svg PUBLIC "-//W3C//DTD SVG 1.1//EN" "http://www.w3.org/Graphics/SVG/1.1/DTD/svg11.dtd"><svg width="100%" height="100%" viewBox="0 0 4567 1467" version="1.1" xmlns="http://www.w3.org/2000/svg" xmlns:xlink="http://www.w3.org/1999/xlink" xml:space="preserve" xmlns:serif="http://www.serif.com/" style="fill-rule:evenodd;clip-rule:evenodd;stroke-linejoin:round;stroke-miterlimit:2;"><rect id="mitglied-verbandfreierlastenräder-b" x="0.616" y="0.316" width="4565.48" height="1465.83" style="fill:none;"/><g transform="matrix(6.73787,0,0,6.73787,-2188.6,-3563.99)"><text x="531.292px" y="654.595px" style="font-family:'Epilogue-ExtraBold', 'Epilogue';font-weight:800;font-size:49.943px;">v<tspan x="558.936px " y="654.595px ">e</tspan>rband fr<tspan x="803.932px " y="654.595px ">e</tspan>ier</text><g transform="matrix(49.9432,0,0,49.9432,906.365,701.572)"></g><text x="600.788px" y="701.572px" style="font-family:'Epilogue-ExtraBold', 'Epilogue';font-weight:800;font-size:49.943px;">l<tspan x="615.072px 646.736px 674.404px 697.478px " y="701.572px 701.572px 701.572px 701.572px ">aste</tspan>nr<tspan x="784.729px " y="701.572px ">ä</tspan>der</text></g><g><path d="M3776.26,437.445c-0,-51.671 -41.889,-93.56 -93.561,-93.56c-51.667,-0 -93.556,41.889 -93.556,93.56c-0,51.672 41.889,93.561 93.556,93.561c51.672,0 93.561,-41.889 93.561,-93.561" style="fill:#e2341d;"/><path d="M3923.36,379.617c20.778,-37.594 62.333,-37.594 83.111,-18.797c20.778,18.797 20.778,56.39 -0,93.984c-14.545,28.195 -51.945,56.39 -83.111,75.187c-31.167,-18.797 -68.566,-46.992 -83.111,-75.187c-20.777,-37.594 -20.777,-75.187 0,-93.984c20.778,-18.797 62.333,-18.797 83.111,18.797Z" style="fill:#fdc50f;"/><path d="M4272.93,339.814l-26.124,51.249c-1.038,2.038 -0.028,4.518 2.135,5.253l35.286,11.952c2.857,0.968 3.457,4.751 1.038,6.556l-29.875,22.3c-1.833,1.364 -2.024,4.039 -0.41,5.653l40.656,40.656c2.568,2.568 0.348,6.918 -3.234,6.35l-56.809,-8.975c-2.257,-0.358 -4.304,1.368 -4.337,3.653l-0.488,37.272c-0.037,3.015 -3.448,4.751 -5.914,3.011l-30.419,-21.51c-1.861,-1.321 -4.467,-0.679 -5.504,1.359l-26.125,51.254c-1.652,3.234 -6.476,2.466 -7.044,-1.121l-8.975,-56.791c-0.358,-2.257 -2.634,-3.676 -4.816,-2.996l-35.588,11.073c-2.885,0.898 -5.593,-1.81 -4.695,-4.695l11.074,-35.583c0.679,-2.182 -0.735,-4.462 -2.992,-4.816l-56.795,-8.979c-3.587,-0.563 -4.355,-5.393 -1.121,-7.04l51.258,-26.129c2.033,-1.038 2.675,-3.639 1.354,-5.505l-21.505,-30.419c-1.744,-2.466 -0.009,-5.876 3.011,-5.913l37.272,-0.489c2.28,-0.028 4.006,-2.08 3.653,-4.336l-8.98,-56.805c-0.568,-3.587 3.787,-5.802 6.351,-3.233l40.655,40.65c1.619,1.619 4.29,1.424 5.658,-0.405l22.295,-29.879c1.81,-2.42 5.588,-1.819 6.556,1.042l11.953,35.281c0.735,2.164 3.219,3.173 5.257,2.136l51.245,-26.12c3.238,-1.652 6.69,1.805 5.043,5.039" style="fill:#61b22b;"/></g><g transform="matrix(172.056,0,0,172.056,1115.08,914.979)"></g><text x="209.805px" y="914.979px" style="font-family:'EpilogueRoman-Light', 'Epilogue';font-size:172.056px;fill:#1c1c1b;">Mitglied im</text></svg>