<?xml version="1.0" encoding="UTF-8" standalone="no"?><!DOCTYPE svg PUBLIC "-//W3C//DTD SVG 1.1//EN" "http://www.w3.org/Graphics/SVG/1.1/DTD/svg11.dtd"><svg width="100%" height="100%" viewBox="0 0 1096 353" version="1.1" xmlns="http://www.w3.org/2000/svg" xmlns:xlink="http://www.w3.org/1999/xlink" xml:space="preserve" xmlns:serif="http://www.serif.com/" style="fill-rule:evenodd;clip-rule:evenodd;stroke-linejoin:round;stroke-miterlimit:2;"><rect id="mitglied-verbandfreierlastenräder-b" x="0.083" y="0.166" width="1095.72" height="351.798" style="fill:none;"/><g transform="matrix(1.61709,0,0,1.61709,-525.328,-855.267)"><g transform="matrix(49.9432,0,0,49.9432,553.717,654.595)"><path d="M0.564,-0.531l-0.185,-0l-0.091,0.421l-0.096,-0.421l-0.184,-0l0.159,0.531l0.241,-0l0.156,-0.531Z" style="fill-rule:nonzero;"/></g><g transform="matrix(49.9432,0,0,49.9432,581.36,654.595)"><path d="M0.616,-0.168l-0.176,-0c-0.003,0.022 -0.031,0.049 -0.105,0.049c-0.071,0 -0.111,-0.034 -0.124,-0.096l0.411,0c0.001,-0.008 0.002,-0.024 0.002,-0.042c-0,-0.173 -0.114,-0.285 -0.297,-0.285c-0.177,0 -0.298,0.111 -0.298,0.277c0,0.163 0.116,0.278 0.298,0.278c0.177,-0 0.28,-0.089 0.289,-0.181Zm-0.286,-0.245c0.074,0 0.108,0.044 0.113,0.087l-0.23,-0c0.015,-0.056 0.055,-0.087 0.117,-0.087Z" style="fill-rule:nonzero;"/></g><g transform="matrix(49.9432,0,0,49.9432,613.948,654.595)"><path d="M0.056,-0l0.178,-0l0,-0.238c0,-0.071 0.036,-0.148 0.141,-0.148c0.031,0 0.053,0.01 0.059,0.013l0.026,-0.157c-0.006,-0.003 -0.028,-0.012 -0.071,-0.012c-0.071,0 -0.123,0.032 -0.155,0.084l0,-0.073l-0.178,-0l-0,0.531Z" style="fill-rule:nonzero;"/></g><g transform="matrix(49.9432,0,0,49.9432,637.871,654.595)"><path d="M0.056,-0l0.178,-0l0,-0.061c0.042,0.045 0.098,0.073 0.161,0.073c0.133,0 0.248,-0.096 0.248,-0.281c0,-0.175 -0.12,-0.272 -0.248,-0.272c-0.063,-0 -0.119,0.025 -0.161,0.069l0,-0.31l-0.178,0l-0,0.782Zm0.29,-0.395c0.06,-0 0.113,0.037 0.113,0.126c0,0.09 -0.054,0.129 -0.113,0.129c-0.056,0 -0.112,-0.041 -0.112,-0.112l0,-0.034c0,-0.07 0.057,-0.109 0.112,-0.109Z" style="fill-rule:nonzero;"/></g><g transform="matrix(49.9432,0,0,49.9432,671.458,654.595)"><path d="M0.234,0.012c0.073,-0 0.141,-0.025 0.182,-0.067c0.001,0.004 0.002,0.008 0.004,0.013c0.007,0.02 0.019,0.036 0.025,0.042l0.174,0c-0.006,-0.006 -0.019,-0.024 -0.027,-0.048c-0.006,-0.021 -0.006,-0.048 -0.006,-0.077l-0,-0.218c-0,-0.135 -0.129,-0.199 -0.272,-0.199c-0.153,0 -0.272,0.07 -0.272,0.201l0.176,0c0,-0.045 0.032,-0.067 0.094,-0.067c0.059,-0 0.095,0.022 0.095,0.054l-0,0.001c-0,0.02 -0.034,0.025 -0.146,0.036c-0.116,0.011 -0.227,0.057 -0.227,0.172c0,0.1 0.084,0.157 0.2,0.157Zm0.051,-0.13c-0.047,-0 -0.072,-0.015 -0.072,-0.044c0,-0.031 0.028,-0.042 0.085,-0.048c0.036,-0.003 0.076,-0.009 0.111,-0.018c-0.007,0.08 -0.067,0.11 -0.124,0.11Z" style="fill-rule:nonzero;"/></g><g transform="matrix(49.9432,0,0,49.9432,703.122,654.595)"><path d="M0.056,-0l0.178,-0l-0,-0.272c-0,-0.073 0.034,-0.12 0.102,-0.12c0.078,-0 0.091,0.055 0.091,0.115l0,0.277l0.178,-0l0,-0.329c0,-0.126 -0.054,-0.213 -0.187,-0.213c-0.077,0 -0.144,0.035 -0.184,0.093l-0,-0.082l-0.178,-0l-0,0.531Z" style="fill-rule:nonzero;"/></g><g transform="matrix(49.9432,0,0,49.9432,735.859,654.595)"><path d="M0.278,0.013c0.063,-0 0.119,-0.029 0.161,-0.074l-0,0.061l0.178,-0l0,-0.782l-0.178,0l-0,0.31c-0.042,-0.044 -0.098,-0.07 -0.161,-0.07c-0.128,0 -0.249,0.098 -0.249,0.273c0,0.185 0.116,0.282 0.249,0.282Zm0.049,-0.153c-0.059,0 -0.114,-0.039 -0.114,-0.129c0,-0.089 0.055,-0.126 0.114,-0.126c0.055,-0 0.112,0.039 0.112,0.109l-0,0.034c-0,0.071 -0.056,0.112 -0.112,0.112Z" style="fill-rule:nonzero;"/></g><g transform="matrix(49.9432,0,0,49.9432,781.807,654.595)"><path d="M0.119,-0l0.178,-0l0,-0.396l0.139,-0l-0,-0.135l-0.139,-0l0,-0.022c0,-0.059 0.022,-0.097 0.095,-0.097c0.024,0 0.047,0.005 0.055,0.008l0,-0.136c-0.008,-0.004 -0.028,-0.011 -0.075,-0.011c-0.099,0 -0.253,0.037 -0.253,0.232l0,0.026l-0.108,-0l-0,0.135l0.108,-0l0,0.396Z" style="fill-rule:nonzero;"/></g><g transform="matrix(49.9432,0,0,49.9432,804.431,654.595)"><path d="M0.056,-0l0.178,-0l0,-0.238c0,-0.071 0.036,-0.148 0.141,-0.148c0.031,0 0.053,0.01 0.059,0.013l0.026,-0.157c-0.006,-0.003 -0.028,-0.012 -0.071,-0.012c-0.071,0 -0.123,0.032 -0.155,0.084l0,-0.073l-0.178,-0l-0,0.531Z" style="fill-rule:nonzero;"/></g><g transform="matrix(49.9432,0,0,49.9432,827.855,654.595)"><path d="M0.616,-0.168l-0.176,-0c-0.003,0.022 -0.031,0.049 -0.105,0.049c-0.071,0 -0.111,-0.034 -0.124,-0.096l0.411,0c0.001,-0.008 0.002,-0.024 0.002,-0.042c-0,-0.173 -0.114,-0.285 -0.297,-0.285c-0.177,0 -0.298,0.111 -0.298,0.277c0,0.163 0.116,0.278 0.298,0.278c0.177,-0 0.28,-0.089 0.289,-0.181Zm-0.286,-0.245c0.074,0 0.108,0.044 0.113,0.087l-0.23,-0c0.015,-0.056 0.055,-0.087 0.117,-0.087Z" style="fill-rule:nonzero;"/></g><g transform="matrix(49.9432,0,0,49.9432,860.443,654.595)"><path d="M0.134,-0.606c0.053,0 0.1,-0.028 0.1,-0.08c0,-0.052 -0.047,-0.081 -0.1,-0.081c-0.054,0 -0.101,0.029 -0.101,0.081c0,0.051 0.047,0.08 0.101,0.08Zm-0.088,0.606l0.176,-0l0,-0.531l-0.176,-0l-0,0.531Z" style="fill-rule:nonzero;"/></g><g transform="matrix(49.9432,0,0,49.9432,873.777,654.595)"><path d="M0.616,-0.168l-0.176,-0c-0.003,0.022 -0.031,0.049 -0.105,0.049c-0.071,0 -0.111,-0.034 -0.124,-0.096l0.411,0c0.001,-0.008 0.002,-0.024 0.002,-0.042c-0,-0.173 -0.114,-0.285 -0.297,-0.285c-0.177,0 -0.298,0.111 -0.298,0.277c0,0.163 0.116,0.278 0.298,0.278c0.177,-0 0.28,-0.089 0.289,-0.181Zm-0.286,-0.245c0.074,0 0.108,0.044 0.113,0.087l-0.23,-0c0.015,-0.056 0.055,-0.087 0.117,-0.087Z" style="fill-rule:nonzero;"/></g><g transform="matrix(49.9432,0,0,49.9432,597.292,701.572)"><rect x="0.063" y="-0.782" width="0.176" height="0.782" style="fill-rule:nonzero;"/></g><g transform="matrix(49.9432,0,0,49.9432,612.075,701.572)"><path d="M0.234,0.012c0.073,-0 0.141,-0.025 0.182,-0.067c0.001,0.004 0.002,0.008 0.004,0.013c0.007,0.02 0.019,0.036 0.025,0.042l0.174,0c-0.006,-0.006 -0.019,-0.024 -0.027,-0.048c-0.006,-0.021 -0.006,-0.048 -0.006,-0.077l-0,-0.218c-0,-0.135 -0.129,-0.199 -0.272,-0.199c-0.153,0 -0.272,0.07 -0.272,0.201l0.176,0c0,-0.045 0.032,-0.067 0.094,-0.067c0.059,-0 0.095,0.022 0.095,0.054l-0,0.001c-0,0.02 -0.034,0.025 -0.146,0.036c-0.116,0.011 -0.227,0.057 -0.227,0.172c0,0.1 0.084,0.157 0.2,0.157Zm0.051,-0.13c-0.047,-0 -0.072,-0.015 -0.072,-0.044c0,-0.031 0.028,-0.042 0.085,-0.048c0.036,-0.003 0.076,-0.009 0.111,-0.018c-0.007,0.08 -0.067,0.11 -0.124,0.11Z" style="fill-rule:nonzero;"/></g><g transform="matrix(49.9432,0,0,49.9432,643.739,701.572)"><path d="M0.282,0.013c0.122,-0 0.255,-0.048 0.255,-0.176c-0,-0.121 -0.135,-0.151 -0.218,-0.164c-0.063,-0.01 -0.108,-0.021 -0.108,-0.047c-0,-0.029 0.043,-0.037 0.072,-0.037c0.034,-0 0.071,0.014 0.071,0.048l0,0.005l0.175,0l0,-0.006c0,-0.11 -0.117,-0.178 -0.245,-0.178c-0.134,0 -0.248,0.059 -0.248,0.171c0,0.11 0.122,0.148 0.216,0.163c0.08,0.013 0.112,0.021 0.112,0.05c0,0.028 -0.043,0.038 -0.077,0.038c-0.05,0 -0.081,-0.013 -0.081,-0.047l0,-0.006l-0.177,0l0,0.007c0,0.12 0.128,0.179 0.253,0.179Z" style="fill-rule:nonzero;"/></g><g transform="matrix(49.9432,0,0,49.9432,671.907,701.572)"><path d="M0.334,0.012c0.036,0 0.064,-0.007 0.079,-0.013l-0,-0.131c-0.01,0.004 -0.033,0.01 -0.056,0.01c-0.042,-0 -0.047,-0.031 -0.047,-0.074l0,-0.2l0.15,-0l0,-0.135l-0.15,-0l0,-0.175l-0.179,0l0,0.049c0,0.12 -0.009,0.126 -0.102,0.126l-0.018,-0l-0,0.135l0.12,-0l0,0.248c0,0.142 0.116,0.16 0.203,0.16Z" style="fill-rule:nonzero;"/></g><g transform="matrix(49.9432,0,0,49.9432,695.98,701.572)"><path d="M0.616,-0.168l-0.176,-0c-0.003,0.022 -0.031,0.049 -0.105,0.049c-0.071,0 -0.111,-0.034 -0.124,-0.096l0.411,0c0.001,-0.008 0.002,-0.024 0.002,-0.042c-0,-0.173 -0.114,-0.285 -0.297,-0.285c-0.177,0 -0.298,0.111 -0.298,0.277c0,0.163 0.116,0.278 0.298,0.278c0.177,-0 0.28,-0.089 0.289,-0.181Zm-0.286,-0.245c0.074,0 0.108,0.044 0.113,0.087l-0.23,-0c0.015,-0.056 0.055,-0.087 0.117,-0.087Z" style="fill-rule:nonzero;"/></g><g transform="matrix(49.9432,0,0,49.9432,728.568,701.572)"><path d="M0.056,-0l0.178,-0l-0,-0.272c-0,-0.073 0.034,-0.12 0.102,-0.12c0.078,-0 0.091,0.055 0.091,0.115l0,0.277l0.178,-0l0,-0.329c0,-0.126 -0.054,-0.213 -0.187,-0.213c-0.077,0 -0.144,0.035 -0.184,0.093l-0,-0.082l-0.178,-0l-0,0.531Z" style="fill-rule:nonzero;"/></g><g transform="matrix(49.9432,0,0,49.9432,761.305,701.572)"><path d="M0.056,-0l0.178,-0l0,-0.238c0,-0.071 0.036,-0.148 0.141,-0.148c0.031,0 0.053,0.01 0.059,0.013l0.026,-0.157c-0.006,-0.003 -0.028,-0.012 -0.071,-0.012c-0.071,0 -0.123,0.032 -0.155,0.084l0,-0.073l-0.178,-0l-0,0.531Z" style="fill-rule:nonzero;"/></g><g transform="matrix(49.9432,0,0,49.9432,784.729,701.572)"><path d="M0.194,-0.602c0.048,0 0.091,-0.026 0.091,-0.074c0,-0.047 -0.043,-0.073 -0.091,-0.073c-0.049,-0 -0.092,0.026 -0.092,0.073c0,0.048 0.043,0.074 0.092,0.074Zm0.257,0c0.048,0 0.091,-0.026 0.091,-0.074c0,-0.047 -0.043,-0.073 -0.091,-0.073c-0.049,-0 -0.092,0.026 -0.092,0.073c0,0.048 0.043,0.074 0.092,0.074Zm-0.217,0.614c0.073,-0 0.141,-0.025 0.182,-0.067c0.001,0.004 0.002,0.008 0.004,0.013c0.007,0.02 0.019,0.036 0.025,0.042l0.174,-0c-0.006,-0.006 -0.019,-0.024 -0.027,-0.048c-0.006,-0.021 -0.006,-0.048 -0.006,-0.077l-0,-0.218c-0,-0.135 -0.129,-0.199 -0.272,-0.199c-0.153,0 -0.272,0.07 -0.272,0.201l0.176,0c0,-0.045 0.032,-0.067 0.094,-0.067c0.059,-0 0.095,0.022 0.095,0.054l-0,0.001c-0,0.02 -0.034,0.025 -0.146,0.036c-0.116,0.011 -0.227,0.057 -0.227,0.172c0,0.1 0.084,0.157 0.2,0.157Zm0.051,-0.13c-0.047,-0 -0.072,-0.015 -0.072,-0.044c0,-0.031 0.028,-0.042 0.085,-0.048c0.036,-0.003 0.076,-0.009 0.111,-0.018c-0.007,0.08 -0.067,0.11 -0.124,0.11Z" style="fill-rule:nonzero;"/></g><g transform="matrix(49.9432,0,0,49.9432,816.393,701.572)"><path d="M0.278,0.013c0.063,-0 0.119,-0.029 0.161,-0.074l-0,0.061l0.178,-0l0,-0.782l-0.178,0l-0,0.31c-0.042,-0.044 -0.098,-0.07 -0.161,-0.07c-0.128,0 -0.249,0.098 -0.249,0.273c0,0.185 0.116,0.282 0.249,0.282Zm0.049,-0.153c-0.059,0 -0.114,-0.039 -0.114,-0.129c0,-0.089 0.055,-0.126 0.114,-0.126c0.055,-0 0.112,0.039 0.112,0.109l-0,0.034c-0,0.071 -0.056,0.112 -0.112,0.112Z" style="fill-rule:nonzero;"/></g><g transform="matrix(49.9432,0,0,49.9432,849.855,701.572)"><path d="M0.616,-0.168l-0.176,-0c-0.003,0.022 -0.031,0.049 -0.105,0.049c-0.071,0 -0.111,-0.034 -0.124,-0.096l0.411,0c0.001,-0.008 0.002,-0.024 0.002,-0.042c-0,-0.173 -0.114,-0.285 -0.297,-0.285c-0.177,0 -0.298,0.111 -0.298,0.277c0,0.163 0.116,0.278 0.298,0.278c0.177,-0 0.28,-0.089 0.289,-0.181Zm-0.286,-0.245c0.074,0 0.108,0.044 0.113,0.087l-0.23,-0c0.015,-0.056 0.055,-0.087 0.117,-0.087Z" style="fill-rule:nonzero;"/></g><g transform="matrix(49.9432,0,0,49.9432,882.443,701.572)"><path d="M0.056,-0l0.178,-0l0,-0.238c0,-0.071 0.036,-0.148 0.141,-0.148c0.031,0 0.053,0.01 0.059,0.013l0.026,-0.157c-0.006,-0.003 -0.028,-0.012 -0.071,-0.012c-0.071,0 -0.123,0.032 -0.155,0.084l0,-0.073l-0.178,-0l-0,0.531Z" style="fill-rule:nonzero;"/></g></g><g><path d="M906.237,105.077c-0,-12.402 -10.054,-22.455 -22.455,-22.455c-12.4,0 -22.454,10.053 -22.454,22.455c0,12.401 10.054,22.454 22.454,22.454c12.401,0 22.455,-10.053 22.455,-22.454" style="fill:#e2341d;"/><path d="M941.542,91.198c4.987,-9.023 14.96,-9.023 19.947,-4.511c4.987,4.511 4.987,13.533 -0,22.556c-3.491,6.767 -12.467,13.533 -19.947,18.045c-7.48,-4.512 -16.456,-11.278 -19.946,-18.045c-4.987,-9.023 -4.987,-18.045 -0,-22.556c4.986,-4.512 14.96,-4.512 19.946,4.511Z" style="fill:#fdc50f;"/><path d="M1025.44,81.645l-6.27,12.3c-0.249,0.489 -0.006,1.084 0.513,1.261l8.469,2.868c0.685,0.232 0.829,1.14 0.249,1.574l-7.17,5.352c-0.44,0.327 -0.486,0.969 -0.099,1.356l9.758,9.758c0.616,0.616 0.083,1.66 -0.776,1.524l-13.635,-2.154c-0.541,-0.086 -1.033,0.328 -1.04,0.876l-0.118,8.946c-0.009,0.723 -0.827,1.14 -1.419,0.722l-7.3,-5.162c-0.447,-0.317 -1.072,-0.163 -1.321,0.326l-6.27,12.301c-0.397,0.776 -1.555,0.592 -1.691,-0.269l-2.154,-13.63c-0.086,-0.541 -0.632,-0.882 -1.156,-0.719l-8.541,2.658c-0.692,0.215 -1.342,-0.435 -1.127,-1.127l2.658,-8.54c0.163,-0.524 -0.176,-1.071 -0.718,-1.156l-13.631,-2.155c-0.861,-0.135 -1.045,-1.294 -0.269,-1.689l12.302,-6.272c0.488,-0.249 0.642,-0.873 0.325,-1.321l-5.161,-7.3c-0.419,-0.592 -0.002,-1.41 0.722,-1.419l8.946,-0.118c0.547,-0.006 0.961,-0.499 0.876,-1.04l-2.155,-13.633c-0.136,-0.861 0.909,-1.393 1.524,-0.777l9.758,9.757c0.388,0.388 1.029,0.341 1.357,-0.098l5.351,-7.171c0.435,-0.58 1.342,-0.436 1.574,0.25l2.868,8.468c0.177,0.519 0.773,0.762 1.262,0.512l12.299,-6.268c0.777,-0.397 1.606,0.433 1.21,1.209" style="fill:#61b22b;"/></g><path d="M74.79,189.231l4.377,-0l-0,30.454l-2.437,-0l0,-28.41l0.096,0.034l-8.472,28.376l-3.723,-0l-8.486,-28.39l0.097,-0.034l-0,28.424l-2.437,-0l0,-30.454l4.378,-0l8.327,28.485l-0.082,0l8.362,-28.485Z" style="fill:#1c1c1b;fill-rule:nonzero;"/><path d="M87.597,219.685l0,-21.927l2.519,-0l0,21.927l-2.519,-0Zm1.28,-27.454c-0.532,0 -0.991,-0.156 -1.376,-0.468c-0.386,-0.312 -0.578,-0.729 -0.578,-1.252c-0,-0.51 0.192,-0.92 0.578,-1.232c0.385,-0.312 0.844,-0.468 1.376,-0.468c0.528,-0 0.982,0.156 1.363,0.468c0.381,0.312 0.571,0.722 0.571,1.232c0,0.523 -0.19,0.94 -0.571,1.252c-0.381,0.312 -0.835,0.468 -1.363,0.468Z" style="fill:#1c1c1b;fill-rule:nonzero;"/><path d="M105.305,220.022c-0.619,-0 -1.22,-0.078 -1.803,-0.234c-0.583,-0.156 -1.103,-0.428 -1.562,-0.816c-0.459,-0.388 -0.821,-0.926 -1.088,-1.614c-0.266,-0.688 -0.399,-1.564 -0.399,-2.629l0,-14.714l-5.272,-0l0,-2.257l3.786,-0c0.362,-0 0.646,-0.013 0.85,-0.038c0.204,-0.025 0.351,-0.093 0.44,-0.203c0.09,-0.11 0.145,-0.282 0.165,-0.516c0.021,-0.234 0.031,-0.562 0.031,-0.984l0,-5.334l2.567,-0l0,7.075l7.02,-0l0,2.257l-7.02,-0l0,13.778c0,1.248 0.182,2.221 0.544,2.918c0.363,0.698 1.053,1.047 2.072,1.047c0.39,-0 0.772,-0.034 1.145,-0.1c0.374,-0.067 0.653,-0.144 0.837,-0.231l-0,2.237c-0.225,0.096 -0.545,0.18 -0.96,0.251c-0.416,0.071 -0.866,0.107 -1.353,0.107Z" style="fill:#1c1c1b;fill-rule:nonzero;"/><path d="M129.221,218.755c1.129,0.088 2.126,0.294 2.991,0.62c0.864,0.326 1.542,0.802 2.033,1.428c0.491,0.626 0.737,1.44 0.737,2.44c-0,1.092 -0.378,2.072 -1.133,2.942c-0.754,0.869 -1.916,1.555 -3.486,2.058c-1.569,0.502 -3.571,0.753 -6.008,0.753c-3.395,0 -5.931,-0.51 -7.608,-1.531c-1.677,-1.021 -2.515,-2.364 -2.515,-4.029c-0,-0.57 0.066,-1.064 0.199,-1.484c0.133,-0.42 0.28,-0.758 0.441,-1.015l2.429,0.379c-0.119,0.174 -0.235,0.432 -0.347,0.774c-0.113,0.342 -0.169,0.74 -0.169,1.194c-0,1.22 0.666,2.127 1.999,2.718c1.333,0.592 3.243,0.888 5.73,0.888c1.881,0 3.412,-0.155 4.594,-0.464c1.181,-0.31 2.053,-0.732 2.615,-1.267c0.562,-0.534 0.843,-1.127 0.843,-1.779c-0,-0.986 -0.403,-1.637 -1.208,-1.951c-0.805,-0.314 -1.807,-0.515 -3.004,-0.602l-8.355,-0.612c-1.349,-0.106 -2.438,-0.494 -3.266,-1.164c-0.828,-0.669 -1.242,-1.509 -1.242,-2.519c0,-0.628 0.155,-1.211 0.465,-1.747c0.309,-0.537 0.673,-0.985 1.09,-1.343c0.418,-0.357 0.794,-0.573 1.129,-0.647l2.044,0.985c-0.376,0.068 -0.83,0.316 -1.363,0.743c-0.532,0.427 -0.798,0.95 -0.798,1.569c-0,0.551 0.228,1.006 0.685,1.366c0.456,0.36 1.297,0.588 2.522,0.685l7.956,0.612Zm3.242,-20.997l2.415,-0l-0.908,8.699c-0.165,1.619 -0.628,3.089 -1.387,4.408c-0.759,1.319 -1.812,2.368 -3.159,3.145c-1.346,0.778 -2.995,1.167 -4.945,1.167c-2.023,-0 -3.747,-0.39 -5.172,-1.17c-1.424,-0.78 -2.512,-1.836 -3.262,-3.166c-0.75,-1.331 -1.125,-2.815 -1.125,-4.453c-0,-1.661 0.397,-3.168 1.19,-4.522c0.794,-1.353 1.901,-2.428 3.321,-3.224c1.42,-0.796 3.059,-1.194 4.917,-1.194c1.721,0 3.201,0.31 4.44,0.929c1.238,0.62 2.211,1.383 2.918,2.292c0.706,0.908 1.11,1.801 1.211,2.677l-0.936,0l0.482,-5.588Zm-7.997,15.134c1.477,-0 2.74,-0.272 3.788,-0.816c1.048,-0.543 1.851,-1.309 2.409,-2.295c0.557,-0.986 0.836,-2.145 0.836,-3.476c0,-1.275 -0.28,-2.407 -0.84,-3.396c-0.559,-0.989 -1.362,-1.765 -2.408,-2.329c-1.046,-0.565 -2.299,-0.847 -3.758,-0.847c-1.395,0 -2.623,0.29 -3.685,0.871c-1.063,0.58 -1.891,1.369 -2.485,2.367c-0.594,0.998 -0.891,2.132 -0.891,3.403c-0,1.294 0.28,2.431 0.839,3.41c0.56,0.98 1.364,1.743 2.413,2.289c1.048,0.546 2.309,0.819 3.782,0.819Z" style="fill:#1c1c1b;fill-rule:nonzero;"/><rect x="141.244" y="187.414" width="2.519" height="32.271" style="fill:#1c1c1b;fill-rule:nonzero;"/><path d="M151.313,219.685l0,-21.927l2.519,-0l0,21.927l-2.519,-0Zm1.28,-27.454c-0.532,0 -0.991,-0.156 -1.376,-0.468c-0.386,-0.312 -0.578,-0.729 -0.578,-1.252c-0,-0.51 0.192,-0.92 0.578,-1.232c0.385,-0.312 0.844,-0.468 1.376,-0.468c0.528,-0 0.982,0.156 1.363,0.468c0.381,0.312 0.571,0.722 0.571,1.232c0,0.523 -0.19,0.94 -0.571,1.252c-0.381,0.312 -0.835,0.468 -1.363,0.468Z" style="fill:#1c1c1b;fill-rule:nonzero;"/><path d="M161.843,209.788l-0,-2.285l17.756,-0l-0.502,0.702l-0,-0.413c-0,-1.422 -0.302,-2.744 -0.905,-3.964c-0.604,-1.221 -1.481,-2.204 -2.633,-2.949c-1.151,-0.746 -2.553,-1.119 -4.205,-1.119c-1.67,0 -3.145,0.382 -4.425,1.146c-1.28,0.764 -2.28,1.818 -3.001,3.163c-0.72,1.344 -1.08,2.899 -1.08,4.666c-0,1.798 0.355,3.374 1.067,4.728c0.711,1.354 1.707,2.406 2.99,3.159c1.282,0.752 2.772,1.129 4.47,1.129c1.262,-0 2.357,-0.158 3.286,-0.472c0.929,-0.314 1.699,-0.725 2.309,-1.232c0.61,-0.507 1.076,-1.046 1.397,-1.617c0.322,-0.571 0.51,-1.114 0.565,-1.628l2.553,0c-0.064,0.813 -0.327,1.644 -0.788,2.495c-0.461,0.851 -1.115,1.639 -1.961,2.364c-0.847,0.725 -1.891,1.311 -3.132,1.759c-1.241,0.447 -2.674,0.671 -4.298,0.671c-2.124,-0 -4.008,-0.481 -5.65,-1.442c-1.643,-0.961 -2.936,-2.292 -3.879,-3.992c-0.942,-1.7 -1.414,-3.656 -1.414,-5.867c0,-2.23 0.474,-4.195 1.421,-5.895c0.948,-1.7 2.248,-3.033 3.899,-3.998c1.652,-0.966 3.533,-1.449 5.644,-1.449c2.142,0 3.998,0.49 5.567,1.469c1.57,0.98 2.782,2.305 3.638,3.975c0.855,1.67 1.283,3.542 1.283,5.616c0,0.179 -0.004,0.408 -0.014,0.688c-0.009,0.28 -0.022,0.477 -0.041,0.592l-19.917,0Z" style="fill:#1c1c1b;fill-rule:nonzero;"/><path d="M196.64,220.077c-1.794,-0 -3.416,-0.438 -4.866,-1.315c-1.45,-0.876 -2.598,-2.161 -3.445,-3.854c-0.846,-1.693 -1.27,-3.755 -1.27,-6.187c0,-2.404 0.428,-4.446 1.284,-6.125c0.856,-1.679 2.009,-2.957 3.458,-3.834c1.45,-0.876 3.063,-1.314 4.839,-1.314c1.679,0 3.235,0.397 4.669,1.191c1.434,0.793 2.586,1.876 3.455,3.248c0.87,1.372 1.304,2.93 1.304,4.673l0,0.289l-1.885,0.041l-0,-0.275c-0,-1.252 -0.335,-2.394 -1.005,-3.424c-0.67,-1.03 -1.553,-1.855 -2.65,-2.474c-1.096,-0.619 -2.283,-0.929 -3.558,-0.929c-2.129,-0 -3.876,0.749 -5.241,2.247c-1.365,1.498 -2.047,3.727 -2.047,6.686c-0,2.95 0.684,5.179 2.054,6.686c1.369,1.507 3.114,2.261 5.234,2.261c1.303,-0 2.501,-0.314 3.593,-0.943c1.092,-0.628 1.968,-1.473 2.629,-2.532c0.66,-1.06 0.991,-2.244 0.991,-3.552l1.885,0.042c0,1.775 -0.426,3.373 -1.28,4.793c-0.853,1.42 -1.992,2.542 -3.417,3.365c-1.424,0.824 -3.002,1.236 -4.731,1.236Zm7.543,-0.392l-0,-32.271l2.567,-0l-0,32.271l-2.567,-0Z" style="fill:#1c1c1b;fill-rule:nonzero;"/><path d="M224.485,219.685l0,-21.927l2.519,-0l0,21.927l-2.519,-0Zm1.28,-27.454c-0.532,0 -0.991,-0.156 -1.376,-0.468c-0.386,-0.312 -0.578,-0.729 -0.578,-1.252c-0,-0.51 0.192,-0.92 0.578,-1.232c0.385,-0.312 0.844,-0.468 1.376,-0.468c0.528,-0 0.982,0.156 1.363,0.468c0.381,0.312 0.571,0.722 0.571,1.232c0,0.523 -0.19,0.94 -0.571,1.252c-0.381,0.312 -0.835,0.468 -1.363,0.468Z" style="fill:#1c1c1b;fill-rule:nonzero;"/><path d="M247.94,219.685l-0,-13.937c-0,-0.537 -0.04,-1.14 -0.121,-1.81c-0.08,-0.67 -0.268,-1.313 -0.564,-1.93c-0.296,-0.618 -0.762,-1.128 -1.397,-1.532c-0.635,-0.403 -1.513,-0.605 -2.632,-0.605c-1.161,-0 -2.135,0.23 -2.922,0.691c-0.787,0.461 -1.419,1.055 -1.896,1.783c-0.477,0.727 -0.819,1.504 -1.025,2.329c-0.207,0.826 -0.31,1.604 -0.31,2.333l-1.514,-0.598c-0,-1.579 0.33,-3.048 0.991,-4.408c0.66,-1.361 1.6,-2.46 2.818,-3.297c1.218,-0.837 2.662,-1.256 4.333,-1.256c1.615,0 2.918,0.321 3.909,0.963c0.991,0.643 1.716,1.539 2.174,2.688c0.459,1.149 0.689,2.493 0.689,4.03l-0,14.556l-2.533,-0Zm-13.414,-0l0,-21.927l2.547,-0l-0,21.927l-2.547,-0Zm26.793,-0l0,-14.04c0,-0.519 -0.034,-1.107 -0.103,-1.766c-0.069,-0.658 -0.25,-1.29 -0.544,-1.895c-0.294,-0.606 -0.767,-1.11 -1.421,-1.511c-0.654,-0.401 -1.568,-0.602 -2.743,-0.602c-1.174,-0 -2.151,0.227 -2.932,0.681c-0.78,0.454 -1.397,1.036 -1.851,1.744c-0.454,0.709 -0.776,1.45 -0.967,2.224c-0.19,0.773 -0.285,1.476 -0.285,2.109l-1.515,-0.544c0,-1.482 0.319,-2.88 0.957,-4.194c0.638,-1.315 1.557,-2.384 2.756,-3.208c1.2,-0.823 2.642,-1.235 4.326,-1.235c1.514,0 2.779,0.288 3.796,0.864c1.016,0.576 1.782,1.403 2.298,2.481c0.516,1.078 0.774,2.383 0.774,3.916l0,14.976l-2.546,-0Z" style="fill:#1c1c1b;fill-rule:nonzero;"/></svg>