<?xml version="1.0" encoding="UTF-8" standalone="no"?><!DOCTYPE svg PUBLIC "-//W3C//DTD SVG 1.1//EN" "http://www.w3.org/Graphics/SVG/1.1/DTD/svg11.dtd"><svg width="100%" height="100%" viewBox="0 0 4567 1467" version="1.1" xmlns="http://www.w3.org/2000/svg" xmlns:xlink="http://www.w3.org/1999/xlink" xml:space="preserve" xmlns:serif="http://www.serif.com/" style="fill-rule:evenodd;clip-rule:evenodd;stroke-linejoin:round;stroke-miterlimit:2;"><rect id="mitglied-verbandfreierlastenräder-b---negativ" serif:id="mitglied-verbandfreierlastenräder-b - negativ" x="0.68" y="0.226" width="4565.48" height="1465.83" style="fill:none;"/><g transform="matrix(6.73787,0,0,6.73787,-2188.53,-3564.08)"><g transform="matrix(49.9432,0,0,49.9432,531.292,654.595)"><path d="M0.564,-0.531l-0.185,-0l-0.091,0.421l-0.096,-0.421l-0.184,-0l0.159,0.531l0.241,-0l0.156,-0.531Z" style="fill:#fff;fill-rule:nonzero;"/></g><g transform="matrix(49.9432,0,0,49.9432,558.936,654.595)"><path d="M0.616,-0.168l-0.176,-0c-0.003,0.022 -0.031,0.049 -0.105,0.049c-0.071,0 -0.111,-0.034 -0.124,-0.096l0.411,0c0.001,-0.008 0.002,-0.024 0.002,-0.042c-0,-0.173 -0.114,-0.285 -0.297,-0.285c-0.177,0 -0.298,0.111 -0.298,0.277c0,0.163 0.116,0.278 0.298,0.278c0.177,-0 0.28,-0.089 0.289,-0.181Zm-0.286,-0.245c0.074,0 0.108,0.044 0.113,0.087l-0.23,-0c0.015,-0.056 0.055,-0.087 0.117,-0.087Z" style="fill:#fff;fill-rule:nonzero;"/></g><g transform="matrix(49.9432,0,0,49.9432,591.524,654.595)"><path d="M0.056,-0l0.178,-0l0,-0.238c0,-0.071 0.036,-0.148 0.141,-0.148c0.031,0 0.053,0.01 0.059,0.013l0.026,-0.157c-0.006,-0.003 -0.028,-0.012 -0.071,-0.012c-0.071,0 -0.123,0.032 -0.155,0.084l0,-0.073l-0.178,-0l-0,0.531Z" style="fill:#fff;fill-rule:nonzero;"/></g><g transform="matrix(49.9432,0,0,49.9432,615.446,654.595)"><path d="M0.056,-0l0.178,-0l0,-0.061c0.042,0.045 0.098,0.073 0.161,0.073c0.133,0 0.248,-0.096 0.248,-0.281c0,-0.175 -0.12,-0.272 -0.248,-0.272c-0.063,-0 -0.119,0.025 -0.161,0.069l0,-0.31l-0.178,0l-0,0.782Zm0.29,-0.395c0.06,-0 0.113,0.037 0.113,0.126c0,0.09 -0.054,0.129 -0.113,0.129c-0.056,0 -0.112,-0.041 -0.112,-0.112l0,-0.034c0,-0.07 0.057,-0.109 0.112,-0.109Z" style="fill:#fff;fill-rule:nonzero;"/></g><g transform="matrix(49.9432,0,0,49.9432,649.033,654.595)"><path d="M0.234,0.012c0.073,-0 0.141,-0.025 0.182,-0.067c0.001,0.004 0.002,0.008 0.004,0.013c0.007,0.02 0.019,0.036 0.025,0.042l0.174,0c-0.006,-0.006 -0.019,-0.024 -0.027,-0.048c-0.006,-0.021 -0.006,-0.048 -0.006,-0.077l-0,-0.218c-0,-0.135 -0.129,-0.199 -0.272,-0.199c-0.153,0 -0.272,0.07 -0.272,0.201l0.176,0c0,-0.045 0.032,-0.067 0.094,-0.067c0.059,-0 0.095,0.022 0.095,0.054l-0,0.001c-0,0.02 -0.034,0.025 -0.146,0.036c-0.116,0.011 -0.227,0.057 -0.227,0.172c0,0.1 0.084,0.157 0.2,0.157Zm0.051,-0.13c-0.047,-0 -0.072,-0.015 -0.072,-0.044c0,-0.031 0.028,-0.042 0.085,-0.048c0.036,-0.003 0.076,-0.009 0.111,-0.018c-0.007,0.08 -0.067,0.11 -0.124,0.11Z" style="fill:#fff;fill-rule:nonzero;"/></g><g transform="matrix(49.9432,0,0,49.9432,680.697,654.595)"><path d="M0.056,-0l0.178,-0l-0,-0.272c-0,-0.073 0.034,-0.12 0.102,-0.12c0.078,-0 0.091,0.055 0.091,0.115l0,0.277l0.178,-0l0,-0.329c0,-0.126 -0.054,-0.213 -0.187,-0.213c-0.077,0 -0.144,0.035 -0.184,0.093l-0,-0.082l-0.178,-0l-0,0.531Z" style="fill:#fff;fill-rule:nonzero;"/></g><g transform="matrix(49.9432,0,0,49.9432,713.435,654.595)"><path d="M0.278,0.013c0.063,-0 0.119,-0.029 0.161,-0.074l-0,0.061l0.178,-0l0,-0.782l-0.178,0l-0,0.31c-0.042,-0.044 -0.098,-0.07 -0.161,-0.07c-0.128,0 -0.249,0.098 -0.249,0.273c0,0.185 0.116,0.282 0.249,0.282Zm0.049,-0.153c-0.059,0 -0.114,-0.039 -0.114,-0.129c0,-0.089 0.055,-0.126 0.114,-0.126c0.055,-0 0.112,0.039 0.112,0.109l-0,0.034c-0,0.071 -0.056,0.112 -0.112,0.112Z" style="fill:#fff;fill-rule:nonzero;"/></g><g transform="matrix(49.9432,0,0,49.9432,759.383,654.595)"><path d="M0.119,-0l0.178,-0l0,-0.396l0.139,-0l-0,-0.135l-0.139,-0l0,-0.022c0,-0.059 0.022,-0.097 0.095,-0.097c0.024,0 0.047,0.005 0.055,0.008l0,-0.136c-0.008,-0.004 -0.028,-0.011 -0.075,-0.011c-0.099,0 -0.253,0.037 -0.253,0.232l0,0.026l-0.108,-0l-0,0.135l0.108,-0l0,0.396Z" style="fill:#fff;fill-rule:nonzero;"/></g><g transform="matrix(49.9432,0,0,49.9432,782.007,654.595)"><path d="M0.056,-0l0.178,-0l0,-0.238c0,-0.071 0.036,-0.148 0.141,-0.148c0.031,0 0.053,0.01 0.059,0.013l0.026,-0.157c-0.006,-0.003 -0.028,-0.012 -0.071,-0.012c-0.071,0 -0.123,0.032 -0.155,0.084l0,-0.073l-0.178,-0l-0,0.531Z" style="fill:#fff;fill-rule:nonzero;"/></g><g transform="matrix(49.9432,0,0,49.9432,803.932,654.595)"><path d="M0.616,-0.168l-0.176,-0c-0.003,0.022 -0.031,0.049 -0.105,0.049c-0.071,0 -0.111,-0.034 -0.124,-0.096l0.411,0c0.001,-0.008 0.002,-0.024 0.002,-0.042c-0,-0.173 -0.114,-0.285 -0.297,-0.285c-0.177,0 -0.298,0.111 -0.298,0.277c0,0.163 0.116,0.278 0.298,0.278c0.177,-0 0.28,-0.089 0.289,-0.181Zm-0.286,-0.245c0.074,0 0.108,0.044 0.113,0.087l-0.23,-0c0.015,-0.056 0.055,-0.087 0.117,-0.087Z" style="fill:#fff;fill-rule:nonzero;"/></g><g transform="matrix(49.9432,0,0,49.9432,836.52,654.595)"><path d="M0.134,-0.606c0.053,0 0.1,-0.028 0.1,-0.08c0,-0.052 -0.047,-0.081 -0.1,-0.081c-0.054,0 -0.101,0.029 -0.101,0.081c0,0.051 0.047,0.08 0.101,0.08Zm-0.088,0.606l0.176,-0l0,-0.531l-0.176,-0l-0,0.531Z" style="fill:#fff;fill-rule:nonzero;"/></g><g transform="matrix(49.9432,0,0,49.9432,849.855,654.595)"><path d="M0.616,-0.168l-0.176,-0c-0.003,0.022 -0.031,0.049 -0.105,0.049c-0.071,0 -0.111,-0.034 -0.124,-0.096l0.411,0c0.001,-0.008 0.002,-0.024 0.002,-0.042c-0,-0.173 -0.114,-0.285 -0.297,-0.285c-0.177,0 -0.298,0.111 -0.298,0.277c0,0.163 0.116,0.278 0.298,0.278c0.177,-0 0.28,-0.089 0.289,-0.181Zm-0.286,-0.245c0.074,0 0.108,0.044 0.113,0.087l-0.23,-0c0.015,-0.056 0.055,-0.087 0.117,-0.087Z" style="fill:#fff;fill-rule:nonzero;"/></g><g transform="matrix(49.9432,0,0,49.9432,882.443,654.595)"><path d="M0.056,-0l0.178,-0l0,-0.238c0,-0.071 0.036,-0.148 0.141,-0.148c0.031,0 0.053,0.01 0.059,0.013l0.026,-0.157c-0.006,-0.003 -0.028,-0.012 -0.071,-0.012c-0.071,0 -0.123,0.032 -0.155,0.084l0,-0.073l-0.178,-0l-0,0.531Z" style="fill:#fff;fill-rule:nonzero;"/></g><g transform="matrix(49.9432,0,0,49.9432,600.788,701.572)"><rect x="0.063" y="-0.782" width="0.176" height="0.782" style="fill:#fff;fill-rule:nonzero;"/></g><g transform="matrix(49.9432,0,0,49.9432,615.072,701.572)"><path d="M0.234,0.012c0.073,-0 0.141,-0.025 0.182,-0.067c0.001,0.004 0.002,0.008 0.004,0.013c0.007,0.02 0.019,0.036 0.025,0.042l0.174,0c-0.006,-0.006 -0.019,-0.024 -0.027,-0.048c-0.006,-0.021 -0.006,-0.048 -0.006,-0.077l-0,-0.218c-0,-0.135 -0.129,-0.199 -0.272,-0.199c-0.153,0 -0.272,0.07 -0.272,0.201l0.176,0c0,-0.045 0.032,-0.067 0.094,-0.067c0.059,-0 0.095,0.022 0.095,0.054l-0,0.001c-0,0.02 -0.034,0.025 -0.146,0.036c-0.116,0.011 -0.227,0.057 -0.227,0.172c0,0.1 0.084,0.157 0.2,0.157Zm0.051,-0.13c-0.047,-0 -0.072,-0.015 -0.072,-0.044c0,-0.031 0.028,-0.042 0.085,-0.048c0.036,-0.003 0.076,-0.009 0.111,-0.018c-0.007,0.08 -0.067,0.11 -0.124,0.11Z" style="fill:#fff;fill-rule:nonzero;"/></g><g transform="matrix(49.9432,0,0,49.9432,646.736,701.572)"><path d="M0.282,0.013c0.122,-0 0.255,-0.048 0.255,-0.176c-0,-0.121 -0.135,-0.151 -0.218,-0.164c-0.063,-0.01 -0.108,-0.021 -0.108,-0.047c-0,-0.029 0.043,-0.037 0.072,-0.037c0.034,-0 0.071,0.014 0.071,0.048l0,0.005l0.175,0l0,-0.006c0,-0.11 -0.117,-0.178 -0.245,-0.178c-0.134,0 -0.248,0.059 -0.248,0.171c0,0.11 0.122,0.148 0.216,0.163c0.08,0.013 0.112,0.021 0.112,0.05c0,0.028 -0.043,0.038 -0.077,0.038c-0.05,0 -0.081,-0.013 -0.081,-0.047l0,-0.006l-0.177,0l0,0.007c0,0.12 0.128,0.179 0.253,0.179Z" style="fill:#fff;fill-rule:nonzero;"/></g><g transform="matrix(49.9432,0,0,49.9432,674.404,701.572)"><path d="M0.334,0.012c0.036,0 0.064,-0.007 0.079,-0.013l-0,-0.131c-0.01,0.004 -0.033,0.01 -0.056,0.01c-0.042,-0 -0.047,-0.031 -0.047,-0.074l0,-0.2l0.15,-0l0,-0.135l-0.15,-0l0,-0.175l-0.179,0l0,0.049c0,0.12 -0.009,0.126 -0.102,0.126l-0.018,-0l-0,0.135l0.12,-0l0,0.248c0,0.142 0.116,0.16 0.203,0.16Z" style="fill:#fff;fill-rule:nonzero;"/></g><g transform="matrix(49.9432,0,0,49.9432,697.478,701.572)"><path d="M0.616,-0.168l-0.176,-0c-0.003,0.022 -0.031,0.049 -0.105,0.049c-0.071,0 -0.111,-0.034 -0.124,-0.096l0.411,0c0.001,-0.008 0.002,-0.024 0.002,-0.042c-0,-0.173 -0.114,-0.285 -0.297,-0.285c-0.177,0 -0.298,0.111 -0.298,0.277c0,0.163 0.116,0.278 0.298,0.278c0.177,-0 0.28,-0.089 0.289,-0.181Zm-0.286,-0.245c0.074,0 0.108,0.044 0.113,0.087l-0.23,-0c0.015,-0.056 0.055,-0.087 0.117,-0.087Z" style="fill:#fff;fill-rule:nonzero;"/></g><g transform="matrix(49.9432,0,0,49.9432,730.066,701.572)"><path d="M0.056,-0l0.178,-0l-0,-0.272c-0,-0.073 0.034,-0.12 0.102,-0.12c0.078,-0 0.091,0.055 0.091,0.115l0,0.277l0.178,-0l0,-0.329c0,-0.126 -0.054,-0.213 -0.187,-0.213c-0.077,0 -0.144,0.035 -0.184,0.093l-0,-0.082l-0.178,-0l-0,0.531Z" style="fill:#fff;fill-rule:nonzero;"/></g><g transform="matrix(49.9432,0,0,49.9432,762.804,701.572)"><path d="M0.056,-0l0.178,-0l0,-0.238c0,-0.071 0.036,-0.148 0.141,-0.148c0.031,0 0.053,0.01 0.059,0.013l0.026,-0.157c-0.006,-0.003 -0.028,-0.012 -0.071,-0.012c-0.071,0 -0.123,0.032 -0.155,0.084l0,-0.073l-0.178,-0l-0,0.531Z" style="fill:#fff;fill-rule:nonzero;"/></g><g transform="matrix(49.9432,0,0,49.9432,784.729,701.572)"><path d="M0.194,-0.602c0.048,0 0.091,-0.026 0.091,-0.074c0,-0.047 -0.043,-0.073 -0.091,-0.073c-0.049,-0 -0.092,0.026 -0.092,0.073c0,0.048 0.043,0.074 0.092,0.074Zm0.257,0c0.048,0 0.091,-0.026 0.091,-0.074c0,-0.047 -0.043,-0.073 -0.091,-0.073c-0.049,-0 -0.092,0.026 -0.092,0.073c0,0.048 0.043,0.074 0.092,0.074Zm-0.217,0.614c0.073,-0 0.141,-0.025 0.182,-0.067c0.001,0.004 0.002,0.008 0.004,0.013c0.007,0.02 0.019,0.036 0.025,0.042l0.174,-0c-0.006,-0.006 -0.019,-0.024 -0.027,-0.048c-0.006,-0.021 -0.006,-0.048 -0.006,-0.077l-0,-0.218c-0,-0.135 -0.129,-0.199 -0.272,-0.199c-0.153,0 -0.272,0.07 -0.272,0.201l0.176,0c0,-0.045 0.032,-0.067 0.094,-0.067c0.059,-0 0.095,0.022 0.095,0.054l-0,0.001c-0,0.02 -0.034,0.025 -0.146,0.036c-0.116,0.011 -0.227,0.057 -0.227,0.172c0,0.1 0.084,0.157 0.2,0.157Zm0.051,-0.13c-0.047,-0 -0.072,-0.015 -0.072,-0.044c0,-0.031 0.028,-0.042 0.085,-0.048c0.036,-0.003 0.076,-0.009 0.111,-0.018c-0.007,0.08 -0.067,0.11 -0.124,0.11Z" style="fill:#fff;fill-rule:nonzero;"/></g><g transform="matrix(49.9432,0,0,49.9432,816.393,701.572)"><path d="M0.278,0.013c0.063,-0 0.119,-0.029 0.161,-0.074l-0,0.061l0.178,-0l0,-0.782l-0.178,0l-0,0.31c-0.042,-0.044 -0.098,-0.07 -0.161,-0.07c-0.128,0 -0.249,0.098 -0.249,0.273c0,0.185 0.116,0.282 0.249,0.282Zm0.049,-0.153c-0.059,0 -0.114,-0.039 -0.114,-0.129c0,-0.089 0.055,-0.126 0.114,-0.126c0.055,-0 0.112,0.039 0.112,0.109l-0,0.034c-0,0.071 -0.056,0.112 -0.112,0.112Z" style="fill:#fff;fill-rule:nonzero;"/></g><g transform="matrix(49.9432,0,0,49.9432,849.855,701.572)"><path d="M0.616,-0.168l-0.176,-0c-0.003,0.022 -0.031,0.049 -0.105,0.049c-0.071,0 -0.111,-0.034 -0.124,-0.096l0.411,0c0.001,-0.008 0.002,-0.024 0.002,-0.042c-0,-0.173 -0.114,-0.285 -0.297,-0.285c-0.177,0 -0.298,0.111 -0.298,0.277c0,0.163 0.116,0.278 0.298,0.278c0.177,-0 0.28,-0.089 0.289,-0.181Zm-0.286,-0.245c0.074,0 0.108,0.044 0.113,0.087l-0.23,-0c0.015,-0.056 0.055,-0.087 0.117,-0.087Z" style="fill:#fff;fill-rule:nonzero;"/></g><g transform="matrix(49.9432,0,0,49.9432,882.443,701.572)"><path d="M0.056,-0l0.178,-0l0,-0.238c0,-0.071 0.036,-0.148 0.141,-0.148c0.031,0 0.053,0.01 0.059,0.013l0.026,-0.157c-0.006,-0.003 -0.028,-0.012 -0.071,-0.012c-0.071,0 -0.123,0.032 -0.155,0.084l0,-0.073l-0.178,-0l-0,0.531Z" style="fill:#fff;fill-rule:nonzero;"/></g></g><g><path d="M3776.32,437.355c-0,-51.671 -41.89,-93.56 -93.561,-93.56c-51.668,-0 -93.557,41.889 -93.557,93.56c0,51.672 41.889,93.561 93.557,93.561c51.671,-0 93.561,-41.889 93.561,-93.561" style="fill:#e2341d;"/><path d="M3923.43,379.527c20.778,-37.594 62.333,-37.594 83.111,-18.797c20.779,18.797 20.779,56.39 0,93.984c-14.544,28.195 -51.944,56.39 -83.111,75.187c-31.166,-18.797 -68.566,-46.992 -83.11,-75.187c-20.778,-37.594 -20.778,-75.187 -0,-93.984c20.778,-18.797 62.333,-18.797 83.11,18.797Z" style="fill:#fdc50f;"/><path d="M4273,339.723l-26.125,51.25c-1.037,2.038 -0.028,4.517 2.136,5.253l35.286,11.952c2.856,0.968 3.457,4.751 1.037,6.556l-29.875,22.3c-1.833,1.363 -2.024,4.039 -0.409,5.653l40.655,40.655c2.568,2.569 0.349,6.919 -3.234,6.351l-56.809,-8.975c-2.256,-0.358 -4.304,1.368 -4.336,3.653l-0.489,37.272c-0.037,3.015 -3.447,4.751 -5.913,3.011l-30.419,-21.51c-1.861,-1.321 -4.467,-0.679 -5.505,1.359l-26.124,51.254c-1.652,3.233 -6.477,2.466 -7.045,-1.122l-8.975,-56.79c-0.358,-2.257 -2.633,-3.676 -4.815,-2.996l-35.588,11.073c-2.885,0.898 -5.593,-1.81 -4.695,-4.695l11.073,-35.583c0.68,-2.183 -0.735,-4.462 -2.991,-4.816l-56.796,-8.98c-3.587,-0.563 -4.355,-5.392 -1.121,-7.039l51.259,-26.13c2.033,-1.037 2.675,-3.638 1.354,-5.504l-21.505,-30.419c-1.745,-2.466 -0.009,-5.876 3.01,-5.914l37.273,-0.488c2.28,-0.028 4.006,-2.08 3.652,-4.336l-8.979,-56.805c-0.568,-3.587 3.787,-5.802 6.35,-3.234l40.656,40.651c1.619,1.619 4.289,1.424 5.657,-0.405l22.296,-29.879c1.81,-2.42 5.588,-1.82 6.556,1.042l11.952,35.281c0.735,2.164 3.22,3.173 5.258,2.136l51.244,-26.12c3.239,-1.652 6.691,1.805 5.044,5.038" style="fill:#61b22b;"/></g><path d="M311.957,787.997l18.238,-0l-0,126.891l-10.152,0l0,-118.374l0.401,0.143l-35.3,118.231l-15.513,0l-35.358,-118.288l0.401,-0.144l-0,118.432l-10.151,0l-0,-126.891l18.239,-0l34.697,118.69l-0.344,0l34.842,-118.69Z" style="fill:#fff;fill-rule:nonzero;"/><path d="M365.322,914.888l0,-91.362l10.496,0l-0,91.362l-10.496,0Zm5.334,-114.389c-2.218,0 -4.13,-0.65 -5.736,-1.95c-1.605,-1.299 -2.408,-3.039 -2.408,-5.218c-0,-2.122 0.803,-3.833 2.408,-5.133c1.606,-1.3 3.518,-1.95 5.736,-1.95c2.198,0 4.091,0.65 5.678,1.95c1.587,1.3 2.381,3.011 2.381,5.133c-0,2.179 -0.794,3.919 -2.381,5.218c-1.587,1.3 -3.48,1.95 -5.678,1.95Z" style="fill:#fff;fill-rule:nonzero;"/><path d="M439.106,916.293c-2.581,0 -5.085,-0.325 -7.513,-0.974c-2.428,-0.65 -4.598,-1.783 -6.51,-3.399c-1.912,-1.615 -3.422,-3.857 -4.531,-6.725c-1.108,-2.867 -1.662,-6.518 -1.662,-10.953l-0,-61.31l-21.967,-0l-0,-9.406l15.773,0c1.51,0 2.69,-0.052 3.541,-0.157c0.851,-0.106 1.463,-0.388 1.835,-0.847c0.373,-0.458 0.603,-1.175 0.689,-2.15c0.086,-0.975 0.129,-2.342 0.129,-4.1l-0,-22.225l10.695,0l0,29.479l29.25,0l-0,9.406l-29.25,-0l0,57.41c0,5.199 0.756,9.252 2.266,12.158c1.51,2.906 4.388,4.36 8.632,4.36c1.624,-0 3.216,-0.139 4.774,-0.417c1.558,-0.277 2.719,-0.597 3.484,-0.96l0,9.319c-0.937,0.402 -2.271,0.751 -4.001,1.047c-1.73,0.296 -3.608,0.444 -5.634,0.444Z" style="fill:#fff;fill-rule:nonzero;"/><path d="M538.755,911.017c4.703,0.363 8.856,1.223 12.46,2.581c3.604,1.358 6.428,3.341 8.474,5.951c2.045,2.609 3.068,5.997 3.068,10.164c-0,4.551 -1.573,8.638 -4.717,12.26c-3.145,3.623 -7.987,6.481 -14.525,8.574c-6.538,2.093 -14.883,3.14 -25.034,3.14c-14.147,0 -24.713,-2.127 -31.701,-6.38c-6.988,-4.254 -10.481,-9.85 -10.481,-16.79c-0,-2.371 0.277,-4.431 0.831,-6.18c0.554,-1.75 1.166,-3.159 1.836,-4.229l10.123,1.577c-0.498,0.726 -0.981,1.802 -1.449,3.226c-0.468,1.424 -0.702,3.082 -0.702,4.974c-0,5.086 2.777,8.862 8.33,11.328c5.553,2.466 13.511,3.699 23.873,3.699c7.838,0 14.219,-0.645 19.141,-1.935c4.922,-1.291 8.555,-3.05 10.897,-5.277c2.342,-2.227 3.513,-4.698 3.513,-7.413c-0,-4.11 -1.678,-6.82 -5.033,-8.129c-3.355,-1.31 -7.527,-2.146 -12.517,-2.51l-34.813,-2.551c-5.621,-0.44 -10.156,-2.056 -13.607,-4.847c-3.45,-2.791 -5.176,-6.289 -5.176,-10.496c0,-2.618 0.646,-5.046 1.936,-7.283c1.29,-2.236 2.806,-4.1 4.545,-5.591c1.74,-1.492 3.308,-2.39 4.703,-2.697l8.517,4.101c-1.567,0.287 -3.46,1.319 -5.678,3.097c-2.218,1.778 -3.327,3.958 -3.327,6.538c0,2.295 0.951,4.192 2.854,5.692c1.902,1.501 5.406,2.452 10.51,2.853l33.149,2.553Zm13.507,-87.491l10.065,0l-3.785,36.247c-0.689,6.748 -2.615,12.871 -5.778,18.367c-3.164,5.497 -7.552,9.865 -13.163,13.105c-5.611,3.241 -12.479,4.861 -20.604,4.861c-8.431,-0 -15.614,-1.625 -21.55,-4.875c-5.936,-3.251 -10.467,-7.648 -13.593,-13.192c-3.125,-5.543 -4.688,-11.728 -4.688,-18.553c-0,-6.921 1.654,-13.201 4.961,-18.84c3.308,-5.639 7.92,-10.117 13.837,-13.434c5.916,-3.317 12.746,-4.976 20.488,-4.976c7.169,0 13.335,1.29 18.497,3.871c5.161,2.581 9.214,5.764 12.158,9.549c2.945,3.786 4.627,7.504 5.047,11.156l-3.899,-0l2.007,-23.286Zm-33.322,63.059c6.156,0 11.418,-1.133 15.786,-3.398c4.368,-2.265 7.714,-5.453 10.036,-9.563c2.323,-4.11 3.484,-8.938 3.484,-14.482c0,-5.315 -1.166,-10.032 -3.498,-14.151c-2.332,-4.12 -5.677,-7.355 -10.036,-9.707c-4.359,-2.351 -9.578,-3.527 -15.657,-3.527c-5.812,-0 -10.93,1.209 -15.356,3.627c-4.426,2.418 -7.877,5.707 -10.353,9.865c-2.475,4.158 -3.713,8.884 -3.713,14.179c0,5.392 1.166,10.128 3.498,14.21c2.332,4.082 5.683,7.26 10.051,9.535c4.369,2.275 9.622,3.412 15.758,3.412Z" style="fill:#fff;fill-rule:nonzero;"/><rect x="588.852" y="780.426" width="10.495" height="134.462" style="fill:#fff;fill-rule:nonzero;"/><path d="M630.805,914.888l0,-91.362l10.496,0l-0,91.362l-10.496,0Zm5.334,-114.389c-2.218,0 -4.13,-0.65 -5.736,-1.95c-1.606,-1.299 -2.409,-3.039 -2.409,-5.218c0,-2.122 0.803,-3.833 2.409,-5.133c1.606,-1.3 3.518,-1.95 5.736,-1.95c2.198,0 4.091,0.65 5.678,1.95c1.587,1.3 2.38,3.011 2.38,5.133c0,2.179 -0.793,3.919 -2.38,5.218c-1.587,1.3 -3.48,1.95 -5.678,1.95Z" style="fill:#fff;fill-rule:nonzero;"/><path d="M674.68,873.653l-0,-9.521l73.984,-0l-2.093,2.925l-0,-1.721c-0,-5.926 -1.257,-11.432 -3.771,-16.517c-2.514,-5.086 -6.171,-9.182 -10.969,-12.288c-4.798,-3.107 -10.638,-4.66 -17.521,-4.66c-6.959,0 -13.106,1.592 -18.439,4.775c-5.334,3.183 -9.501,7.575 -12.503,13.176c-3.001,5.601 -4.501,12.082 -4.501,19.443c-0,7.494 1.481,14.06 4.444,19.7c2.963,5.64 7.116,10.027 12.46,13.162c5.343,3.135 11.551,4.703 18.625,4.703c5.257,-0 9.821,-0.655 13.692,-1.964c3.871,-1.309 7.078,-3.02 9.621,-5.133c2.543,-2.112 4.484,-4.359 5.822,-6.739c1.338,-2.38 2.122,-4.64 2.352,-6.781l10.638,-0c-0.268,3.384 -1.362,6.848 -3.283,10.394c-1.921,3.546 -4.646,6.83 -8.173,9.851c-3.527,3.02 -7.876,5.463 -13.048,7.327c-5.171,1.864 -11.141,2.796 -17.908,2.796c-8.851,-0 -16.699,-2.003 -23.543,-6.008c-6.844,-4.005 -12.231,-9.55 -16.159,-16.632c-3.929,-7.083 -5.893,-15.232 -5.893,-24.447c-0,-9.291 1.974,-17.478 5.922,-24.561c3.947,-7.083 9.363,-12.637 16.245,-16.661c6.882,-4.024 14.72,-6.036 23.514,-6.036c8.928,0 16.661,2.041 23.199,6.122c6.538,4.082 11.59,9.602 15.155,16.561c3.565,6.958 5.348,14.759 5.348,23.4c-0,0.745 -0.019,1.701 -0.057,2.867c-0.038,1.166 -0.095,1.988 -0.172,2.467l-82.988,-0Z" style="fill:#fff;fill-rule:nonzero;"/><path d="M819.665,916.523c-7.474,-0 -14.232,-1.826 -20.274,-5.477c-6.041,-3.651 -10.825,-9.004 -14.352,-16.058c-3.527,-7.055 -5.291,-15.648 -5.291,-25.781c0,-10.017 1.783,-18.525 5.349,-25.522c3.565,-6.997 8.369,-12.321 14.409,-15.972c6.041,-3.651 12.761,-5.477 20.159,-5.477c6.997,0 13.483,1.654 19.457,4.961c5.975,3.307 10.773,7.819 14.396,13.535c3.622,5.717 5.434,12.207 5.434,19.471l-0,1.204l-7.857,0.172l0,-1.146c0,-5.219 -1.396,-9.975 -4.187,-14.267c-2.792,-4.292 -6.472,-7.728 -11.041,-10.309c-4.569,-2.581 -9.51,-3.872 -14.825,-3.872c-8.87,0 -16.149,3.121 -21.837,9.363c-5.687,6.242 -8.531,15.529 -8.531,27.859c-0,12.293 2.853,21.579 8.559,27.859c5.707,6.28 12.976,9.42 21.809,9.42c5.429,-0 10.419,-1.31 14.969,-3.929c4.55,-2.618 8.202,-6.136 10.955,-10.552c2.753,-4.416 4.129,-9.349 4.129,-14.797l7.857,0.172c-0,7.399 -1.778,14.056 -5.334,19.973c-3.556,5.916 -8.302,10.591 -14.238,14.022c-5.936,3.432 -12.507,5.148 -19.715,5.148Zm31.43,-1.635l0,-134.462l10.696,0l-0,134.462l-10.696,0Z" style="fill:#fff;fill-rule:nonzero;"/><path d="M935.689,914.888l-0,-91.362l10.495,0l0,91.362l-10.495,0Zm5.334,-114.389c-2.218,0 -4.13,-0.65 -5.736,-1.95c-1.606,-1.299 -2.409,-3.039 -2.409,-5.218c0,-2.122 0.803,-3.833 2.409,-5.133c1.606,-1.3 3.518,-1.95 5.736,-1.95c2.198,0 4.09,0.65 5.677,1.95c1.588,1.3 2.381,3.011 2.381,5.133c0,2.179 -0.793,3.919 -2.381,5.218c-1.587,1.3 -3.479,1.95 -5.677,1.95Z" style="fill:#fff;fill-rule:nonzero;"/><path d="M1033.42,914.888l-0,-58.069c-0,-2.236 -0.168,-4.75 -0.502,-7.541c-0.335,-2.791 -1.119,-5.472 -2.352,-8.044c-1.233,-2.571 -3.173,-4.698 -5.821,-6.38c-2.647,-1.682 -6.303,-2.523 -10.968,-2.523c-4.837,-0 -8.895,0.96 -12.173,2.881c-3.279,1.921 -5.912,4.397 -7.9,7.427c-1.988,3.03 -3.412,6.266 -4.273,9.707c-0.86,3.441 -1.29,6.681 -1.29,9.721l-6.31,-2.495c0,-6.576 1.377,-12.699 4.13,-18.367c2.752,-5.668 6.667,-10.246 11.742,-13.735c5.076,-3.489 11.094,-5.234 18.053,-5.234c6.729,0 12.158,1.338 16.287,4.014c4.13,2.677 7.15,6.409 9.062,11.198c1.912,4.789 2.868,10.386 2.868,16.791l0,60.649l-10.553,0Zm-55.89,0l-0,-91.362l10.611,0l-0,91.362l-10.611,0Zm111.636,0l0,-58.499c0,-2.16 -0.143,-4.612 -0.43,-7.355c-0.287,-2.743 -1.042,-5.376 -2.266,-7.9c-1.223,-2.523 -3.197,-4.622 -5.922,-6.294c-2.724,-1.673 -6.533,-2.509 -11.426,-2.509c-4.894,-0 -8.966,0.946 -12.216,2.838c-3.251,1.892 -5.822,4.315 -7.715,7.269c-1.892,2.954 -3.235,6.041 -4.028,9.263c-0.793,3.221 -1.19,6.151 -1.19,8.789l-6.31,-2.266c0,-6.174 1.329,-12 3.987,-17.477c2.657,-5.477 6.485,-9.932 11.484,-13.363c4.999,-3.432 11.007,-5.148 18.024,-5.148c6.309,0 11.58,1.2 15.814,3.599c4.235,2.4 7.427,5.845 9.578,10.338c2.15,4.492 3.226,9.931 3.226,16.317l-0,62.398l-10.61,0Z" style="fill:#fff;fill-rule:nonzero;"/></svg>