<?xml version="1.0" encoding="UTF-8" standalone="no"?><!DOCTYPE svg PUBLIC "-//W3C//DTD SVG 1.1//EN" "http://www.w3.org/Graphics/SVG/1.1/DTD/svg11.dtd"><svg width="100%" height="100%" viewBox="0 0 3462 1467" version="1.1" xmlns="http://www.w3.org/2000/svg" xmlns:xlink="http://www.w3.org/1999/xlink" xml:space="preserve" xmlns:serif="http://www.serif.com/" style="fill-rule:evenodd;clip-rule:evenodd;stroke-linejoin:round;stroke-miterlimit:2;"><rect id="mitglied-verbandfreierlastenräder" x="0.95" y="0.547" width="3460.33" height="1465.83" style="fill:none;"/><g transform="matrix(6.73787,0,0,6.73787,-3293.42,-3563.76)"><g transform="matrix(49.9432,0,0,49.9432,531.292,654.595)"><path d="M0.564,-0.531l-0.185,-0l-0.091,0.421l-0.096,-0.421l-0.184,-0l0.159,0.531l0.241,-0l0.156,-0.531Z" style="fill-rule:nonzero;"/></g><g transform="matrix(49.9432,0,0,49.9432,558.936,654.595)"><path d="M0.616,-0.168l-0.176,-0c-0.003,0.022 -0.031,0.049 -0.105,0.049c-0.071,0 -0.111,-0.034 -0.124,-0.096l0.411,0c0.001,-0.008 0.002,-0.024 0.002,-0.042c-0,-0.173 -0.114,-0.285 -0.297,-0.285c-0.177,0 -0.298,0.111 -0.298,0.277c0,0.163 0.116,0.278 0.298,0.278c0.177,-0 0.28,-0.089 0.289,-0.181Zm-0.286,-0.245c0.074,0 0.108,0.044 0.113,0.087l-0.23,-0c0.015,-0.056 0.055,-0.087 0.117,-0.087Z" style="fill-rule:nonzero;"/></g><g transform="matrix(49.9432,0,0,49.9432,591.524,654.595)"><path d="M0.056,-0l0.178,-0l0,-0.238c0,-0.071 0.036,-0.148 0.141,-0.148c0.031,0 0.053,0.01 0.059,0.013l0.026,-0.157c-0.006,-0.003 -0.028,-0.012 -0.071,-0.012c-0.071,0 -0.123,0.032 -0.155,0.084l0,-0.073l-0.178,-0l-0,0.531Z" style="fill-rule:nonzero;"/></g><g transform="matrix(49.9432,0,0,49.9432,615.446,654.595)"><path d="M0.056,-0l0.178,-0l0,-0.061c0.042,0.045 0.098,0.073 0.161,0.073c0.133,0 0.248,-0.096 0.248,-0.281c0,-0.175 -0.12,-0.272 -0.248,-0.272c-0.063,-0 -0.119,0.025 -0.161,0.069l0,-0.31l-0.178,0l-0,0.782Zm0.29,-0.395c0.06,-0 0.113,0.037 0.113,0.126c0,0.09 -0.054,0.129 -0.113,0.129c-0.056,0 -0.112,-0.041 -0.112,-0.112l0,-0.034c0,-0.07 0.057,-0.109 0.112,-0.109Z" style="fill-rule:nonzero;"/></g><g transform="matrix(49.9432,0,0,49.9432,649.033,654.595)"><path d="M0.234,0.012c0.073,-0 0.141,-0.025 0.182,-0.067c0.001,0.004 0.002,0.008 0.004,0.013c0.007,0.02 0.019,0.036 0.025,0.042l0.174,0c-0.006,-0.006 -0.019,-0.024 -0.027,-0.048c-0.006,-0.021 -0.006,-0.048 -0.006,-0.077l-0,-0.218c-0,-0.135 -0.129,-0.199 -0.272,-0.199c-0.153,0 -0.272,0.07 -0.272,0.201l0.176,0c0,-0.045 0.032,-0.067 0.094,-0.067c0.059,-0 0.095,0.022 0.095,0.054l-0,0.001c-0,0.02 -0.034,0.025 -0.146,0.036c-0.116,0.011 -0.227,0.057 -0.227,0.172c0,0.1 0.084,0.157 0.2,0.157Zm0.051,-0.13c-0.047,-0 -0.072,-0.015 -0.072,-0.044c0,-0.031 0.028,-0.042 0.085,-0.048c0.036,-0.003 0.076,-0.009 0.111,-0.018c-0.007,0.08 -0.067,0.11 -0.124,0.11Z" style="fill-rule:nonzero;"/></g><g transform="matrix(49.9432,0,0,49.9432,680.697,654.595)"><path d="M0.056,-0l0.178,-0l-0,-0.272c-0,-0.073 0.034,-0.12 0.102,-0.12c0.078,-0 0.091,0.055 0.091,0.115l0,0.277l0.178,-0l0,-0.329c0,-0.126 -0.054,-0.213 -0.187,-0.213c-0.077,0 -0.144,0.035 -0.184,0.093l-0,-0.082l-0.178,-0l-0,0.531Z" style="fill-rule:nonzero;"/></g><g transform="matrix(49.9432,0,0,49.9432,713.435,654.595)"><path d="M0.278,0.013c0.063,-0 0.119,-0.029 0.161,-0.074l-0,0.061l0.178,-0l0,-0.782l-0.178,0l-0,0.31c-0.042,-0.044 -0.098,-0.07 -0.161,-0.07c-0.128,0 -0.249,0.098 -0.249,0.273c0,0.185 0.116,0.282 0.249,0.282Zm0.049,-0.153c-0.059,0 -0.114,-0.039 -0.114,-0.129c0,-0.089 0.055,-0.126 0.114,-0.126c0.055,-0 0.112,0.039 0.112,0.109l-0,0.034c-0,0.071 -0.056,0.112 -0.112,0.112Z" style="fill-rule:nonzero;"/></g><g transform="matrix(49.9432,0,0,49.9432,759.383,654.595)"><path d="M0.119,-0l0.178,-0l0,-0.396l0.139,-0l-0,-0.135l-0.139,-0l0,-0.022c0,-0.059 0.022,-0.097 0.095,-0.097c0.024,0 0.047,0.005 0.055,0.008l0,-0.136c-0.008,-0.004 -0.028,-0.011 -0.075,-0.011c-0.099,0 -0.253,0.037 -0.253,0.232l0,0.026l-0.108,-0l-0,0.135l0.108,-0l0,0.396Z" style="fill-rule:nonzero;"/></g><g transform="matrix(49.9432,0,0,49.9432,782.007,654.595)"><path d="M0.056,-0l0.178,-0l0,-0.238c0,-0.071 0.036,-0.148 0.141,-0.148c0.031,0 0.053,0.01 0.059,0.013l0.026,-0.157c-0.006,-0.003 -0.028,-0.012 -0.071,-0.012c-0.071,0 -0.123,0.032 -0.155,0.084l0,-0.073l-0.178,-0l-0,0.531Z" style="fill-rule:nonzero;"/></g><g transform="matrix(49.9432,0,0,49.9432,803.932,654.595)"><path d="M0.616,-0.168l-0.176,-0c-0.003,0.022 -0.031,0.049 -0.105,0.049c-0.071,0 -0.111,-0.034 -0.124,-0.096l0.411,0c0.001,-0.008 0.002,-0.024 0.002,-0.042c-0,-0.173 -0.114,-0.285 -0.297,-0.285c-0.177,0 -0.298,0.111 -0.298,0.277c0,0.163 0.116,0.278 0.298,0.278c0.177,-0 0.28,-0.089 0.289,-0.181Zm-0.286,-0.245c0.074,0 0.108,0.044 0.113,0.087l-0.23,-0c0.015,-0.056 0.055,-0.087 0.117,-0.087Z" style="fill-rule:nonzero;"/></g><g transform="matrix(49.9432,0,0,49.9432,836.52,654.595)"><path d="M0.134,-0.606c0.053,0 0.1,-0.028 0.1,-0.08c0,-0.052 -0.047,-0.081 -0.1,-0.081c-0.054,0 -0.101,0.029 -0.101,0.081c0,0.051 0.047,0.08 0.101,0.08Zm-0.088,0.606l0.176,-0l0,-0.531l-0.176,-0l-0,0.531Z" style="fill-rule:nonzero;"/></g><g transform="matrix(49.9432,0,0,49.9432,849.855,654.595)"><path d="M0.616,-0.168l-0.176,-0c-0.003,0.022 -0.031,0.049 -0.105,0.049c-0.071,0 -0.111,-0.034 -0.124,-0.096l0.411,0c0.001,-0.008 0.002,-0.024 0.002,-0.042c-0,-0.173 -0.114,-0.285 -0.297,-0.285c-0.177,0 -0.298,0.111 -0.298,0.277c0,0.163 0.116,0.278 0.298,0.278c0.177,-0 0.28,-0.089 0.289,-0.181Zm-0.286,-0.245c0.074,0 0.108,0.044 0.113,0.087l-0.23,-0c0.015,-0.056 0.055,-0.087 0.117,-0.087Z" style="fill-rule:nonzero;"/></g><g transform="matrix(49.9432,0,0,49.9432,882.443,654.595)"><path d="M0.056,-0l0.178,-0l0,-0.238c0,-0.071 0.036,-0.148 0.141,-0.148c0.031,0 0.053,0.01 0.059,0.013l0.026,-0.157c-0.006,-0.003 -0.028,-0.012 -0.071,-0.012c-0.071,0 -0.123,0.032 -0.155,0.084l0,-0.073l-0.178,-0l-0,0.531Z" style="fill-rule:nonzero;"/></g><g transform="matrix(49.9432,0,0,49.9432,600.788,701.572)"><rect x="0.063" y="-0.782" width="0.176" height="0.782" style="fill-rule:nonzero;"/></g><g transform="matrix(49.9432,0,0,49.9432,615.072,701.572)"><path d="M0.234,0.012c0.073,-0 0.141,-0.025 0.182,-0.067c0.001,0.004 0.002,0.008 0.004,0.013c0.007,0.02 0.019,0.036 0.025,0.042l0.174,0c-0.006,-0.006 -0.019,-0.024 -0.027,-0.048c-0.006,-0.021 -0.006,-0.048 -0.006,-0.077l-0,-0.218c-0,-0.135 -0.129,-0.199 -0.272,-0.199c-0.153,0 -0.272,0.07 -0.272,0.201l0.176,0c0,-0.045 0.032,-0.067 0.094,-0.067c0.059,-0 0.095,0.022 0.095,0.054l-0,0.001c-0,0.02 -0.034,0.025 -0.146,0.036c-0.116,0.011 -0.227,0.057 -0.227,0.172c0,0.1 0.084,0.157 0.2,0.157Zm0.051,-0.13c-0.047,-0 -0.072,-0.015 -0.072,-0.044c0,-0.031 0.028,-0.042 0.085,-0.048c0.036,-0.003 0.076,-0.009 0.111,-0.018c-0.007,0.08 -0.067,0.11 -0.124,0.11Z" style="fill-rule:nonzero;"/></g><g transform="matrix(49.9432,0,0,49.9432,646.736,701.572)"><path d="M0.282,0.013c0.122,-0 0.255,-0.048 0.255,-0.176c-0,-0.121 -0.135,-0.151 -0.218,-0.164c-0.063,-0.01 -0.108,-0.021 -0.108,-0.047c-0,-0.029 0.043,-0.037 0.072,-0.037c0.034,-0 0.071,0.014 0.071,0.048l0,0.005l0.175,0l0,-0.006c0,-0.11 -0.117,-0.178 -0.245,-0.178c-0.134,0 -0.248,0.059 -0.248,0.171c0,0.11 0.122,0.148 0.216,0.163c0.08,0.013 0.112,0.021 0.112,0.05c0,0.028 -0.043,0.038 -0.077,0.038c-0.05,0 -0.081,-0.013 -0.081,-0.047l0,-0.006l-0.177,0l0,0.007c0,0.12 0.128,0.179 0.253,0.179Z" style="fill-rule:nonzero;"/></g><g transform="matrix(49.9432,0,0,49.9432,674.404,701.572)"><path d="M0.334,0.012c0.036,0 0.064,-0.007 0.079,-0.013l-0,-0.131c-0.01,0.004 -0.033,0.01 -0.056,0.01c-0.042,-0 -0.047,-0.031 -0.047,-0.074l0,-0.2l0.15,-0l0,-0.135l-0.15,-0l0,-0.175l-0.179,0l0,0.049c0,0.12 -0.009,0.126 -0.102,0.126l-0.018,-0l-0,0.135l0.12,-0l0,0.248c0,0.142 0.116,0.16 0.203,0.16Z" style="fill-rule:nonzero;"/></g><g transform="matrix(49.9432,0,0,49.9432,697.478,701.572)"><path d="M0.616,-0.168l-0.176,-0c-0.003,0.022 -0.031,0.049 -0.105,0.049c-0.071,0 -0.111,-0.034 -0.124,-0.096l0.411,0c0.001,-0.008 0.002,-0.024 0.002,-0.042c-0,-0.173 -0.114,-0.285 -0.297,-0.285c-0.177,0 -0.298,0.111 -0.298,0.277c0,0.163 0.116,0.278 0.298,0.278c0.177,-0 0.28,-0.089 0.289,-0.181Zm-0.286,-0.245c0.074,0 0.108,0.044 0.113,0.087l-0.23,-0c0.015,-0.056 0.055,-0.087 0.117,-0.087Z" style="fill-rule:nonzero;"/></g><g transform="matrix(49.9432,0,0,49.9432,730.066,701.572)"><path d="M0.056,-0l0.178,-0l-0,-0.272c-0,-0.073 0.034,-0.12 0.102,-0.12c0.078,-0 0.091,0.055 0.091,0.115l0,0.277l0.178,-0l0,-0.329c0,-0.126 -0.054,-0.213 -0.187,-0.213c-0.077,0 -0.144,0.035 -0.184,0.093l-0,-0.082l-0.178,-0l-0,0.531Z" style="fill-rule:nonzero;"/></g><g transform="matrix(49.9432,0,0,49.9432,762.804,701.572)"><path d="M0.056,-0l0.178,-0l0,-0.238c0,-0.071 0.036,-0.148 0.141,-0.148c0.031,0 0.053,0.01 0.059,0.013l0.026,-0.157c-0.006,-0.003 -0.028,-0.012 -0.071,-0.012c-0.071,0 -0.123,0.032 -0.155,0.084l0,-0.073l-0.178,-0l-0,0.531Z" style="fill-rule:nonzero;"/></g><g transform="matrix(49.9432,0,0,49.9432,784.729,701.572)"><path d="M0.194,-0.602c0.048,0 0.091,-0.026 0.091,-0.074c0,-0.047 -0.043,-0.073 -0.091,-0.073c-0.049,-0 -0.092,0.026 -0.092,0.073c0,0.048 0.043,0.074 0.092,0.074Zm0.257,0c0.048,0 0.091,-0.026 0.091,-0.074c0,-0.047 -0.043,-0.073 -0.091,-0.073c-0.049,-0 -0.092,0.026 -0.092,0.073c0,0.048 0.043,0.074 0.092,0.074Zm-0.217,0.614c0.073,-0 0.141,-0.025 0.182,-0.067c0.001,0.004 0.002,0.008 0.004,0.013c0.007,0.02 0.019,0.036 0.025,0.042l0.174,-0c-0.006,-0.006 -0.019,-0.024 -0.027,-0.048c-0.006,-0.021 -0.006,-0.048 -0.006,-0.077l-0,-0.218c-0,-0.135 -0.129,-0.199 -0.272,-0.199c-0.153,0 -0.272,0.07 -0.272,0.201l0.176,0c0,-0.045 0.032,-0.067 0.094,-0.067c0.059,-0 0.095,0.022 0.095,0.054l-0,0.001c-0,0.02 -0.034,0.025 -0.146,0.036c-0.116,0.011 -0.227,0.057 -0.227,0.172c0,0.1 0.084,0.157 0.2,0.157Zm0.051,-0.13c-0.047,-0 -0.072,-0.015 -0.072,-0.044c0,-0.031 0.028,-0.042 0.085,-0.048c0.036,-0.003 0.076,-0.009 0.111,-0.018c-0.007,0.08 -0.067,0.11 -0.124,0.11Z" style="fill-rule:nonzero;"/></g><g transform="matrix(49.9432,0,0,49.9432,816.393,701.572)"><path d="M0.278,0.013c0.063,-0 0.119,-0.029 0.161,-0.074l-0,0.061l0.178,-0l0,-0.782l-0.178,0l-0,0.31c-0.042,-0.044 -0.098,-0.07 -0.161,-0.07c-0.128,0 -0.249,0.098 -0.249,0.273c0,0.185 0.116,0.282 0.249,0.282Zm0.049,-0.153c-0.059,0 -0.114,-0.039 -0.114,-0.129c0,-0.089 0.055,-0.126 0.114,-0.126c0.055,-0 0.112,0.039 0.112,0.109l-0,0.034c-0,0.071 -0.056,0.112 -0.112,0.112Z" style="fill-rule:nonzero;"/></g><g transform="matrix(49.9432,0,0,49.9432,849.855,701.572)"><path d="M0.616,-0.168l-0.176,-0c-0.003,0.022 -0.031,0.049 -0.105,0.049c-0.071,0 -0.111,-0.034 -0.124,-0.096l0.411,0c0.001,-0.008 0.002,-0.024 0.002,-0.042c-0,-0.173 -0.114,-0.285 -0.297,-0.285c-0.177,0 -0.298,0.111 -0.298,0.277c0,0.163 0.116,0.278 0.298,0.278c0.177,-0 0.28,-0.089 0.289,-0.181Zm-0.286,-0.245c0.074,0 0.108,0.044 0.113,0.087l-0.23,-0c0.015,-0.056 0.055,-0.087 0.117,-0.087Z" style="fill-rule:nonzero;"/></g><g transform="matrix(49.9432,0,0,49.9432,882.443,701.572)"><path d="M0.056,-0l0.178,-0l0,-0.238c0,-0.071 0.036,-0.148 0.141,-0.148c0.031,0 0.053,0.01 0.059,0.013l0.026,-0.157c-0.006,-0.003 -0.028,-0.012 -0.071,-0.012c-0.071,0 -0.123,0.032 -0.155,0.084l0,-0.073l-0.178,-0l-0,0.531Z" style="fill-rule:nonzero;"/></g></g><g><path d="M2671.43,437.676c-0,-51.671 -41.89,-93.56 -93.561,-93.56c-51.668,-0 -93.557,41.889 -93.557,93.56c0,51.672 41.889,93.561 93.557,93.561c51.671,0 93.561,-41.889 93.561,-93.561" style="fill:#e2341d;"/><path d="M2818.54,379.848c20.777,-37.594 62.333,-37.594 83.11,-18.797c20.779,18.797 20.779,56.39 0,93.984c-14.544,28.195 -51.944,56.39 -83.11,75.187c-31.167,-18.797 -68.567,-46.992 -83.111,-75.187c-20.778,-37.594 -20.778,-75.187 -0,-93.984c20.778,-18.797 62.333,-18.797 83.111,18.797Z" style="fill:#fdc50f;"/><path d="M3168.11,340.044l-26.125,51.25c-1.037,2.038 -0.028,4.518 2.136,5.253l35.286,11.952c2.857,0.968 3.457,4.751 1.037,6.556l-29.874,22.3c-1.834,1.364 -2.024,4.039 -0.41,5.653l40.655,40.656c2.569,2.568 0.349,6.918 -3.233,6.35l-56.81,-8.975c-2.256,-0.358 -4.303,1.368 -4.336,3.653l-0.488,37.272c-0.038,3.015 -3.448,4.751 -5.914,3.011l-30.419,-21.51c-1.861,-1.321 -4.467,-0.679 -5.504,1.359l-26.125,51.254c-1.652,3.233 -6.477,2.466 -7.044,-1.121l-8.975,-56.791c-0.359,-2.257 -2.634,-3.676 -4.816,-2.996l-35.588,11.073c-2.885,0.898 -5.593,-1.81 -4.695,-4.695l11.074,-35.583c0.679,-2.182 -0.736,-4.462 -2.992,-4.816l-56.795,-8.98c-3.588,-0.562 -4.355,-5.392 -1.122,-7.039l51.259,-26.129c2.033,-1.038 2.675,-3.639 1.354,-5.505l-21.505,-30.419c-1.745,-2.466 -0.009,-5.876 3.01,-5.913l37.273,-0.489c2.28,-0.028 4.006,-2.08 3.652,-4.336l-8.979,-56.805c-0.568,-3.587 3.787,-5.802 6.351,-3.233l40.655,40.65c1.619,1.619 4.29,1.424 5.657,-0.405l22.296,-29.879c1.81,-2.42 5.588,-1.819 6.556,1.042l11.952,35.281c0.736,2.164 3.22,3.173 5.258,2.136l51.245,-26.12c3.238,-1.652 6.69,1.805 5.043,5.038" style="fill:#61b22b;"/></g><path d="M387.489,339.314l18.238,0l0,126.892l-10.151,-0l-0,-118.375l0.4,0.144l-35.299,118.231l-15.514,-0l-35.357,-118.289l0.4,-0.144l0,118.433l-10.151,-0l-0,-126.892l18.239,0l34.698,118.691l-0.344,-0l34.841,-118.691Z" style="fill:#1c1c1b;fill-rule:nonzero;"/><path d="M440.855,466.206l-0,-91.362l10.495,-0l0,91.362l-10.495,-0Zm5.333,-114.389c-2.217,-0 -4.129,-0.65 -5.735,-1.95c-1.606,-1.3 -2.409,-3.04 -2.409,-5.219c0,-2.122 0.803,-3.833 2.409,-5.133c1.606,-1.3 3.518,-1.95 5.735,-1.95c2.199,0 4.091,0.65 5.678,1.95c1.587,1.3 2.381,3.011 2.381,5.133c-0,2.179 -0.794,3.919 -2.381,5.219c-1.587,1.3 -3.479,1.95 -5.678,1.95Z" style="fill:#1c1c1b;fill-rule:nonzero;"/><path d="M514.639,467.61c-2.581,0 -5.086,-0.324 -7.514,-0.974c-2.428,-0.65 -4.598,-1.783 -6.51,-3.398c-1.911,-1.616 -3.422,-3.858 -4.53,-6.725c-1.109,-2.868 -1.663,-6.519 -1.663,-10.954l0,-61.31l-21.967,0l0,-9.405l15.773,-0c1.51,-0 2.69,-0.053 3.541,-0.158c0.851,-0.105 1.463,-0.387 1.836,-0.846c0.373,-0.459 0.602,-1.176 0.688,-2.151c0.086,-0.975 0.129,-2.342 0.129,-4.1l0,-22.225l10.696,0l-0,29.48l29.249,-0l0,9.405l-29.249,0l-0,57.411c-0,5.199 0.755,9.252 2.265,12.158c1.511,2.906 4.388,4.359 8.632,4.359c1.625,-0 3.216,-0.139 4.774,-0.416c1.558,-0.277 2.72,-0.598 3.485,-0.961l-0,9.32c-0.938,0.401 -2.271,0.75 -4.001,1.046c-1.73,0.296 -3.608,0.444 -5.634,0.444Z" style="fill:#1c1c1b;fill-rule:nonzero;"/><path d="M614.287,462.334c4.703,0.363 8.857,1.224 12.46,2.581c3.604,1.358 6.429,3.342 8.474,5.951c2.046,2.61 3.068,5.998 3.068,10.165c0,4.55 -1.572,8.637 -4.717,12.259c-3.145,3.623 -7.987,6.481 -14.525,8.574c-6.538,2.094 -14.883,3.14 -25.034,3.14c-14.146,0 -24.713,-2.126 -31.701,-6.38c-6.987,-4.253 -10.481,-9.85 -10.481,-16.789c0,-2.372 0.277,-4.432 0.831,-6.181c0.555,-1.749 1.166,-3.159 1.836,-4.229l10.123,1.577c-0.497,0.727 -0.98,1.802 -1.448,3.226c-0.469,1.424 -0.703,3.082 -0.703,4.975c0,5.085 2.777,8.861 8.33,11.327c5.554,2.466 13.511,3.7 23.873,3.7c7.838,-0 14.219,-0.646 19.141,-1.936c4.923,-1.29 8.555,-3.049 10.897,-5.277c2.342,-2.227 3.513,-4.698 3.513,-7.412c0,-4.111 -1.678,-6.821 -5.033,-8.13c-3.355,-1.309 -7.527,-2.146 -12.517,-2.509l-34.813,-2.552c-5.62,-0.44 -10.156,-2.055 -13.606,-4.846c-3.451,-2.791 -5.176,-6.29 -5.176,-10.496c-0,-2.619 0.645,-5.046 1.935,-7.283c1.291,-2.237 2.806,-4.101 4.546,-5.592c1.74,-1.491 3.307,-2.39 4.702,-2.696l8.517,4.101c-1.567,0.286 -3.46,1.319 -5.678,3.097c-2.218,1.778 -3.327,3.957 -3.327,6.538c0,2.294 0.952,4.191 2.854,5.692c1.903,1.5 5.406,2.451 10.51,2.853l33.149,2.552Zm13.507,-87.49l10.065,-0l-3.785,36.246c-0.688,6.749 -2.614,12.871 -5.778,18.368c-3.164,5.496 -7.551,9.864 -13.162,13.105c-5.611,3.24 -12.48,4.86 -20.605,4.86c-8.431,0 -15.614,-1.625 -21.55,-4.875c-5.936,-3.25 -10.467,-7.647 -13.592,-13.191c-3.126,-5.544 -4.689,-11.728 -4.689,-18.553c0,-6.921 1.654,-13.201 4.962,-18.841c3.307,-5.639 7.919,-10.117 13.836,-13.434c5.917,-3.317 12.746,-4.976 20.489,-4.976c7.169,0 13.334,1.291 18.496,3.872c5.162,2.581 9.215,5.764 12.159,9.549c2.944,3.785 4.626,7.504 5.046,11.155l-3.899,0l2.007,-23.285Zm-33.321,63.058c6.155,0 11.417,-1.132 15.785,-3.398c4.368,-2.265 7.714,-5.453 10.037,-9.563c2.322,-4.11 3.484,-8.937 3.484,-14.481c-0,-5.315 -1.166,-10.033 -3.498,-14.152c-2.333,-4.12 -5.678,-7.355 -10.037,-9.706c-4.359,-2.352 -9.578,-3.528 -15.657,-3.528c-5.811,0 -10.93,1.209 -15.356,3.628c-4.426,2.418 -7.877,5.706 -10.352,9.864c-2.476,4.158 -3.714,8.885 -3.714,14.18c0,5.391 1.166,10.127 3.499,14.209c2.332,4.082 5.682,7.26 10.051,9.535c4.368,2.275 9.621,3.412 15.758,3.412Z" style="fill:#1c1c1b;fill-rule:nonzero;"/><rect x="664.384" y="331.744" width="10.495" height="134.462" style="fill:#1c1c1b;fill-rule:nonzero;"/><path d="M706.338,466.206l-0,-91.362l10.495,-0l-0,91.362l-10.495,-0Zm5.333,-114.389c-2.218,-0 -4.13,-0.65 -5.735,-1.95c-1.606,-1.3 -2.409,-3.04 -2.409,-5.219c-0,-2.122 0.803,-3.833 2.409,-5.133c1.605,-1.3 3.517,-1.95 5.735,-1.95c2.198,0 4.091,0.65 5.678,1.95c1.587,1.3 2.381,3.011 2.381,5.133c-0,2.179 -0.794,3.919 -2.381,5.219c-1.587,1.3 -3.48,1.95 -5.678,1.95Z" style="fill:#1c1c1b;fill-rule:nonzero;"/><path d="M750.212,424.97l-0,-9.521l73.984,0l-2.093,2.925l0,-1.72c0,-5.927 -1.257,-11.432 -3.771,-16.518c-2.514,-5.085 -6.17,-9.181 -10.969,-12.288c-4.798,-3.106 -10.638,-4.659 -17.52,-4.659c-6.96,-0 -13.106,1.591 -18.44,4.774c-5.334,3.183 -9.501,7.575 -12.502,13.177c-3.001,5.601 -4.502,12.082 -4.502,19.443c0,7.493 1.482,14.06 4.445,19.699c2.963,5.64 7.116,10.028 12.459,13.163c5.343,3.135 11.552,4.702 18.626,4.702c5.256,0 9.82,-0.654 13.692,-1.964c3.871,-1.309 7.078,-3.02 9.621,-5.132c2.542,-2.113 4.483,-4.359 5.821,-6.739c1.339,-2.381 2.123,-4.641 2.352,-6.782l10.638,0c-0.267,3.384 -1.361,6.849 -3.283,10.395c-1.921,3.546 -4.645,6.829 -8.172,9.85c-3.527,3.021 -7.877,5.463 -13.048,7.327c-5.172,1.864 -11.141,2.796 -17.909,2.796c-8.851,0 -16.699,-2.003 -23.543,-6.008c-6.844,-4.005 -12.23,-9.549 -16.159,-16.632c-3.929,-7.083 -5.893,-15.232 -5.893,-24.447c0,-9.291 1.974,-17.478 5.922,-24.561c3.948,-7.083 9.363,-12.636 16.245,-16.66c6.882,-4.025 14.72,-6.037 23.514,-6.037c8.928,0 16.661,2.041 23.199,6.123c6.539,4.081 11.59,9.601 15.155,16.56c3.566,6.959 5.348,14.759 5.348,23.4c0,0.746 -0.019,1.702 -0.057,2.867c-0.038,1.166 -0.095,1.989 -0.171,2.467l-82.989,0Z" style="fill:#1c1c1b;fill-rule:nonzero;"/><path d="M895.198,467.84c-7.475,0 -14.233,-1.825 -20.274,-5.477c-6.041,-3.651 -10.826,-9.004 -14.353,-16.058c-3.527,-7.054 -5.291,-15.648 -5.291,-25.78c0,-10.018 1.783,-18.525 5.349,-25.522c3.566,-6.997 8.369,-12.321 14.41,-15.973c6.04,-3.651 12.76,-5.477 20.159,-5.477c6.996,0 13.482,1.654 19.457,4.961c5.974,3.307 10.773,7.819 14.395,13.536c3.623,5.716 5.434,12.206 5.434,19.47l0,1.204l-7.857,0.173l0,-1.147c0,-5.219 -1.395,-9.975 -4.187,-14.267c-2.791,-4.292 -6.471,-7.728 -11.04,-10.309c-4.569,-2.581 -9.511,-3.871 -14.826,-3.871c-8.87,-0 -16.149,3.121 -21.836,9.363c-5.688,6.242 -8.532,15.528 -8.532,27.859c0,12.292 2.853,21.578 8.56,27.858c5.706,6.28 12.976,9.42 21.808,9.42c5.43,0 10.419,-1.309 14.97,-3.928c4.55,-2.619 8.201,-6.137 10.954,-10.553c2.753,-4.416 4.129,-9.348 4.129,-14.797l7.857,0.172c0,7.399 -1.778,14.056 -5.334,19.973c-3.555,5.917 -8.301,10.591 -14.237,14.023c-5.936,3.431 -12.508,5.147 -19.715,5.147Zm31.429,-1.634l0,-134.462l10.696,-0l0,134.462l-10.696,-0Z" style="fill:#1c1c1b;fill-rule:nonzero;"/><path d="M1011.22,466.206l0,-91.362l10.496,-0l-0,91.362l-10.496,-0Zm5.334,-114.389c-2.218,-0 -4.13,-0.65 -5.736,-1.95c-1.606,-1.3 -2.408,-3.04 -2.408,-5.219c-0,-2.122 0.802,-3.833 2.408,-5.133c1.606,-1.3 3.518,-1.95 5.736,-1.95c2.198,0 4.091,0.65 5.678,1.95c1.587,1.3 2.38,3.011 2.38,5.133c0,2.179 -0.793,3.919 -2.38,5.219c-1.587,1.3 -3.48,1.95 -5.678,1.95Z" style="fill:#1c1c1b;fill-rule:nonzero;"/><path d="M1108.95,466.206l0,-58.069c0,-2.237 -0.167,-4.751 -0.502,-7.542c-0.335,-2.791 -1.118,-5.472 -2.352,-8.043c-1.233,-2.572 -3.173,-4.699 -5.821,-6.381c-2.647,-1.682 -6.303,-2.523 -10.967,-2.523c-4.838,0 -8.896,0.961 -12.174,2.882c-3.279,1.92 -5.912,4.396 -7.9,7.426c-1.988,3.03 -3.412,6.266 -4.272,9.707c-0.861,3.441 -1.291,6.682 -1.291,9.721l-6.309,-2.494c-0,-6.577 1.376,-12.699 4.129,-18.367c2.753,-5.668 6.667,-10.247 11.743,-13.736c5.075,-3.489 11.093,-5.234 18.052,-5.234c6.729,0 12.158,1.339 16.288,4.015c4.129,2.676 7.15,6.409 9.062,11.198c1.911,4.789 2.867,10.385 2.867,16.79l0,60.65l-10.553,-0Zm-55.89,-0l0,-91.362l10.611,-0l0,91.362l-10.611,-0Zm111.636,-0l0,-58.499c0,-2.161 -0.143,-4.613 -0.43,-7.356c-0.286,-2.743 -1.042,-5.376 -2.265,-7.9c-1.224,-2.523 -3.198,-4.621 -5.922,-6.294c-2.724,-1.672 -6.533,-2.509 -11.427,-2.509c-4.894,0 -8.966,0.946 -12.216,2.839c-3.25,1.892 -5.822,4.315 -7.714,7.268c-1.893,2.954 -3.236,6.042 -4.029,9.263c-0.793,3.222 -1.19,6.152 -1.19,8.79l-6.309,-2.267c-0,-6.174 1.329,-12 3.986,-17.477c2.657,-5.477 6.486,-9.931 11.485,-13.363c4.999,-3.432 11.007,-5.148 18.023,-5.148c6.309,0 11.581,1.2 15.815,3.6c4.234,2.399 7.426,5.845 9.577,10.337c2.151,4.492 3.226,9.931 3.226,16.317l0,62.399l-10.61,-0Z" style="fill:#1c1c1b;fill-rule:nonzero;"/></svg>