<?xml version="1.0" encoding="UTF-8" standalone="no"?><!DOCTYPE svg PUBLIC "-//W3C//DTD SVG 1.1//EN" "http://www.w3.org/Graphics/SVG/1.1/DTD/svg11.dtd"><svg width="100%" height="100%" viewBox="0 0 324 800" version="1.1" xmlns="http://www.w3.org/2000/svg" xmlns:xlink="http://www.w3.org/1999/xlink" xml:space="preserve" xmlns:serif="http://www.serif.com/" style="fill-rule:evenodd;clip-rule:evenodd;stroke-linejoin:round;stroke-miterlimit:2;"><rect id="symbole-quer" x="0.08" y="0.09" width="322.905" height="799.287" style="fill:none;"/><g><path d="M248.769,161.529c0,-49.366 -40.021,-89.387 -89.387,-89.387c-49.364,-0 -89.384,40.021 -89.384,89.387c-0,49.367 40.02,89.388 89.384,89.388c49.366,0 89.387,-40.021 89.387,-89.388" style="fill:#e2341d;"/><path d="M157.981,329.547c19.851,-35.917 59.553,-35.917 79.404,-17.959c19.851,17.959 19.851,53.875 -0,89.792c-13.896,26.938 -49.628,53.875 -79.404,71.834c-29.777,-17.959 -65.508,-44.896 -79.404,-71.834c-19.851,-35.917 -19.851,-71.833 -0,-89.792c19.851,-17.958 59.553,-17.958 79.404,17.959Z" style="fill:#fdc50f;"/><path d="M272.31,672.338l-54.129,-9.511c-2.152,-0.377 -4.135,1.24 -4.2,3.422l-1.036,35.579c-0.084,2.88 -3.371,4.488 -5.698,2.783l-28.736,-21.043c-1.759,-1.293 -4.256,-0.718 -5.278,1.209l-25.751,48.521c-1.627,3.065 -6.222,2.256 -6.707,-1.175l-7.711,-54.405c-0.304,-2.162 -2.454,-3.548 -4.55,-2.938l-34.183,9.992c-2.764,0.81 -5.305,-1.819 -4.406,-4.559l11.129,-33.809c0.685,-2.07 -0.631,-4.271 -2.783,-4.648l-54.133,-9.509c-3.416,-0.604 -4.066,-5.226 -0.948,-6.749l49.361,-24.102c1.96,-0.959 2.619,-3.435 1.388,-5.238l-20.081,-29.406c-1.628,-2.384 0.087,-5.615 2.973,-5.603l35.605,0.15c2.183,0.009 3.869,-1.921 3.56,-4.082l-7.703,-54.393c-0.49,-3.434 3.706,-5.488 6.116,-2.996l38.223,39.504c1.517,1.567 4.072,1.425 5.407,-0.305l21.763,-28.161c1.764,-2.285 5.365,-1.655 6.245,1.093l10.884,33.909c0.664,2.075 3.022,3.077 4.984,2.122l49.372,-24.11c3.118,-1.523 6.361,1.835 4.733,4.895l-25.747,48.52c-1.025,1.933 -0.099,4.317 1.955,5.055l33.536,11.998c2.717,0.975 3.227,4.594 0.884,6.28l-28.879,20.798c-1.771,1.277 -1.997,3.83 -0.479,5.401l38.21,39.493c2.416,2.496 0.225,6.617 -3.19,6.018" style="fill:#61b22b;"/></g></svg>