<?xml version="1.0" encoding="UTF-8" standalone="no"?><!DOCTYPE svg PUBLIC "-//W3C//DTD SVG 1.1//EN" "http://www.w3.org/Graphics/SVG/1.1/DTD/svg11.dtd"><svg width="100%" height="100%" viewBox="0 0 1346 3332" version="1.1" xmlns="http://www.w3.org/2000/svg" xmlns:xlink="http://www.w3.org/1999/xlink" xml:space="preserve" xmlns:serif="http://www.serif.com/" style="fill-rule:evenodd;clip-rule:evenodd;stroke-linejoin:round;stroke-miterlimit:2;"><rect id="symbole-quer" x="0.334" y="0.787" width="1345.44" height="3330.36" style="fill:none;"/><g><path d="M1036.54,673.451c0,-205.695 -166.753,-372.449 -372.448,-372.449c-205.68,0 -372.433,166.754 -372.433,372.449c-0,205.695 166.753,372.448 372.433,372.448c205.695,0 372.448,-166.753 372.448,-372.448" style="fill:#e2341d;"/><path d="M658.253,1373.52c82.712,-149.653 248.137,-149.653 330.85,-74.827c82.715,74.827 82.715,224.48 -0,374.133c-57.9,112.24 -206.781,224.48 -330.85,299.306c-124.068,-74.826 -272.95,-187.066 -330.849,-299.306c-82.712,-149.653 -82.712,-299.306 0,-374.133c82.713,-74.826 248.137,-74.826 330.849,74.827Z" style="fill:#fdc50f;"/><path d="M1134.62,2801.82l-225.538,-39.629c-8.966,-1.571 -17.227,5.165 -17.5,14.257l-4.318,148.245c-0.35,12.001 -14.046,18.7 -23.74,11.598l-119.734,-87.681c-7.327,-5.387 -17.732,-2.991 -21.993,5.038l-107.293,202.171c-6.778,12.771 -25.925,9.401 -27.945,-4.897l-32.13,-226.687c-1.269,-9.006 -10.228,-14.783 -18.96,-12.242l-142.429,41.633c-11.518,3.377 -22.102,-7.578 -18.357,-18.994l46.369,-140.873c2.857,-8.625 -2.627,-17.792 -11.594,-19.363l-225.555,-39.624c-14.234,-2.513 -16.942,-21.772 -3.952,-28.119l205.671,-100.425c8.171,-3.997 10.917,-14.312 5.785,-21.824l-83.672,-122.527c-6.783,-9.931 0.363,-23.397 12.39,-23.345l148.351,0.623c9.098,0.039 16.125,-8.004 14.837,-17.005l-32.096,-226.639c-2.043,-14.31 15.442,-22.867 25.484,-12.482l159.26,164.599c6.321,6.528 16.969,5.937 22.528,-1.269l90.682,-117.342c7.349,-9.518 22.354,-6.892 26.019,4.557l45.352,141.288c2.766,8.645 12.589,12.82 20.765,8.841l205.719,-100.459c12.99,-6.346 26.501,7.644 19.717,20.398l-107.275,202.166c-4.273,8.051 -0.413,17.988 8.142,21.06l139.737,49.991c11.32,4.066 13.444,19.145 3.683,26.167l-120.333,86.66c-7.376,5.323 -8.32,15.957 -1.993,22.502l159.208,164.557c10.065,10.397 0.937,27.571 -13.292,25.075" style="fill:#61b22b;"/></g></svg>