<?xml version="1.0" encoding="UTF-8" standalone="no"?><!DOCTYPE svg PUBLIC "-//W3C//DTD SVG 1.1//EN" "http://www.w3.org/Graphics/SVG/1.1/DTD/svg11.dtd"><svg width="100%" height="100%" viewBox="0 0 817 355" version="1.1" xmlns="http://www.w3.org/2000/svg" xmlns:xlink="http://www.w3.org/1999/xlink" xml:space="preserve" xmlns:serif="http://www.serif.com/" style="fill-rule:evenodd;clip-rule:evenodd;stroke-linejoin:round;stroke-miterlimit:2;"><rect id="symbole" x="-0" y="0.141" width="816.665" height="354.673" style="fill:none;"/><g><path d="M248.689,180.363c-0,-49.367 -40.021,-89.388 -89.388,-89.388c-49.363,0 -89.384,40.021 -89.384,89.388c0,49.367 40.021,89.388 89.384,89.388c49.367,-0 89.388,-40.021 89.388,-89.388" style="fill:#e2341d;"/><path d="M389.235,125.114c19.851,-35.917 59.552,-35.917 79.403,-17.958c19.852,17.958 19.852,53.875 0,89.791c-13.895,26.938 -49.627,53.876 -79.403,71.834c-29.777,-17.958 -65.508,-44.896 -79.404,-71.834c-19.851,-35.916 -19.851,-71.833 -0,-89.791c19.851,-17.959 59.553,-17.959 79.404,17.958Z" style="fill:#fdc50f;"/><path d="M723.214,87.086l-24.959,48.963c-0.991,1.947 -0.027,4.317 2.04,5.019l33.712,11.419c2.73,0.925 3.303,4.539 0.992,6.264l-28.543,21.305c-1.751,1.303 -1.933,3.859 -0.391,5.401l38.842,38.842c2.454,2.454 0.333,6.61 -3.09,6.068l-54.275,-8.575c-2.156,-0.342 -4.112,1.307 -4.143,3.489l-0.467,35.611c-0.035,2.88 -3.293,4.538 -5.649,2.876l-29.063,-20.55c-1.778,-1.263 -4.267,-0.649 -5.259,1.298l-24.959,48.968c-1.578,3.089 -6.188,2.356 -6.73,-1.072l-8.575,-54.257c-0.342,-2.156 -2.516,-3.512 -4.601,-2.863l-34.001,10.579c-2.756,0.858 -5.343,-1.729 -4.485,-4.485l10.58,-33.996c0.649,-2.085 -0.703,-4.263 -2.859,-4.601l-54.262,-8.579c-3.427,-0.538 -4.16,-5.152 -1.071,-6.726l48.972,-24.964c1.943,-0.991 2.556,-3.476 1.294,-5.258l-20.546,-29.063c-1.666,-2.356 -0.008,-5.614 2.876,-5.65l35.611,-0.466c2.178,-0.027 3.827,-1.987 3.489,-4.143l-8.579,-54.271c-0.542,-3.428 3.618,-5.543 6.068,-3.09l38.841,38.838c1.547,1.547 4.099,1.36 5.406,-0.387l21.301,-28.547c1.729,-2.311 5.339,-1.738 6.263,0.996l11.42,33.708c0.702,2.067 3.076,3.031 5.023,2.04l48.959,-24.955c3.094,-1.578 6.392,1.724 4.818,4.814" style="fill:#61b22b;"/></g></svg>