<?xml version="1.0" encoding="UTF-8" standalone="no"?><!DOCTYPE svg PUBLIC "-//W3C//DTD SVG 1.1//EN" "http://www.w3.org/Graphics/SVG/1.1/DTD/svg11.dtd"><svg width="100%" height="100%" viewBox="0 0 1346 3331" version="1.1" xmlns="http://www.w3.org/2000/svg" xmlns:xlink="http://www.w3.org/1999/xlink" xml:space="preserve" xmlns:serif="http://www.serif.com/" style="fill-rule:evenodd;clip-rule:evenodd;stroke-linejoin:round;stroke-miterlimit:2;"><rect id="symbole-quer" x="0" y="0.288" width="1345.44" height="3330.36" style="fill:none;"/><g><path d="M1036.2,672.952c-0,-205.695 -166.753,-372.448 -372.449,-372.448c-205.679,-0 -372.432,166.753 -372.432,372.448c-0,205.695 166.753,372.449 372.432,372.449c205.696,-0 372.449,-166.754 372.449,-372.449" style="fill:#e2341d;"/><path d="M657.919,1373.02c82.712,-149.653 248.136,-149.653 330.849,-74.827c82.716,74.827 82.716,224.48 0,374.133c-57.899,112.24 -206.78,224.48 -330.849,299.307c-124.069,-74.827 -272.95,-187.067 -330.849,-299.307c-82.713,-149.653 -82.713,-299.306 -0,-374.133c82.712,-74.826 248.137,-74.826 330.849,74.827Z" style="fill:#fdc50f;"/><path d="M1134.29,2801.32l-225.537,-39.629c-8.967,-1.571 -17.227,5.165 -17.5,14.257l-4.318,148.245c-0.35,12.002 -14.046,18.7 -23.74,11.598l-119.734,-87.681c-7.328,-5.386 -17.732,-2.991 -21.993,5.038l-107.293,202.171c-6.778,12.772 -25.925,9.401 -27.945,-4.896l-32.13,-226.687c-1.269,-9.007 -10.228,-14.784 -18.96,-12.242l-142.429,41.632c-11.518,3.377 -22.103,-7.578 -18.357,-18.994l46.368,-140.873c2.858,-8.625 -2.626,-17.792 -11.593,-19.363l-225.555,-39.624c-14.234,-2.513 -16.942,-21.772 -3.952,-28.118l205.671,-100.426c8.17,-3.996 10.916,-14.311 5.785,-21.824l-83.672,-122.527c-6.784,-9.931 0.363,-23.397 12.39,-23.345l148.351,0.623c9.098,0.04 16.124,-8.004 14.837,-17.005l-32.096,-226.639c-2.043,-14.31 15.442,-22.867 25.484,-12.482l159.259,164.599c6.322,6.528 16.97,5.937 22.529,-1.269l90.681,-117.341c7.35,-9.518 22.355,-6.893 26.02,4.556l45.351,141.289c2.767,8.644 12.59,12.819 20.766,8.841l205.718,-100.46c12.991,-6.346 26.501,7.644 19.718,20.398l-107.275,202.166c-4.273,8.052 -0.413,17.988 8.142,21.06l139.736,49.992c11.32,4.065 13.445,19.144 3.683,26.166l-120.332,86.661c-7.376,5.322 -8.32,15.956 -1.993,22.501l159.208,164.557c10.065,10.398 0.936,27.571 -13.293,25.075" style="fill:#61b22b;"/></g></svg>