<?xml version="1.0" encoding="UTF-8" standalone="no"?><!DOCTYPE svg PUBLIC "-//W3C//DTD SVG 1.1//EN" "http://www.w3.org/Graphics/SVG/1.1/DTD/svg11.dtd"><svg width="100%" height="100%" viewBox="0 0 3403 1479" version="1.1" xmlns="http://www.w3.org/2000/svg" xmlns:xlink="http://www.w3.org/1999/xlink" xml:space="preserve" xmlns:serif="http://www.serif.com/" style="fill-rule:evenodd;clip-rule:evenodd;stroke-linejoin:round;stroke-miterlimit:2;"><rect id="symbole" x="0" y="0.548" width="3402.77" height="1477.8" style="fill:none;"/><g><path d="M1036.2,751.473c-0,-205.695 -166.753,-372.449 -372.449,-372.449c-205.679,0 -372.432,166.754 -372.432,372.449c-0,205.695 166.753,372.448 372.432,372.448c205.696,0 372.449,-166.753 372.449,-372.448" style="fill:#e2341d;"/><path d="M1621.81,521.268c82.712,-149.653 248.136,-149.653 330.849,-74.827c82.716,74.827 82.716,224.48 0,374.133c-57.899,112.24 -206.78,224.48 -330.849,299.306c-124.069,-74.826 -272.95,-187.066 -330.849,-299.306c-82.712,-149.653 -82.712,-299.306 -0,-374.133c82.712,-74.826 248.137,-74.826 330.849,74.827Z" style="fill:#fdc50f;"/><path d="M3013.39,362.817l-103.999,204.015c-4.13,8.112 -0.111,17.984 8.502,20.91l140.467,47.582c11.372,3.853 13.761,18.911 4.13,26.097l-118.926,88.774c-7.298,5.426 -8.057,16.076 -1.63,22.503l161.841,161.841c10.223,10.224 1.389,27.542 -12.873,25.282l-226.148,-35.728c-8.982,-1.426 -17.132,5.446 -17.262,14.54l-1.944,148.375c-0.148,12.002 -13.725,18.911 -23.541,11.984l-121.094,-85.625c-7.408,-5.26 -17.78,-2.704 -21.911,5.408l-103.998,204.033c-6.575,12.873 -25.782,9.817 -28.042,-4.464l-35.728,-226.073c-1.426,-8.983 -10.483,-14.632 -19.169,-11.928l-141.671,44.081c-11.484,3.575 -22.263,-7.205 -18.689,-18.688l44.082,-141.653c2.704,-8.686 -2.927,-17.762 -11.91,-19.169l-226.092,-35.747c-14.28,-2.241 -17.336,-21.466 -4.464,-28.023l204.052,-104.017c8.094,-4.13 10.65,-14.483 5.39,-21.911l-85.607,-121.093c-6.945,-9.817 -0.037,-23.393 11.984,-23.541l148.376,-1.945c9.075,-0.111 15.947,-8.279 14.539,-17.262l-35.747,-226.129c-2.259,-14.28 15.077,-23.096 25.282,-12.873l161.841,161.823c6.446,6.445 17.077,5.668 22.522,-1.611l88.755,-118.946c7.205,-9.631 22.245,-7.242 26.097,4.149l47.582,140.449c2.926,8.612 12.817,12.632 20.929,8.501l203.996,-103.98c12.891,-6.575 26.634,7.187 20.078,20.059" style="fill:#61b22b;"/></g></svg>