<?xml version="1.0" encoding="UTF-8" standalone="no"?><!DOCTYPE svg PUBLIC "-//W3C//DTD SVG 1.1//EN" "http://www.w3.org/Graphics/SVG/1.1/DTD/svg11.dtd"><svg width="100%" height="100%" viewBox="0 0 3462 1300" version="1.1" xmlns="http://www.w3.org/2000/svg" xmlns:xlink="http://www.w3.org/1999/xlink" xml:space="preserve" xmlns:serif="http://www.serif.com/" style="fill-rule:evenodd;clip-rule:evenodd;stroke-linejoin:round;stroke-miterlimit:2;"><rect id="verbandfreierlastenräder" x="0.765" y="0.209" width="3460.33" height="1299.21" style="fill:none;"/><g transform="matrix(6.73787,0,0,6.73787,-3293.61,-3656.26)"><text x="531.292px" y="654.595px" style="font-family:'Epilogue-ExtraBold', 'Epilogue';font-weight:800;font-size:49.943px;">v<tspan x="558.936px " y="654.595px ">e</tspan>rband fr<tspan x="803.932px " y="654.595px ">e</tspan>ier</text><g transform="matrix(49.9432,0,0,49.9432,906.365,701.572)"></g><text x="600.788px" y="701.572px" style="font-family:'Epilogue-ExtraBold', 'Epilogue';font-weight:800;font-size:49.943px;">l<tspan x="615.072px 646.736px 674.404px 697.478px " y="701.572px 701.572px 701.572px 701.572px ">aste</tspan>nr<tspan x="784.729px " y="701.572px ">ä</tspan>der</text></g><g><path d="M2671.25,345.169c0,-51.672 -41.889,-93.561 -93.561,-93.561c-51.667,0 -93.556,41.889 -93.556,93.561c-0,51.671 41.889,93.561 93.556,93.561c51.672,-0 93.561,-41.89 93.561,-93.561" style="fill:#e2341d;"/><path d="M2818.35,287.34c20.778,-37.593 62.333,-37.593 83.111,-18.796c20.778,18.796 20.778,56.39 -0,93.984c-14.545,28.195 -51.944,56.39 -83.111,75.187c-31.166,-18.797 -68.566,-46.992 -83.111,-75.187c-20.777,-37.594 -20.777,-75.188 0,-93.984c20.778,-18.797 62.333,-18.797 83.111,18.796Z" style="fill:#fdc50f;"/><path d="M3167.93,247.537l-26.125,51.249c-1.038,2.038 -0.028,4.518 2.135,5.253l35.286,11.953c2.857,0.968 3.457,4.75 1.038,6.556l-29.875,22.3c-1.833,1.363 -2.024,4.038 -0.409,5.653l40.655,40.655c2.568,2.568 0.349,6.919 -3.234,6.351l-56.809,-8.975c-2.257,-0.358 -4.304,1.368 -4.336,3.652l-0.489,37.273c-0.037,3.015 -3.448,4.75 -5.914,3.01l-30.419,-21.509c-1.861,-1.321 -4.466,-0.679 -5.504,1.358l-26.125,51.254c-1.651,3.234 -6.476,2.466 -7.044,-1.121l-8.975,-56.791c-0.358,-2.256 -2.633,-3.675 -4.815,-2.996l-35.589,11.074c-2.885,0.898 -5.592,-1.81 -4.694,-4.695l11.073,-35.584c0.679,-2.182 -0.735,-4.462 -2.992,-4.815l-56.795,-8.98c-3.587,-0.563 -4.355,-5.392 -1.121,-7.039l51.258,-26.13c2.034,-1.037 2.676,-3.638 1.354,-5.504l-21.504,-30.419c-1.745,-2.466 -0.01,-5.877 3.01,-5.914l37.272,-0.488c2.28,-0.028 4.006,-2.08 3.653,-4.337l-8.98,-56.804c-0.567,-3.588 3.787,-5.802 6.351,-3.234l40.655,40.651c1.619,1.619 4.29,1.423 5.658,-0.405l22.296,-29.88c1.809,-2.419 5.587,-1.819 6.555,1.042l11.953,35.282c0.735,2.163 3.22,3.173 5.257,2.135l51.245,-26.12c3.238,-1.652 6.691,1.805 5.044,5.039" style="fill:#61b22b;"/></g></svg>