<?xml version="1.0" encoding="UTF-8" standalone="no"?><!DOCTYPE svg PUBLIC "-//W3C//DTD SVG 1.1//EN" "http://www.w3.org/Graphics/SVG/1.1/DTD/svg11.dtd"><svg width="100%" height="100%" viewBox="0 0 3462 1300" version="1.1" xmlns="http://www.w3.org/2000/svg" xmlns:xlink="http://www.w3.org/1999/xlink" xml:space="preserve" xmlns:serif="http://www.serif.com/" style="fill-rule:evenodd;clip-rule:evenodd;stroke-linejoin:round;stroke-miterlimit:2;"><rect id="verbandfreierlastenräder----negativ" serif:id="verbandfreierlastenräder  - negativ" x="0.953" y="0.209" width="3460.33" height="1299.21" style="fill:none;"/><g transform="matrix(6.73787,0,0,6.73787,-3293.42,-3656.26)"><text x="531.292px" y="654.595px" style="font-family:'Epilogue-ExtraBold', 'Epilogue';font-weight:800;font-size:49.943px;fill:#fff;">v<tspan x="558.936px " y="654.595px ">e</tspan>rband fr<tspan x="803.932px " y="654.595px ">e</tspan>ier</text><g transform="matrix(49.9432,0,0,49.9432,906.365,701.572)"></g><text x="600.788px" y="701.572px" style="font-family:'Epilogue-ExtraBold', 'Epilogue';font-weight:800;font-size:49.943px;fill:#fff;">l<tspan x="615.072px 646.736px 674.404px 697.478px " y="701.572px 701.572px 701.572px 701.572px ">aste</tspan>nr<tspan x="784.729px " y="701.572px ">ä</tspan>der</text></g><g><path d="M2671.43,345.169c-0,-51.672 -41.89,-93.561 -93.561,-93.561c-51.668,0 -93.557,41.889 -93.557,93.561c0,51.671 41.889,93.561 93.557,93.561c51.671,-0 93.561,-41.89 93.561,-93.561" style="fill:#e2341d;"/><path d="M2818.54,287.34c20.777,-37.593 62.332,-37.593 83.11,-18.796c20.779,18.796 20.779,56.39 0,93.984c-14.544,28.195 -51.944,56.39 -83.11,75.187c-31.167,-18.797 -68.567,-46.992 -83.111,-75.187c-20.778,-37.594 -20.778,-75.188 -0,-93.984c20.778,-18.797 62.333,-18.797 83.111,18.796Z" style="fill:#fdc50f;"/><path d="M3168.11,247.537l-26.125,51.249c-1.037,2.038 -0.028,4.518 2.136,5.253l35.286,11.953c2.857,0.968 3.457,4.75 1.037,6.556l-29.875,22.3c-1.833,1.363 -2.023,4.038 -0.409,5.653l40.655,40.655c2.568,2.568 0.349,6.919 -3.233,6.351l-56.81,-8.975c-2.256,-0.358 -4.303,1.368 -4.336,3.652l-0.489,37.273c-0.037,3.015 -3.447,4.75 -5.913,3.01l-30.419,-21.509c-1.861,-1.321 -4.467,-0.679 -5.504,1.358l-26.125,51.254c-1.652,3.234 -6.477,2.466 -7.044,-1.121l-8.975,-56.791c-0.359,-2.256 -2.634,-3.675 -4.816,-2.996l-35.588,11.074c-2.885,0.898 -5.593,-1.81 -4.695,-4.695l11.073,-35.584c0.68,-2.182 -0.735,-4.462 -2.991,-4.815l-56.796,-8.98c-3.587,-0.563 -4.354,-5.392 -1.121,-7.039l51.259,-26.13c2.033,-1.037 2.675,-3.638 1.354,-5.504l-21.505,-30.419c-1.745,-2.466 -0.009,-5.877 3.01,-5.914l37.273,-0.488c2.28,-0.028 4.006,-2.08 3.652,-4.337l-8.979,-56.804c-0.568,-3.588 3.787,-5.802 6.351,-3.234l40.655,40.651c1.619,1.619 4.289,1.423 5.657,-0.405l22.296,-29.88c1.81,-2.419 5.588,-1.819 6.556,1.042l11.952,35.282c0.735,2.163 3.22,3.173 5.258,2.135l51.245,-26.12c3.238,-1.652 6.69,1.805 5.043,5.039" style="fill:#61b22b;"/></g></svg>