<?xml version="1.0" encoding="UTF-8" standalone="no"?><!DOCTYPE svg PUBLIC "-//W3C//DTD SVG 1.1//EN" "http://www.w3.org/Graphics/SVG/1.1/DTD/svg11.dtd"><svg width="100%" height="100%" viewBox="0 0 3461 1300" version="1.1" xmlns="http://www.w3.org/2000/svg" xmlns:xlink="http://www.w3.org/1999/xlink" xml:space="preserve" xmlns:serif="http://www.serif.com/" style="fill-rule:evenodd;clip-rule:evenodd;stroke-linejoin:round;stroke-miterlimit:2;"><rect id="verbandfreierlastenräder" x="0.496" y="0.583" width="3460.33" height="1299.21" style="fill:none;"/><g transform="matrix(6.73787,0,0,6.73787,-3293.88,-3655.89)"><g transform="matrix(49.9432,0,0,49.9432,531.292,654.595)"><path d="M0.564,-0.531l-0.185,-0l-0.091,0.421l-0.096,-0.421l-0.184,-0l0.159,0.531l0.241,-0l0.156,-0.531Z" style="fill-rule:nonzero;"/></g><g transform="matrix(49.9432,0,0,49.9432,558.936,654.595)"><path d="M0.616,-0.168l-0.176,-0c-0.003,0.022 -0.031,0.049 -0.105,0.049c-0.071,0 -0.111,-0.034 -0.124,-0.096l0.411,0c0.001,-0.008 0.002,-0.024 0.002,-0.042c-0,-0.173 -0.114,-0.285 -0.297,-0.285c-0.177,0 -0.298,0.111 -0.298,0.277c0,0.163 0.116,0.278 0.298,0.278c0.177,-0 0.28,-0.089 0.289,-0.181Zm-0.286,-0.245c0.074,0 0.108,0.044 0.113,0.087l-0.23,-0c0.015,-0.056 0.055,-0.087 0.117,-0.087Z" style="fill-rule:nonzero;"/></g><g transform="matrix(49.9432,0,0,49.9432,591.524,654.595)"><path d="M0.056,-0l0.178,-0l0,-0.238c0,-0.071 0.036,-0.148 0.141,-0.148c0.031,0 0.053,0.01 0.059,0.013l0.026,-0.157c-0.006,-0.003 -0.028,-0.012 -0.071,-0.012c-0.071,0 -0.123,0.032 -0.155,0.084l0,-0.073l-0.178,-0l-0,0.531Z" style="fill-rule:nonzero;"/></g><g transform="matrix(49.9432,0,0,49.9432,615.446,654.595)"><path d="M0.056,-0l0.178,-0l0,-0.061c0.042,0.045 0.098,0.073 0.161,0.073c0.133,0 0.248,-0.096 0.248,-0.281c0,-0.175 -0.12,-0.272 -0.248,-0.272c-0.063,-0 -0.119,0.025 -0.161,0.069l0,-0.31l-0.178,0l-0,0.782Zm0.29,-0.395c0.06,-0 0.113,0.037 0.113,0.126c0,0.09 -0.054,0.129 -0.113,0.129c-0.056,0 -0.112,-0.041 -0.112,-0.112l0,-0.034c0,-0.07 0.057,-0.109 0.112,-0.109Z" style="fill-rule:nonzero;"/></g><g transform="matrix(49.9432,0,0,49.9432,649.033,654.595)"><path d="M0.234,0.012c0.073,-0 0.141,-0.025 0.182,-0.067c0.001,0.004 0.002,0.008 0.004,0.013c0.007,0.02 0.019,0.036 0.025,0.042l0.174,0c-0.006,-0.006 -0.019,-0.024 -0.027,-0.048c-0.006,-0.021 -0.006,-0.048 -0.006,-0.077l-0,-0.218c-0,-0.135 -0.129,-0.199 -0.272,-0.199c-0.153,0 -0.272,0.07 -0.272,0.201l0.176,0c0,-0.045 0.032,-0.067 0.094,-0.067c0.059,-0 0.095,0.022 0.095,0.054l-0,0.001c-0,0.02 -0.034,0.025 -0.146,0.036c-0.116,0.011 -0.227,0.057 -0.227,0.172c0,0.1 0.084,0.157 0.2,0.157Zm0.051,-0.13c-0.047,-0 -0.072,-0.015 -0.072,-0.044c0,-0.031 0.028,-0.042 0.085,-0.048c0.036,-0.003 0.076,-0.009 0.111,-0.018c-0.007,0.08 -0.067,0.11 -0.124,0.11Z" style="fill-rule:nonzero;"/></g><g transform="matrix(49.9432,0,0,49.9432,680.697,654.595)"><path d="M0.056,-0l0.178,-0l-0,-0.272c-0,-0.073 0.034,-0.12 0.102,-0.12c0.078,-0 0.091,0.055 0.091,0.115l0,0.277l0.178,-0l0,-0.329c0,-0.126 -0.054,-0.213 -0.187,-0.213c-0.077,0 -0.144,0.035 -0.184,0.093l-0,-0.082l-0.178,-0l-0,0.531Z" style="fill-rule:nonzero;"/></g><g transform="matrix(49.9432,0,0,49.9432,713.435,654.595)"><path d="M0.278,0.013c0.063,-0 0.119,-0.029 0.161,-0.074l-0,0.061l0.178,-0l0,-0.782l-0.178,0l-0,0.31c-0.042,-0.044 -0.098,-0.07 -0.161,-0.07c-0.128,0 -0.249,0.098 -0.249,0.273c0,0.185 0.116,0.282 0.249,0.282Zm0.049,-0.153c-0.059,0 -0.114,-0.039 -0.114,-0.129c0,-0.089 0.055,-0.126 0.114,-0.126c0.055,-0 0.112,0.039 0.112,0.109l-0,0.034c-0,0.071 -0.056,0.112 -0.112,0.112Z" style="fill-rule:nonzero;"/></g><g transform="matrix(49.9432,0,0,49.9432,759.383,654.595)"><path d="M0.119,-0l0.178,-0l0,-0.396l0.139,-0l-0,-0.135l-0.139,-0l0,-0.022c0,-0.059 0.022,-0.097 0.095,-0.097c0.024,0 0.047,0.005 0.055,0.008l0,-0.136c-0.008,-0.004 -0.028,-0.011 -0.075,-0.011c-0.099,0 -0.253,0.037 -0.253,0.232l0,0.026l-0.108,-0l-0,0.135l0.108,-0l0,0.396Z" style="fill-rule:nonzero;"/></g><g transform="matrix(49.9432,0,0,49.9432,782.007,654.595)"><path d="M0.056,-0l0.178,-0l0,-0.238c0,-0.071 0.036,-0.148 0.141,-0.148c0.031,0 0.053,0.01 0.059,0.013l0.026,-0.157c-0.006,-0.003 -0.028,-0.012 -0.071,-0.012c-0.071,0 -0.123,0.032 -0.155,0.084l0,-0.073l-0.178,-0l-0,0.531Z" style="fill-rule:nonzero;"/></g><g transform="matrix(49.9432,0,0,49.9432,803.932,654.595)"><path d="M0.616,-0.168l-0.176,-0c-0.003,0.022 -0.031,0.049 -0.105,0.049c-0.071,0 -0.111,-0.034 -0.124,-0.096l0.411,0c0.001,-0.008 0.002,-0.024 0.002,-0.042c-0,-0.173 -0.114,-0.285 -0.297,-0.285c-0.177,0 -0.298,0.111 -0.298,0.277c0,0.163 0.116,0.278 0.298,0.278c0.177,-0 0.28,-0.089 0.289,-0.181Zm-0.286,-0.245c0.074,0 0.108,0.044 0.113,0.087l-0.23,-0c0.015,-0.056 0.055,-0.087 0.117,-0.087Z" style="fill-rule:nonzero;"/></g><g transform="matrix(49.9432,0,0,49.9432,836.52,654.595)"><path d="M0.134,-0.606c0.053,0 0.1,-0.028 0.1,-0.08c0,-0.052 -0.047,-0.081 -0.1,-0.081c-0.054,0 -0.101,0.029 -0.101,0.081c0,0.051 0.047,0.08 0.101,0.08Zm-0.088,0.606l0.176,-0l0,-0.531l-0.176,-0l-0,0.531Z" style="fill-rule:nonzero;"/></g><g transform="matrix(49.9432,0,0,49.9432,849.855,654.595)"><path d="M0.616,-0.168l-0.176,-0c-0.003,0.022 -0.031,0.049 -0.105,0.049c-0.071,0 -0.111,-0.034 -0.124,-0.096l0.411,0c0.001,-0.008 0.002,-0.024 0.002,-0.042c-0,-0.173 -0.114,-0.285 -0.297,-0.285c-0.177,0 -0.298,0.111 -0.298,0.277c0,0.163 0.116,0.278 0.298,0.278c0.177,-0 0.28,-0.089 0.289,-0.181Zm-0.286,-0.245c0.074,0 0.108,0.044 0.113,0.087l-0.23,-0c0.015,-0.056 0.055,-0.087 0.117,-0.087Z" style="fill-rule:nonzero;"/></g><g transform="matrix(49.9432,0,0,49.9432,882.443,654.595)"><path d="M0.056,-0l0.178,-0l0,-0.238c0,-0.071 0.036,-0.148 0.141,-0.148c0.031,0 0.053,0.01 0.059,0.013l0.026,-0.157c-0.006,-0.003 -0.028,-0.012 -0.071,-0.012c-0.071,0 -0.123,0.032 -0.155,0.084l0,-0.073l-0.178,-0l-0,0.531Z" style="fill-rule:nonzero;"/></g><g transform="matrix(49.9432,0,0,49.9432,600.788,701.572)"><rect x="0.063" y="-0.782" width="0.176" height="0.782" style="fill-rule:nonzero;"/></g><g transform="matrix(49.9432,0,0,49.9432,615.072,701.572)"><path d="M0.234,0.012c0.073,-0 0.141,-0.025 0.182,-0.067c0.001,0.004 0.002,0.008 0.004,0.013c0.007,0.02 0.019,0.036 0.025,0.042l0.174,0c-0.006,-0.006 -0.019,-0.024 -0.027,-0.048c-0.006,-0.021 -0.006,-0.048 -0.006,-0.077l-0,-0.218c-0,-0.135 -0.129,-0.199 -0.272,-0.199c-0.153,0 -0.272,0.07 -0.272,0.201l0.176,0c0,-0.045 0.032,-0.067 0.094,-0.067c0.059,-0 0.095,0.022 0.095,0.054l-0,0.001c-0,0.02 -0.034,0.025 -0.146,0.036c-0.116,0.011 -0.227,0.057 -0.227,0.172c0,0.1 0.084,0.157 0.2,0.157Zm0.051,-0.13c-0.047,-0 -0.072,-0.015 -0.072,-0.044c0,-0.031 0.028,-0.042 0.085,-0.048c0.036,-0.003 0.076,-0.009 0.111,-0.018c-0.007,0.08 -0.067,0.11 -0.124,0.11Z" style="fill-rule:nonzero;"/></g><g transform="matrix(49.9432,0,0,49.9432,646.736,701.572)"><path d="M0.282,0.013c0.122,-0 0.255,-0.048 0.255,-0.176c-0,-0.121 -0.135,-0.151 -0.218,-0.164c-0.063,-0.01 -0.108,-0.021 -0.108,-0.047c-0,-0.029 0.043,-0.037 0.072,-0.037c0.034,-0 0.071,0.014 0.071,0.048l0,0.005l0.175,0l0,-0.006c0,-0.11 -0.117,-0.178 -0.245,-0.178c-0.134,0 -0.248,0.059 -0.248,0.171c0,0.11 0.122,0.148 0.216,0.163c0.08,0.013 0.112,0.021 0.112,0.05c0,0.028 -0.043,0.038 -0.077,0.038c-0.05,0 -0.081,-0.013 -0.081,-0.047l0,-0.006l-0.177,0l0,0.007c0,0.12 0.128,0.179 0.253,0.179Z" style="fill-rule:nonzero;"/></g><g transform="matrix(49.9432,0,0,49.9432,674.404,701.572)"><path d="M0.334,0.012c0.036,0 0.064,-0.007 0.079,-0.013l-0,-0.131c-0.01,0.004 -0.033,0.01 -0.056,0.01c-0.042,-0 -0.047,-0.031 -0.047,-0.074l0,-0.2l0.15,-0l0,-0.135l-0.15,-0l0,-0.175l-0.179,0l0,0.049c0,0.12 -0.009,0.126 -0.102,0.126l-0.018,-0l-0,0.135l0.12,-0l0,0.248c0,0.142 0.116,0.16 0.203,0.16Z" style="fill-rule:nonzero;"/></g><g transform="matrix(49.9432,0,0,49.9432,697.478,701.572)"><path d="M0.616,-0.168l-0.176,-0c-0.003,0.022 -0.031,0.049 -0.105,0.049c-0.071,0 -0.111,-0.034 -0.124,-0.096l0.411,0c0.001,-0.008 0.002,-0.024 0.002,-0.042c-0,-0.173 -0.114,-0.285 -0.297,-0.285c-0.177,0 -0.298,0.111 -0.298,0.277c0,0.163 0.116,0.278 0.298,0.278c0.177,-0 0.28,-0.089 0.289,-0.181Zm-0.286,-0.245c0.074,0 0.108,0.044 0.113,0.087l-0.23,-0c0.015,-0.056 0.055,-0.087 0.117,-0.087Z" style="fill-rule:nonzero;"/></g><g transform="matrix(49.9432,0,0,49.9432,730.066,701.572)"><path d="M0.056,-0l0.178,-0l-0,-0.272c-0,-0.073 0.034,-0.12 0.102,-0.12c0.078,-0 0.091,0.055 0.091,0.115l0,0.277l0.178,-0l0,-0.329c0,-0.126 -0.054,-0.213 -0.187,-0.213c-0.077,0 -0.144,0.035 -0.184,0.093l-0,-0.082l-0.178,-0l-0,0.531Z" style="fill-rule:nonzero;"/></g><g transform="matrix(49.9432,0,0,49.9432,762.804,701.572)"><path d="M0.056,-0l0.178,-0l0,-0.238c0,-0.071 0.036,-0.148 0.141,-0.148c0.031,0 0.053,0.01 0.059,0.013l0.026,-0.157c-0.006,-0.003 -0.028,-0.012 -0.071,-0.012c-0.071,0 -0.123,0.032 -0.155,0.084l0,-0.073l-0.178,-0l-0,0.531Z" style="fill-rule:nonzero;"/></g><g transform="matrix(49.9432,0,0,49.9432,784.729,701.572)"><path d="M0.194,-0.602c0.048,0 0.091,-0.026 0.091,-0.074c0,-0.047 -0.043,-0.073 -0.091,-0.073c-0.049,-0 -0.092,0.026 -0.092,0.073c0,0.048 0.043,0.074 0.092,0.074Zm0.257,0c0.048,0 0.091,-0.026 0.091,-0.074c0,-0.047 -0.043,-0.073 -0.091,-0.073c-0.049,-0 -0.092,0.026 -0.092,0.073c0,0.048 0.043,0.074 0.092,0.074Zm-0.217,0.614c0.073,-0 0.141,-0.025 0.182,-0.067c0.001,0.004 0.002,0.008 0.004,0.013c0.007,0.02 0.019,0.036 0.025,0.042l0.174,-0c-0.006,-0.006 -0.019,-0.024 -0.027,-0.048c-0.006,-0.021 -0.006,-0.048 -0.006,-0.077l-0,-0.218c-0,-0.135 -0.129,-0.199 -0.272,-0.199c-0.153,0 -0.272,0.07 -0.272,0.201l0.176,0c0,-0.045 0.032,-0.067 0.094,-0.067c0.059,-0 0.095,0.022 0.095,0.054l-0,0.001c-0,0.02 -0.034,0.025 -0.146,0.036c-0.116,0.011 -0.227,0.057 -0.227,0.172c0,0.1 0.084,0.157 0.2,0.157Zm0.051,-0.13c-0.047,-0 -0.072,-0.015 -0.072,-0.044c0,-0.031 0.028,-0.042 0.085,-0.048c0.036,-0.003 0.076,-0.009 0.111,-0.018c-0.007,0.08 -0.067,0.11 -0.124,0.11Z" style="fill-rule:nonzero;"/></g><g transform="matrix(49.9432,0,0,49.9432,816.393,701.572)"><path d="M0.278,0.013c0.063,-0 0.119,-0.029 0.161,-0.074l-0,0.061l0.178,-0l0,-0.782l-0.178,0l-0,0.31c-0.042,-0.044 -0.098,-0.07 -0.161,-0.07c-0.128,0 -0.249,0.098 -0.249,0.273c0,0.185 0.116,0.282 0.249,0.282Zm0.049,-0.153c-0.059,0 -0.114,-0.039 -0.114,-0.129c0,-0.089 0.055,-0.126 0.114,-0.126c0.055,-0 0.112,0.039 0.112,0.109l-0,0.034c-0,0.071 -0.056,0.112 -0.112,0.112Z" style="fill-rule:nonzero;"/></g><g transform="matrix(49.9432,0,0,49.9432,849.855,701.572)"><path d="M0.616,-0.168l-0.176,-0c-0.003,0.022 -0.031,0.049 -0.105,0.049c-0.071,0 -0.111,-0.034 -0.124,-0.096l0.411,0c0.001,-0.008 0.002,-0.024 0.002,-0.042c-0,-0.173 -0.114,-0.285 -0.297,-0.285c-0.177,0 -0.298,0.111 -0.298,0.277c0,0.163 0.116,0.278 0.298,0.278c0.177,-0 0.28,-0.089 0.289,-0.181Zm-0.286,-0.245c0.074,0 0.108,0.044 0.113,0.087l-0.23,-0c0.015,-0.056 0.055,-0.087 0.117,-0.087Z" style="fill-rule:nonzero;"/></g><g transform="matrix(49.9432,0,0,49.9432,882.443,701.572)"><path d="M0.056,-0l0.178,-0l0,-0.238c0,-0.071 0.036,-0.148 0.141,-0.148c0.031,0 0.053,0.01 0.059,0.013l0.026,-0.157c-0.006,-0.003 -0.028,-0.012 -0.071,-0.012c-0.071,0 -0.123,0.032 -0.155,0.084l0,-0.073l-0.178,-0l-0,0.531Z" style="fill-rule:nonzero;"/></g></g><g><path d="M2670.98,345.543c-0,-51.672 -41.889,-93.561 -93.561,-93.561c-51.667,0 -93.556,41.889 -93.556,93.561c-0,51.671 41.889,93.561 93.556,93.561c51.672,-0 93.561,-41.89 93.561,-93.561" style="fill:#e2341d;"/><path d="M2818.09,287.714c20.778,-37.593 62.333,-37.593 83.111,-18.796c20.778,18.796 20.778,56.39 -0,93.983c-14.545,28.196 -51.945,56.391 -83.111,75.187c-31.167,-18.796 -68.566,-46.991 -83.111,-75.187c-20.778,-37.593 -20.778,-75.187 0,-93.983c20.778,-18.797 62.333,-18.797 83.111,18.796Z" style="fill:#fdc50f;"/><path d="M3167.66,247.911l-26.124,51.249c-1.038,2.038 -0.028,4.518 2.135,5.253l35.286,11.953c2.857,0.968 3.457,4.75 1.038,6.555l-29.875,22.301c-1.833,1.363 -2.024,4.038 -0.41,5.653l40.655,40.655c2.569,2.568 0.349,6.919 -3.233,6.351l-56.809,-8.975c-2.257,-0.358 -4.304,1.368 -4.337,3.652l-0.488,37.273c-0.037,3.015 -3.448,4.75 -5.914,3.01l-30.419,-21.509c-1.861,-1.322 -4.467,-0.68 -5.504,1.358l-26.125,51.254c-1.652,3.234 -6.477,2.466 -7.044,-1.121l-8.975,-56.791c-0.358,-2.256 -2.634,-3.675 -4.816,-2.996l-35.588,11.073c-2.885,0.898 -5.593,-1.809 -4.695,-4.694l11.074,-35.584c0.679,-2.182 -0.735,-4.462 -2.992,-4.815l-56.795,-8.98c-3.587,-0.563 -4.355,-5.393 -1.122,-7.04l51.259,-26.129c2.033,-1.038 2.675,-3.638 1.354,-5.504l-21.505,-30.419c-1.744,-2.466 -0.009,-5.877 3.011,-5.914l37.272,-0.488c2.28,-0.028 4.006,-2.08 3.653,-4.337l-8.98,-56.804c-0.568,-3.588 3.787,-5.802 6.351,-3.234l40.655,40.65c1.619,1.62 4.29,1.424 5.658,-0.404l22.295,-29.88c1.81,-2.419 5.588,-1.819 6.556,1.042l11.953,35.282c0.735,2.163 3.219,3.173 5.257,2.135l51.245,-26.12c3.238,-1.652 6.69,1.805 5.043,5.039" style="fill:#61b22b;"/></g></svg>